SplineFontDB: 3.0
FontName: Lavi-Bold
FullName: Lavi Bold
FamilyName: Lavi
Weight: Bold
Copyright: A creation by Ruben Holthuijsen aka Rholt (2009).\nMaintainance and modification by David Revoy for the webcomic www.peppercarrot.com.\nCorrection by Solve Svartskogen.\nGNU GPL V3 ( https://www.gnu.org/copyleft/gpl.html)\nRepository and sources available here: https://github.com/Deevad/peppercarrot_fonts/\n
Version: 2.0
DefaultBaseFilename: Lavi_Bold
ItalicAngle: 0
UnderlinePosition: -240
UnderlineWidth: 120
Ascent: 1638
Descent: 410
InvalidEm: 0
LayerCount: 2
Layer: 0 1 "Back" 1
Layer: 1 1 "Fore" 0
XUID: [1021 91 1847977381 8703002]
FSType: 0
OS2Version: 3
OS2_WeightWidthSlopeOnly: 0
OS2_UseTypoMetrics: 1
CreationTime: 1231154524
ModificationTime: 1509920646
PfmFamily: 65
TTFWeight: 400
TTFWidth: 5
LineGap: 122
VLineGap: 0
Panose: 3 0 5 0 0 0 0 2 0 4
OS2TypoAscent: 1556
OS2TypoAOffset: 0
OS2TypoDescent: -412
OS2TypoDOffset: 0
OS2TypoLinegap: 122
OS2WinAscent: 2174
OS2WinAOffset: 0
OS2WinDescent: 626
OS2WinDOffset: 0
HheadAscent: 1556
HheadAOffset: 0
HheadDescent: -412
HheadDOffset: 0
OS2SubXSize: 1434
OS2SubYSize: 1331
OS2SubXOff: 0
OS2SubYOff: 293
OS2SupXSize: 1434
OS2SupYSize: 1331
OS2SupXOff: 0
OS2SupYOff: 928
OS2StrikeYSize: 102
OS2StrikeYPos: 512
OS2FamilyClass: 2048
OS2Vendor: 'RL  '
OS2CodePages: 20000001.00000000
OS2UnicodeRanges: 00000007.00000000.00000000.00000000
Lookup: 258 0 0 "'kern' Horizontal Kerning in Latin lookup 0" { "'kern' Horizontal Kerning in Latin lookup 0 subtable"  } ['kern' ('latn' <'dflt' > ) ]
MarkAttachClasses: 1
DEI: 91125
TtTable: prep
PUSHW_1
 0
CALL
SVTCA[y-axis]
PUSHW_3
 1
 4
 7
CALL
PUSHW_1
 0
DUP
RCVT
RDTG
ROUND[Black]
RTG
WCVTP
EndTTInstrs
TtTable: fpgm
PUSHW_1
 0
FDEF
MPPEM
PUSHW_1
 9
LT
IF
PUSHB_2
 1
 1
INSTCTRL
EIF
PUSHW_1
 511
SCANCTRL
PUSHW_1
 68
SCVTCI
PUSHW_2
 9
 3
SDS
SDB
ENDF
PUSHW_1
 1
FDEF
DUP
DUP
RCVT
ROUND[Black]
WCVTP
PUSHB_1
 1
ADD
ENDF
PUSHW_1
 2
FDEF
PUSHW_1
 1
LOOPCALL
POP
ENDF
PUSHW_1
 3
FDEF
DUP
GC[cur]

StartChar: .notdef
Encoding: 65536 -1 0
Width: 1556
Flags: W
LayerCount: 2
Fore
SplineSet
438 179 m 1,0,-1
 1085 179 l 1,1,-1
 1142 1357 l 1,2,-1
 495 1357 l 1,3,-1
 438 179 l 1,0,-1
205 2 m 1,4,-1
 267 1538 l 1,5,-1
 269 1587 l 1,6,-1
 318 1587 l 1,7,-1
 1324 1587 l 1,8,-1
 1377 1587 l 1,9,-1
 1375 1534 l 1,10,-1
 1313 -2 l 1,11,-1
 1311 -51 l 1,12,-1
 1262 -51 l 1,13,-1
 256 -51 l 1,14,-1
 203 -51 l 1,15,-1
 205 2 l 1,4,-1
EndSplineSet
Validated: 1
EndChar

StartChar: exclam
Encoding: 33 33 4
Width: 700
GlyphClass: 2
Flags: W
LayerCount: 2
Fore
SplineSet
669 1468 m 2,0,-1
 669 1434 l 1,1,-1
 669 1432 l 1,2,-1
 669 1431 l 1,3,-1
 639 942 l 2,4,5
 639 930 639 930 635 911 c 0,6,7
 631 891 631 891 629 869 c 0,8,9
 625 840 625 840 618 806 c 0,10,11
 615 790 615 790 612.5 774 c 128,-1,12
 610 758 610 758 607 742 c 0,13,14
 606 734 606 734 605 726 c 128,-1,15
 604 718 604 718 602.5 710.5 c 128,-1,16
 601 703 601 703 600 695.5 c 128,-1,17
 599 688 599 688 597 680 c 0,18,19
 594 665 594 665 592 652.5 c 128,-1,20
 590 640 590 640 588 629 c 0,21,22
 585 613 585 613 583 601.5 c 128,-1,23
 581 590 581 590 579 581 c 0,24,25
 573 548 573 548 560 517 c 0,26,27
 545 482 545 482 518 457 c 0,28,29
 484 427 484 427 429 427 c 0,30,31
 401 427 401 427 376 437 c 128,-1,32
 351 447 351 447 332 466.5 c 128,-1,33
 313 486 313 486 303.5 511.5 c 128,-1,34
 294 537 294 537 294 565 c 2,35,-1
 294 587 l 1,36,-1
 294 591 l 1,37,-1
 295 595 l 1,38,-1
 359 1020 l 1,39,-1
 391 1510 l 2,40,41
 392 1520 392 1520 394 1530.5 c 128,-1,42
 396 1541 396 1541 400 1550.5 c 128,-1,43
 404 1560 404 1560 409.5 1569 c 128,-1,44
 415 1578 415 1578 422 1585.5 c 128,-1,45
 429 1593 429 1593 437 1600 c 0,46,47
 476 1631 476 1631 524 1631 c 0,48,49
 592 1631 592 1631 630.5 1585 c 128,-1,50
 669 1539 669 1539 669 1468 c 2,0,-1
172 169 m 0,51,52
 172 176 172 176 172.5 183 c 128,-1,53
 173 190 173 190 174 197.5 c 128,-1,54
 175 205 175 205 176.5 212 c 128,-1,55
 178 219 178 219 180 225.5 c 128,-1,56
 182 232 182 232 184 239 c 128,-1,57
 186 246 186 246 189 252 c 0,58,59
 206 291 206 291 235 320 c 128,-1,60
 264 349 264 349 303 366 c 0,61,62
 323 375 323 375 344 379 c 128,-1,63
 365 383 365 383 387 383 c 0,64,65
 433 383 433 383 472 366 c 0,66,67
 513 348 513 348 539 318 c 0,68,69
 552 304 552 304 562.5 287 c 128,-1,70
 573 270 573 270 580 251 c 0,71,72
 596 212 596 212 596 173 c 2,73,-1
 596 169 l 2,74,75
 596 129 596 129 581 88 c 0,76,77
 568 52 568 52 539 20 c 0,78,79
 510 -13 510 -13 471 -29 c 0,80,81
 431 -46 431 -46 387 -46 c 0,82,83
 342 -46 342 -46 303 -29 c 0,84,85
 264 -12 264 -12 235 17 c 128,-1,86
 206 46 206 46 189 85 c 0,87,88
 172 124 172 124 172 169 c 0,51,52
EndSplineSet
Validated: 1
EndChar

StartChar: quotedbl
Encoding: 34 34 5
Width: 811
GlyphClass: 2
Flags: W
LayerCount: 2
Fore
SplineSet
34 1100 m 0,0,1
 76 1148 76 1148 103 1194 c 0,2,3
 131 1240 131 1240 148 1287 c 0,4,5
 166 1334 166 1334 176 1384 c 0,6,7
 187 1436 187 1436 195 1493 c 0,8,9
 204 1547 204 1547 248 1578 c 0,10,11
 287 1604 287 1604 332 1604 c 0,12,13
 378 1604 378 1604 412 1584 c 0,14,15
 431 1573 431 1573 444.5 1555 c 128,-1,16
 458 1537 458 1537 466 1516 c 2,17,-1
 470 1507 l 1,18,-1
 470 1497 l 1,19,-1
 470 1438 l 2,20,21
 470 1419 470 1419 468 1397 c 128,-1,22
 466 1375 466 1375 462 1350 c 0,23,24
 454 1300 454 1300 438 1246 c 0,25,26
 437 1243 437 1243 436 1240 c 1,27,28
 447 1263 447 1263 456 1287 c 0,29,30
 474 1334 474 1334 484 1384 c 0,31,32
 495 1436 495 1436 503 1492 c 0,33,34
 511 1546 511 1546 555 1577 c 0,35,36
 594 1604 594 1604 640 1604 c 0,37,38
 662 1604 662 1604 682 1599 c 128,-1,39
 702 1594 702 1594 720 1584 c 0,40,41
 739 1573 739 1573 752.5 1555 c 128,-1,42
 766 1537 766 1537 774 1516 c 2,43,-1
 778 1507 l 1,44,-1
 778 1497 l 1,45,-1
 778 1438 l 2,46,47
 778 1419 778 1419 776 1397 c 128,-1,48
 774 1375 774 1375 770 1350 c 0,49,50
 762 1300 762 1300 746 1246 c 0,51,52
 738 1219 738 1219 728 1192 c 128,-1,53
 718 1165 718 1165 707 1138 c 0,54,55
 695 1111 695 1111 681 1086 c 128,-1,56
 667 1061 667 1061 651 1038 c 0,57,58
 634 1014 634 1014 615.5 995 c 128,-1,59
 597 976 597 976 576 960 c 0,60,61
 560 949 560 949 543 941.5 c 128,-1,62
 526 934 526 934 507.5 930 c 128,-1,63
 489 926 489 926 470 926 c 0,64,65
 462 926 462 926 454 927 c 128,-1,66
 446 928 446 928 438 930 c 128,-1,67
 430 932 430 932 422.5 935 c 128,-1,68
 415 938 415 938 407 941 c 0,69,70
 402 944 402 944 397 947 c 128,-1,71
 392 950 392 950 387 953 c 128,-1,72
 382 956 382 956 377.5 959.5 c 128,-1,73
 373 963 373 963 368.5 966.5 c 128,-1,74
 364 970 364 970 360 974 c 0,75,76
 339 995 339 995 329 1019 c 1,77,78
 325 1014 325 1014 320 1009 c 0,79,80
 308 995 308 995 295 983 c 128,-1,81
 282 971 282 971 268 960 c 0,82,83
 244 943 244 943 217 934.5 c 128,-1,84
 190 926 190 926 162 926 c 0,85,86
 154 926 154 926 146 927 c 128,-1,87
 138 928 138 928 130 930 c 128,-1,88
 122 932 122 932 114.5 935 c 128,-1,89
 107 938 107 938 99 941 c 0,90,91
 72 954 72 954 52 974 c 0,92,93
 29 996 29 996 20 1022 c 0,94,95
 13 1040 13 1040 16.5 1062.5 c 128,-1,96
 20 1085 20 1085 34 1100 c 0,0,1
EndSplineSet
Validated: 1
EndChar

StartChar: numbersign
Encoding: 35 35 6
Width: 1421
GlyphClass: 2
Flags: W
LayerCount: 2
Fore
SplineSet
545 702 m 1,0,-1
 825 702 l 1,1,2
 826 709 826 709 828 714 c 0,3,4
 830 726 830 726 832.5 741.5 c 128,-1,5
 835 757 835 757 838 775 c 0,6,7
 844 815 844 815 848 855 c 0,8,9
 852 883 852 883 855 907 c 1,10,11
 839 907 839 907 823 907 c 128,-1,12
 807 907 807 907 789 907 c 0,13,14
 750 907 750 907 714 906 c 0,15,16
 703 906 703 906 693.5 905.5 c 128,-1,17
 684 905 684 905 677 905 c 128,-1,18
 670 905 670 905 666 905 c 0,19,20
 651 904 651 904 629 903 c 0,21,22
 605 902 605 902 583 902 c 0,23,24
 579 902 579 902 574 902 c 1,25,-1
 545 702 l 1,0,-1
83 78 m 0,26,27
 83 140 83 140 108 198 c 0,28,29
 130 248 130 248 155 297 c 0,30,31
 179 344 179 344 199 392 c 0,32,33
 206 408 206 408 210 424 c 1,34,-1
 102 424 l 2,35,36
 84 424 84 424 67 430 c 0,37,38
 61 432 61 432 55.5 435.5 c 128,-1,39
 50 439 50 439 45 442 c 0,40,41
 26 456 26 456 13 477 c 0,42,43
 0 496 0 496 -6 518 c 0,44,45
 -9 528 -9 528 -10.5 538 c 128,-1,46
 -12 548 -12 548 -12 558 c 0,47,48
 -12 575 -12 575 -8 594 c 0,49,50
 -4 614 -4 614 5 631 c 0,51,52
 12 645 12 645 24 663 c 0,53,54
 36 682 36 682 53.5 692 c 128,-1,55
 71 702 71 702 91 702 c 2,56,-1
 269 702 l 1,57,-1
 300 902 l 1,58,-1
 154 902 l 2,59,60
 145 902 145 902 136.5 903.5 c 128,-1,61
 128 905 128 905 119 908 c 0,62,63
 107 913 107 913 97 920 c 0,64,65
 78 934 78 934 65 955 c 0,66,67
 61 961 61 961 57.5 968 c 128,-1,68
 54 975 54 975 51 982 c 128,-1,69
 48 989 48 989 46 996 c 0,70,71
 40 1017 40 1017 40 1036 c 0,72,73
 40 1053 40 1053 44 1072 c 0,74,75
 46 1082 46 1082 49.5 1091 c 128,-1,76
 53 1100 53 1100 57 1109 c 0,77,78
 64 1123 64 1123 76 1141 c 0,79,80
 88 1160 88 1160 105.5 1170 c 128,-1,81
 123 1180 123 1180 143 1180 c 2,82,-1
 331 1180 l 1,83,-1
 331 1433 l 2,84,85
 331 1440 331 1440 332 1447.5 c 128,-1,86
 333 1455 333 1455 335 1462.5 c 128,-1,87
 337 1470 337 1470 340 1476.5 c 128,-1,88
 343 1483 343 1483 347 1489 c 0,89,90
 351 1496 351 1496 356.5 1503 c 128,-1,91
 362 1510 362 1510 368 1516 c 128,-1,92
 374 1522 374 1522 380 1527 c 0,93,94
 400 1542 400 1542 424 1548 c 0,95,96
 445 1554 445 1554 466 1554 c 0,97,98
 509 1554 509 1554 539 1534 c 0,99,100
 567 1515 567 1515 581 1486 c 0,101,102
 593 1461 593 1461 597 1430 c 0,103,104
 601 1396 601 1396 600 1376 c 0,105,106
 599 1364 599 1364 598.5 1352 c 128,-1,107
 598 1340 598 1340 597.5 1328 c 128,-1,108
 597 1316 597 1316 596.5 1303.5 c 128,-1,109
 596 1291 596 1291 596 1278.5 c 128,-1,110
 596 1266 596 1266 595 1252 c 0,111,112
 594 1215 594 1215 594 1180 c 1,113,-1
 878 1180 l 1,114,-1
 878 1185 l 1,115,-1
 879 1191 l 2,116,117
 879 1193 879 1193 880 1198 c 128,-1,118
 881 1203 881 1203 881.5 1213.5 c 128,-1,119
 882 1224 882 1224 883 1235 c 0,120,121
 884 1274 884 1274 886 1317 c 0,122,123
 887 1360 887 1360 887 1398 c 0,124,125
 887 1442 887 1442 891 1462 c 2,126,-1
 891 1463 l 1,127,-1
 892 1465 l 2,128,129
 906 1513 906 1513 944 1535 c 0,130,131
 976 1554 976 1554 1019 1554 c 0,132,133
 1067 1554 1067 1554 1103 1526.5 c 128,-1,134
 1139 1499 1139 1499 1151 1452 c 2,135,-1
 1153 1446 l 1,136,-1
 1153 1439 l 1,137,-1
 1153 1353 l 1,138,-1
 1153 1296 l 2,139,140
 1153 1268 1153 1268 1152 1239 c 0,141,142
 1151 1213 1151 1213 1151 1186 c 0,143,144
 1151 1185 1151 1185 1151 1183 c 128,-1,145
 1151 1181 1151 1181 1151 1179.5 c 128,-1,146
 1151 1178 1151 1178 1151 1177 c 2,147,-1
 1264 1177 l 2,148,149
 1299 1177 1299 1177 1323 1150 c 0,150,151
 1328 1145 1328 1145 1332 1139.5 c 128,-1,152
 1336 1134 1336 1134 1339.5 1128 c 128,-1,153
 1343 1122 1343 1122 1346 1116 c 0,154,155
 1356 1097 1356 1097 1361 1077 c 0,156,157
 1366 1057 1366 1057 1366 1042 c 0,158,159
 1366 1020 1366 1020 1358 998 c 0,160,161
 1354 987 1354 987 1349 977 c 128,-1,162
 1344 967 1344 967 1337 958 c 0,163,164
 1322 937 1322 937 1301 924 c 0,165,166
 1289 916 1289 916 1274.5 912 c 128,-1,167
 1260 908 1260 908 1246 908 c 2,168,-1
 1129 908 l 1,169,-1
 1101 699 l 1,170,-1
 1212 699 l 2,171,172
 1218 699 1218 699 1223.5 698 c 128,-1,173
 1229 697 1229 697 1234.5 695.5 c 128,-1,174
 1240 694 1240 694 1245 691.5 c 128,-1,175
 1250 689 1250 689 1254.5 686 c 128,-1,176
 1259 683 1259 683 1263 680 c 128,-1,177
 1267 677 1267 677 1270 673 c 0,178,179
 1285 657 1285 657 1295 637 c 0,180,181
 1303 620 1303 620 1309 601 c 0,182,183
 1312 591 1312 591 1313.5 582 c 128,-1,184
 1315 573 1315 573 1315 564 c 0,185,186
 1315 542 1315 542 1307 520 c 0,187,188
 1303 509 1303 509 1297.5 498.5 c 128,-1,189
 1292 488 1292 488 1285 479 c 0,190,191
 1270 459 1270 459 1249 446 c 0,192,193
 1224 430 1224 430 1194 430 c 2,194,-1
 1044 430 l 1,195,196
 1019 334 1019 334 987 238 c 0,197,198
 948 119 948 119 887 14 c 2,199,-1
 886 12 l 1,200,-1
 884 9 l 2,201,202
 863 -19 863 -19 838 -34 c 0,203,204
 823 -43 823 -43 806 -47 c 128,-1,205
 789 -51 789 -51 771 -51 c 0,206,207
 713 -51 713 -51 675 -13 c 0,208,209
 636 25 636 25 636 83 c 0,210,211
 636 144 636 144 662 202 c 0,212,213
 684 252 684 252 712 302 c 0,214,215
 737 348 737 348 758 394 c 0,216,217
 765 409 765 409 769 425 c 1,218,219
 762 425 762 425 756 425 c 128,-1,220
 750 425 750 425 743.5 425 c 128,-1,221
 737 425 737 425 731 425 c 128,-1,222
 725 425 725 425 718 426 c 0,223,224
 701 426 701 426 684.5 426.5 c 128,-1,225
 668 427 668 427 653 427 c 2,226,-1
 615 427 l 2,227,228
 610 427 610 427 603 426.5 c 128,-1,229
 596 426 596 426 590.5 426 c 128,-1,230
 585 426 585 426 572 426 c 0,231,232
 559 424 559 424 516 424 c 0,233,234
 502 423 502 423 487 422 c 1,235,236
 483 407 483 407 480 388 c 0,237,238
 475 366 475 366 469.5 342.5 c 128,-1,239
 464 319 464 319 457 293 c 0,240,241
 443 239 443 239 425 183 c 0,242,243
 405 125 405 125 380 78 c 0,244,245
 353 26 353 26 317 -8 c 0,246,247
 273 -51 273 -51 215 -51 c 0,248,249
 159 -51 159 -51 121 -14 c 0,250,251
 83 24 83 24 83 78 c 0,26,27
EndSplineSet
Validated: 1
EndChar

StartChar: dollar
Encoding: 36 36 7
Width: 1484
GlyphClass: 2
Flags: W
LayerCount: 2
Fore
SplineSet
411 1180 m 0,0,1
 395 1146 395 1146 395 1095 c 0,2,3
 395 1081 395 1081 402 1071 c 0,4,5
 413 1056 413 1056 429 1046 c 0,6,7
 447 1034 447 1034 469 1025 c 0,8,9
 494 1016 494 1016 516 1011 c 2,10,-1
 543 1005 l 1,11,-1
 543 1275 l 1,12,13
 535 1273 535 1273 529.5 1271.5 c 128,-1,14
 524 1270 524 1270 517 1267 c 0,15,16
 498 1261 498 1261 481.5 1252.5 c 128,-1,17
 465 1244 465 1244 451 1233 c 0,18,19
 426 1212 426 1212 411 1180 c 0,0,1
965 619 m 2,20,-1
 856 645 l 1,21,-1
 856 255 l 1,22,23
 873 259 873 259 888.5 263.5 c 128,-1,24
 904 268 904 268 921 274 c 0,25,26
 987 294 987 294 1040 325 c 0,27,28
 1090 354 1090 354 1121 394 c 0,29,30
 1135 411 1135 411 1141.5 431 c 128,-1,31
 1148 451 1148 451 1148 475 c 0,32,33
 1148 499 1148 499 1135 519 c 0,34,35
 1119 543 1119 543 1093 562 c 0,36,37
 1066 582 1066 582 1033 596 c 0,38,39
 1024 600 1024 600 1015.5 603 c 128,-1,40
 1007 606 1007 606 998.5 609 c 128,-1,41
 990 612 990 612 981.5 614.5 c 128,-1,42
 973 617 973 617 965 619 c 2,20,-1
543 -82 m 1,43,-1
 543 -2 l 1,44,45
 534 -1 534 -1 525.5 0 c 128,-1,46
 517 1 517 1 508.5 2.5 c 128,-1,47
 500 4 500 4 491 5 c 0,48,49
 433 14 433 14 372 29 c 0,50,51
 310 44 310 44 256 67 c 0,52,53
 201 90 201 90 158 122 c 0,54,55
 112 156 112 156 84 199 c 0,56,57
 53 247 53 247 53 306 c 0,58,59
 53 357 53 357 88 394 c 0,60,61
 125 434 125 434 186 434 c 0,62,63
 203 434 203 434 220 429 c 128,-1,64
 237 424 237 424 253 416 c 0,65,66
 278 402 278 402 307 382 c 0,67,68
 335 364 335 364 369 342 c 0,69,70
 399 322 399 322 436 304 c 0,71,72
 454 295 454 295 474.5 287 c 128,-1,73
 495 279 495 279 517 271 c 0,74,75
 529 267 529 267 543 264 c 1,76,-1
 543 721 l 1,77,-1
 467 737 l 2,78,79
 409 750 409 750 350 772 c 0,80,81
 330 779 330 779 311 788 c 0,82,83
 293 797 293 797 276.5 806.5 c 128,-1,84
 260 816 260 816 244 827 c 0,85,86
 197 861 197 861 163 905 c 0,87,88
 126 952 126 952 113 1012 c 2,89,-1
 112 1017 l 1,90,-1
 112 1022 l 1,91,-1
 112 1079 l 2,92,93
 112 1169 112 1169 142 1245 c 0,94,95
 172 1321 172 1321 228 1378 c 0,96,97
 256 1407 256 1407 290 1430 c 0,98,99
 327 1453 327 1453 370 1471 c 0,100,101
 449 1503 449 1503 543 1514 c 1,102,-1
 543 1613 l 1,103,-1
 543 1664 l 1,104,-1
 601 1664 l 1,105,-1
 798 1664 l 1,106,-1
 856 1664 l 1,107,-1
 856 1613 l 1,108,-1
 856 1516 l 1,109,110
 866 1516 866 1516 876 1515.5 c 128,-1,111
 886 1515 886 1515 896 1515 c 0,112,113
 925 1515 925 1515 954.5 1512.5 c 128,-1,114
 984 1510 984 1510 1014 1506 c 0,115,116
 1032 1503 1032 1503 1050 1499.5 c 128,-1,117
 1068 1496 1068 1496 1085.5 1493 c 128,-1,118
 1103 1490 1103 1490 1120 1486 c 0,119,120
 1175 1474 1175 1474 1213 1457 c 0,121,122
 1256 1438 1256 1438 1283 1410 c 0,123,124
 1317 1375 1317 1375 1317 1328 c 0,125,126
 1317 1277 1317 1277 1282 1240 c 0,127,128
 1245 1200 1245 1200 1184 1200 c 2,129,-1
 1171 1200 l 1,130,-1
 1165 1200 l 1,131,-1
 1159 1201 l 2,132,133
 1064 1218 1064 1218 971 1238 c 0,134,135
 914 1250 914 1250 856 1254 c 1,136,-1
 856 922 l 1,137,-1
 995 891 l 2,138,139
 1078 873 1078 873 1158 841 c 0,140,141
 1233 808 1233 808 1290 760 c 0,142,143
 1319 735 1319 735 1343 706.5 c 128,-1,144
 1367 678 1367 678 1385 645 c 0,145,146
 1395 628 1395 628 1402 609.5 c 128,-1,147
 1409 591 1409 591 1413.5 572 c 128,-1,148
 1418 553 1418 553 1420.5 532.5 c 128,-1,149
 1423 512 1423 512 1423 491 c 0,150,151
 1423 418 1423 418 1398 356 c 0,152,153
 1373 295 1373 295 1330 244 c 0,154,155
 1288 194 1288 194 1231 154 c 0,156,157
 1176 116 1176 116 1104 86 c 0,158,159
 1033 57 1033 57 957 38 c 0,160,161
 907 25 907 25 856 16 c 1,162,-1
 856 -82 l 1,163,-1
 856 -133 l 1,164,-1
 798 -133 l 1,165,-1
 601 -133 l 1,166,-1
 543 -133 l 1,167,-1
 543 -82 l 1,43,-1
EndSplineSet
Validated: 1
EndChar

StartChar: percent
Encoding: 37 37 8
Width: 1863
GlyphClass: 2
Flags: W
LayerCount: 2
Fore
SplineSet
392 1135.5 m 128,-1,1
 382 1116 382 1116 382 1096 c 0,2,3
 382 1090 382 1090 383 1083.5 c 128,-1,4
 384 1077 384 1077 386.5 1070.5 c 128,-1,5
 389 1064 389 1064 392 1057 c 0,6,7
 397 1047 397 1047 403.5 1038 c 128,-1,8
 410 1029 410 1029 419 1020 c 0,9,10
 427 1012 427 1012 436.5 1006 c 128,-1,11
 446 1000 446 1000 458 995 c 0,12,13
 468 991 468 991 478 989 c 128,-1,14
 488 987 488 987 500 987 c 0,15,16
 526 987 526 987 547 995 c 0,17,18
 570 1004 570 1004 584 1019 c 0,19,20
 600 1034 600 1034 609 1054 c 0,21,22
 618 1075 618 1075 618 1096 c 0,23,24
 618 1116 618 1116 610 1136 c 0,25,26
 606 1146 606 1146 599.5 1154 c 128,-1,27
 593 1162 593 1162 585 1169 c 0,28,29
 580 1174 580 1174 574 1178 c 128,-1,30
 568 1182 568 1182 561.5 1185.5 c 128,-1,31
 555 1189 555 1189 548 1192 c 0,32,33
 529 1200 529 1200 504 1200 c 0,34,35
 479 1200 479 1200 458 1192 c 0,36,37
 435 1183 435 1183 419 1169 c 0,38,0
 402 1155 402 1155 392 1135.5 c 128,-1,1
135.5 949.5 m 128,-1,40
 107 1018 107 1018 107 1094 c 0,41,42
 107 1168 107 1168 134.5 1235.5 c 128,-1,43
 162 1303 162 1303 211 1355 c 0,44,45
 261 1408 261 1408 330 1440 c 0,46,47
 366 1456 366 1456 408.5 1464 c 128,-1,48
 451 1472 451 1472 497 1472 c 0,49,50
 590 1472 590 1472 668 1441 c 0,51,52
 745 1411 745 1411 800 1360 c 0,53,54
 855 1309 855 1309 886 1240 c 0,55,56
 916 1172 916 1172 916 1096 c 0,57,58
 916 1022 916 1022 887 954 c 0,59,60
 873 920 873 920 852.5 890 c 128,-1,61
 832 860 832 860 805 833 c 0,62,63
 751 779 751 779 676 748 c 0,64,65
 599 715 599 715 507 715 c 0,66,67
 415 715 415 715 338 746 c 0,68,69
 267 777 267 777 216 829 c 0,70,39
 164 881 164 881 135.5 949.5 c 128,-1,40
1337 421 m 0,71,72
 1329 402 1329 402 1329 382.5 c 128,-1,73
 1329 363 1329 363 1337 344 c 0,74,75
 1340 338 1340 338 1343 331.5 c 128,-1,76
 1346 325 1346 325 1350.5 319.5 c 128,-1,77
 1355 314 1355 314 1360 309 c 0,78,79
 1374 295 1374 295 1393 286 c 0,80,81
 1409 279 1409 279 1430 279 c 0,82,83
 1455 279 1455 279 1473 286 c 0,84,85
 1493 294 1493 294 1507 308 c 0,86,87
 1522 323 1522 323 1530 342 c 0,88,89
 1532 347 1532 347 1533.5 352 c 128,-1,90
 1535 357 1535 357 1536 362 c 128,-1,91
 1537 367 1537 367 1538 372 c 128,-1,92
 1539 377 1539 377 1539 382 c 128,-1,93
 1539 387 1539 387 1538 392 c 128,-1,94
 1537 397 1537 397 1536 402 c 128,-1,95
 1535 407 1535 407 1533.5 412 c 128,-1,96
 1532 417 1532 417 1530 422 c 0,97,98
 1522 441 1522 441 1507 456 c 0,99,100
 1502 461 1502 461 1497 464.5 c 128,-1,101
 1492 468 1492 468 1486 471.5 c 128,-1,102
 1480 475 1480 475 1473 478 c 0,103,104
 1455 485 1455 485 1430 485 c 0,105,106
 1409 485 1409 485 1393 478 c 0,107,108
 1373 469 1373 469 1360 455 c 0,109,110
 1355 450 1355 450 1350.5 444.5 c 128,-1,111
 1346 439 1346 439 1343 433 c 128,-1,112
 1340 427 1340 427 1337 421 c 0,71,72
1059.5 242.5 m 128,-1,114
 1031 310 1031 310 1031 382 c 0,115,116
 1031 453 1031 453 1059 521 c 0,117,118
 1073 555 1073 555 1093 585.5 c 128,-1,119
 1113 616 1113 616 1139 643 c 0,120,121
 1191 697 1191 697 1266 730 c 0,122,123
 1304 747 1304 747 1346 755.5 c 128,-1,124
 1388 764 1388 764 1434 764 c 0,125,126
 1527 764 1527 764 1600 731 c 0,127,128
 1634 715 1634 715 1663 693 c 128,-1,129
 1692 671 1692 671 1716 644 c 0,130,131
 1763 591 1763 591 1789 523 c 0,132,133
 1802 489 1802 489 1808 454 c 128,-1,134
 1814 419 1814 419 1814 383 c 0,135,136
 1814 359 1814 359 1811 335 c 128,-1,137
 1808 311 1808 311 1802.5 288 c 128,-1,138
 1797 265 1797 265 1789 242 c 0,139,140
 1763 174 1763 174 1716 121 c 0,141,142
 1668 67 1668 67 1600 34 c 0,143,144
 1565 17 1565 17 1522 9 c 0,145,146
 1479 0 1479 0 1434 0 c 0,147,148
 1342 0 1342 0 1266 34 c 0,149,150
 1251 41 1251 41 1237 48 c 128,-1,151
 1223 55 1223 55 1210 63.5 c 128,-1,152
 1197 72 1197 72 1184.5 81 c 128,-1,153
 1172 90 1172 90 1161 100.5 c 128,-1,154
 1150 111 1150 111 1139 121 c 0,155,113
 1088 175 1088 175 1059.5 242.5 c 128,-1,114
205 8 m 1,156,157
 165 4 165 4 165 -1 c 1,158,159
 165 3 165 3 165 7 c 128,-1,160
 165 11 165 11 165.5 15 c 128,-1,161
 166 19 166 19 166 23 c 128,-1,162
 166 27 166 27 166.5 31 c 128,-1,163
 167 35 167 35 167 39 c 0,164,165
 169 52 169 52 175 65 c 0,166,167
 179 74 179 74 185 82 c 128,-1,168
 191 90 191 90 198 97 c 2,169,-1
 840 748 l 1,170,-1
 1158 1096 l 2,171,172
 1169 1107 1169 1107 1188 1139 c 0,173,174
 1210 1174 1210 1174 1235 1217 c 0,175,176
 1261 1261 1261 1261 1291 1309 c 0,177,178
 1297 1319 1297 1319 1303 1328 c 128,-1,179
 1309 1337 1309 1337 1315 1346 c 128,-1,180
 1321 1355 1321 1355 1327 1364 c 128,-1,181
 1333 1373 1333 1373 1339 1381.5 c 128,-1,182
 1345 1390 1345 1390 1351 1398 c 0,183,184
 1381 1440 1381 1440 1407 1468 c 0,185,186
 1425 1487 1425 1487 1442.5 1498.5 c 128,-1,187
 1460 1510 1460 1510 1484 1513 c 0,188,189
 1490 1514 1490 1514 1494.5 1514.5 c 128,-1,190
 1499 1515 1499 1515 1506 1515 c 0,191,192
 1558 1513 1558 1513 1594 1481 c 0,193,194
 1636 1445 1636 1445 1636 1387 c 0,195,196
 1636 1347 1636 1347 1622 1304 c 0,197,198
 1609 1264 1609 1264 1588 1221 c 0,199,200
 1568 1179 1568 1179 1540 1138 c 0,201,202
 1526 1118 1526 1118 1512 1099 c 128,-1,203
 1498 1080 1498 1080 1484 1062 c 0,204,205
 1456 1026 1456 1026 1430 997 c 0,206,207
 1405 969 1405 969 1384 949 c 2,208,-1
 819 375 l 1,209,-1
 818 374 l 1,210,-1
 816 373 l 1,211,-1
 391 3 l 2,212,213
 384 -3 384 -3 377 -8 c 128,-1,214
 370 -13 370 -13 361 -17 c 0,215,216
 355 -20 355 -20 349 -22 c 0,217,218
 343 -24 343 -24 337 -25 c 0,219,220
 317 -29 317 -29 299 -29 c 0,221,222
 244 -29 244 -29 205 8 c 1,156,157
EndSplineSet
Validated: 1
EndChar

StartChar: ampersand
Encoding: 38 38 9
Width: 1247
GlyphClass: 2
Flags: W
LayerCount: 2
Fore
SplineSet
345 1144 m 0,0,1
 345 1123 345 1123 361 1092 c 0,2,3
 379 1055 379 1055 406 1023 c 0,4,5
 432 992 432 992 464 971 c 0,6,7
 489 954 489 954 508 954 c 0,8,9
 512 954 512 954 516.5 954.5 c 128,-1,10
 521 955 521 955 526.5 957 c 128,-1,11
 532 959 532 959 538 962 c 0,12,13
 545 965 545 965 552.5 969 c 128,-1,14
 560 973 560 973 567.5 977.5 c 128,-1,15
 575 982 575 982 583 988 c 0,16,17
 606 1005 606 1005 627 1027 c 0,18,19
 649 1050 649 1050 665 1074 c 0,20,21
 681 1097 681 1097 691 1121 c 0,22,23
 699 1139 699 1139 699 1152 c 0,24,25
 699 1161 699 1161 696 1171 c 128,-1,26
 693 1181 693 1181 686 1192 c 0,27,28
 680 1201 680 1201 674 1209 c 128,-1,29
 668 1217 668 1217 660.5 1224.5 c 128,-1,30
 653 1232 653 1232 644 1239 c 0,31,32
 619 1260 619 1260 589 1273 c 0,33,34
 562 1285 562 1285 540 1285 c 0,35,36
 534 1285 534 1285 528 1284.5 c 128,-1,37
 522 1284 522 1284 516 1283 c 128,-1,38
 510 1282 510 1282 503.5 1280.5 c 128,-1,39
 497 1279 497 1279 490 1277.5 c 128,-1,40
 483 1276 483 1276 475 1273 c 0,41,42
 463 1269 463 1269 451.5 1264 c 128,-1,43
 440 1259 440 1259 429 1253 c 128,-1,44
 418 1247 418 1247 408 1240 c 0,45,46
 379 1220 379 1220 360 1192 c 0,47,48
 345 1170 345 1170 345 1144 c 0,0,1
249 392 m 0,49,50
 249 369 249 369 253.5 351 c 128,-1,51
 258 333 258 333 268 317 c 0,52,53
 278 300 278 300 291 286.5 c 128,-1,54
 304 273 304 273 320 262 c 0,55,56
 337 251 337 251 356 242.5 c 128,-1,57
 375 234 375 234 397 228 c 0,58,59
 443 216 443 216 488 216 c 0,60,61
 502 216 502 216 518 223 c 0,62,63
 540 232 540 232 561 246 c 0,64,65
 584 261 584 261 603 278 c 0,66,67
 610 284 610 284 616.5 289 c 128,-1,68
 623 294 623 294 628.5 299.5 c 128,-1,69
 634 305 634 305 639 309 c 0,70,71
 645 314 645 314 652 321 c 128,-1,72
 659 328 659 328 667 336 c 0,73,74
 684 352 684 352 702 369 c 0,75,76
 703 370 703 370 704.5 371.5 c 128,-1,77
 706 373 706 373 707 374 c 128,-1,78
 708 375 708 375 709 376 c 128,-1,79
 710 377 710 377 710 378 c 2,80,-1
 530 639 l 1,81,-1
 527 644 l 1,82,-1
 525 647 l 1,83,-1
 522 652 l 2,84,85
 520 654 520 654 518 657 c 128,-1,86
 516 660 516 660 514 662.5 c 128,-1,87
 512 665 512 665 509 668 c 0,88,89
 506 672 506 672 502 675 c 0,90,91
 487 673 487 673 468 664 c 0,92,93
 439 650 439 650 408 626 c 0,94,95
 377 602 377 602 348 570 c 0,96,97
 319 538 319 538 295 503 c 0,98,99
 284 487 284 487 275.5 471 c 128,-1,100
 267 455 267 455 260 439 c 0,101,102
 249 412 249 412 249 392 c 0,49,50
861 158 m 1,103,104
 857 154 857 154 853 150.5 c 128,-1,105
 849 147 849 147 844.5 143 c 128,-1,106
 840 139 840 139 836 135.5 c 128,-1,107
 832 132 832 132 828 128 c 128,-1,108
 824 124 824 124 820 120 c 0,109,110
 797 99 797 99 772.5 79.5 c 128,-1,111
 748 60 748 60 723 43 c 0,112,113
 670 7 670 7 612 -16 c 0,114,115
 550 -41 550 -41 482 -41 c 0,116,117
 390 -41 390 -41 303 -13 c 0,118,119
 214 15 214 15 145 69 c 0,120,121
 75 124 75 124 31 204 c 0,122,123
 -13 286 -13 286 -13 389 c 0,124,125
 -13 479 -13 479 23 546 c 0,126,127
 56 608 56 608 105 661 c 0,128,129
 151 710 151 710 204 755 c 0,130,131
 234 781 234 781 262 810 c 1,132,133
 252 820 252 820 243 829.5 c 128,-1,134
 234 839 234 839 224 848 c 0,135,136
 186 887 186 887 157 931 c 0,137,138
 142 953 142 953 129.5 977.5 c 128,-1,139
 117 1002 117 1002 108 1028 c 0,140,141
 102 1046 102 1046 97.5 1065 c 128,-1,142
 93 1084 93 1084 91 1103.5 c 128,-1,143
 89 1123 89 1123 89 1144 c 0,144,145
 89 1188 89 1188 99.5 1229.5 c 128,-1,146
 110 1271 110 1271 130 1308 c 0,147,148
 140 1326 140 1326 151.5 1343.5 c 128,-1,149
 163 1361 163 1361 176.5 1376.5 c 128,-1,150
 190 1392 190 1392 204.5 1406.5 c 128,-1,151
 219 1421 219 1421 235 1434 c 0,152,153
 267 1460 267 1460 303 1479.5 c 128,-1,154
 339 1499 339 1499 379 1513.5 c 128,-1,155
 419 1528 419 1528 459 1535 c 128,-1,156
 499 1542 499 1542 538 1542 c 0,157,158
 563 1542 563 1542 589 1538.5 c 128,-1,159
 615 1535 615 1535 640 1528 c 128,-1,160
 665 1521 665 1521 690 1511 c 0,161,162
 764 1480 764 1480 822 1428 c 0,163,164
 881 1375 881 1375 917 1305 c 0,165,166
 936 1269 936 1269 945.5 1230.5 c 128,-1,167
 955 1192 955 1192 955 1152 c 0,168,169
 955 1085 955 1085 931 1027 c 0,170,171
 926 1016 926 1016 921 1005 c 128,-1,172
 916 994 916 994 910.5 983.5 c 128,-1,173
 905 973 905 973 898.5 963 c 128,-1,174
 892 953 892 953 885.5 943 c 128,-1,175
 879 933 879 933 871 923 c 0,176,177
 835 877 835 877 791 838 c 0,178,179
 778 826 778 826 765 815 c 128,-1,180
 752 804 752 804 738 793 c 1,181,-1
 884 589 l 1,182,-1
 997 746 l 2,183,184
 1018 774 1018 774 1047 785 c 0,185,186
 1059 789 1059 789 1072 791.5 c 128,-1,187
 1085 794 1085 794 1098 794 c 0,188,189
 1150 794 1150 794 1187 763 c 0,190,191
 1229 729 1229 729 1229 670 c 0,192,193
 1229 645 1229 645 1220 620 c 0,194,195
 1212 597 1212 597 1196 578 c 2,196,-1
 1038 360 l 1,197,-1
 1239 88 l 2,198,199
 1254 67 1254 67 1258 44 c 0,200,201
 1261 28 1261 28 1261 12 c 0,202,203
 1261 -12 1261 -12 1251.5 -35 c 128,-1,204
 1242 -58 1242 -58 1225 -75 c 128,-1,205
 1208 -92 1208 -92 1185 -101.5 c 128,-1,206
 1162 -111 1162 -111 1138 -111 c 0,207,208
 1091 -111 1091 -111 1057 -86 c 0,209,210
 1051 -81 1051 -81 1044.5 -75.5 c 128,-1,211
 1038 -70 1038 -70 1032 -64 c 128,-1,212
 1026 -58 1026 -58 1020.5 -52 c 128,-1,213
 1015 -46 1015 -46 1009 -39 c 2,214,-1
 1008 -38 l 1,215,-1
 1007 -37 l 1,216,-1
 861 158 l 1,103,104
EndSplineSet
Validated: 1
EndChar

StartChar: quotesingle
Encoding: 39 39 10
Width: 720
GlyphClass: 2
Flags: W
LayerCount: 2
Fore
SplineSet
38 1100 m 0,0,1
 80 1148 80 1148 107 1194 c 0,2,3
 135 1240 135 1240 152 1287 c 0,4,5
 170 1334 170 1334 180 1384 c 0,6,7
 191 1436 191 1436 199 1493 c 0,8,9
 208 1547 208 1547 252 1578 c 0,10,11
 291 1604 291 1604 336 1604 c 0,12,13
 382 1604 382 1604 416 1584 c 0,14,15
 435 1573 435 1573 448.5 1555 c 128,-1,16
 462 1537 462 1537 470 1516 c 2,17,-1
 474 1507 l 1,18,-1
 474 1497 l 1,19,-1
 474 1438 l 2,20,21
 474 1419 474 1419 472 1397 c 128,-1,22
 470 1375 470 1375 466 1350 c 0,23,24
 458 1300 458 1300 442 1246 c 0,25,26
 434 1219 434 1219 424 1192 c 128,-1,27
 414 1165 414 1165 403 1138 c 0,28,29
 379 1083 379 1083 347 1038 c 0,30,31
 336 1022 336 1022 324 1008.5 c 128,-1,32
 312 995 312 995 299 983 c 128,-1,33
 286 971 286 971 272 960 c 0,34,35
 248 943 248 943 221 934.5 c 128,-1,36
 194 926 194 926 166 926 c 0,37,38
 158 926 158 926 150 927 c 128,-1,39
 142 928 142 928 134 930 c 128,-1,40
 126 932 126 932 118.5 935 c 128,-1,41
 111 938 111 938 103 941 c 0,42,43
 76 954 76 954 56 974 c 0,44,45
 33 996 33 996 24 1022 c 0,46,47
 17 1040 17 1040 20.5 1062.5 c 128,-1,48
 24 1085 24 1085 38 1100 c 0,0,1
EndSplineSet
Validated: 1
EndChar

StartChar: parenleft
Encoding: 40 40 11
Width: 720
GlyphClass: 2
Flags: W
LayerCount: 2
Fore
SplineSet
572 -378 m 0,0,1
 471 -285 471 -285 387 -179 c 0,2,3
 302 -71 302 -71 242 48 c 0,4,5
 181 168 181 168 149 299 c 0,6,7
 115 431 115 431 115 573 c 0,8,9
 115 627 115 627 128 701 c 0,10,11
 130 711 130 711 132 721.5 c 128,-1,12
 134 732 134 732 136.5 742.5 c 128,-1,13
 139 753 139 753 141.5 764 c 128,-1,14
 144 775 144 775 146.5 786.5 c 128,-1,15
 149 798 149 798 152 809.5 c 128,-1,16
 155 821 155 821 158 832.5 c 128,-1,17
 161 844 161 844 164 856 c 0,18,19
 187 939 187 939 220 1027 c 0,20,21
 252 1116 252 1116 292.5 1201 c 128,-1,22
 333 1286 333 1286 380 1363 c 0,23,24
 428 1442 428 1442 481 1502 c 0,25,26
 536 1564 536 1564 596 1600 c 0,27,28
 662 1641 662 1641 731 1641 c 0,29,30
 795 1641 795 1641 836 1604 c 0,31,32
 857 1585 857 1585 866.5 1558 c 128,-1,33
 876 1531 876 1531 878 1500 c 0,34,35
 879 1492 879 1492 879 1485 c 128,-1,36
 879 1478 879 1478 879 1470 c 0,37,38
 879 1455 879 1455 874 1440.5 c 128,-1,39
 869 1426 869 1426 860 1414 c 2,40,-1
 858 1412 l 1,41,-1
 856 1410 l 2,42,43
 769 1323 769 1323 688 1227 c 0,44,45
 662 1196 662 1196 637.5 1163 c 128,-1,46
 613 1130 613 1130 590.5 1097 c 128,-1,47
 568 1064 568 1064 548 1029 c 0,48,49
 488 927 488 927 452 814 c 0,50,51
 434 759 434 759 425 700.5 c 128,-1,52
 416 642 416 642 416 580 c 0,53,54
 416 487 416 487 443 400 c 0,55,56
 471 310 471 310 514 231 c 0,57,58
 535 190 535 190 558.5 152.5 c 128,-1,59
 582 115 582 115 607 80 c 0,60,61
 659 7 659 7 703 -53 c 0,62,63
 748 -115 748 -115 778 -162 c 0,64,65
 816 -221 816 -221 816 -266 c 0,66,67
 816 -296 816 -296 806 -323 c 128,-1,68
 796 -350 796 -350 776 -370 c 0,69,70
 762 -384 762 -384 744.5 -394 c 128,-1,71
 727 -404 727 -404 708 -408.5 c 128,-1,72
 689 -413 689 -413 669 -413 c 0,73,74
 645 -413 645 -413 625 -408 c 0,75,76
 597 -401 597 -401 572 -378 c 0,0,1
EndSplineSet
Validated: 1
EndChar

StartChar: parenright
Encoding: 41 41 12
Width: 871
GlyphClass: 2
Flags: W
LayerCount: 2
Fore
SplineSet
333 -376 m 0,0,1
 308 -399 308 -399 280 -406 c 0,2,3
 269 -409 269 -409 258.5 -410 c 128,-1,4
 248 -411 248 -411 236 -411 c 0,5,6
 170 -411 170 -411 129 -368 c 0,7,8
 89 -326 89 -326 89 -264 c 0,9,10
 89 -219 89 -219 127 -160 c 0,11,12
 157 -113 157 -113 202 -51 c 0,13,14
 246 9 246 9 298 82 c 0,15,16
 348 152 348 152 391 233 c 0,17,18
 433 313 433 313 462 402 c 0,19,20
 489 489 489 489 489 582 c 0,21,22
 489 644 489 644 480 702 c 128,-1,23
 471 760 471 760 453 816 c 0,24,25
 435 873 435 873 411 926.5 c 128,-1,26
 387 980 387 980 357 1031 c 0,27,28
 296 1134 296 1134 217 1229 c 0,29,30
 136 1325 136 1325 49 1412 c 2,31,-1
 46 1415 l 1,32,-1
 43 1419 l 2,33,34
 27 1442 27 1442 27 1472 c 2,35,-1
 27 1500 l 2,36,37
 30 1569 30 1569 69 1606 c 0,38,39
 110 1643 110 1643 174 1643 c 0,40,41
 192 1643 192 1643 209.5 1640.5 c 128,-1,42
 227 1638 227 1638 243.5 1632.5 c 128,-1,43
 260 1627 260 1627 276.5 1619.5 c 128,-1,44
 293 1612 293 1612 309 1602 c 0,45,46
 339 1583 339 1583 368 1558.5 c 128,-1,47
 397 1534 397 1534 424 1504 c 0,48,49
 451 1474 451 1474 476 1439.5 c 128,-1,50
 501 1405 501 1405 525 1365 c 0,51,52
 548 1326 548 1326 570 1286 c 128,-1,53
 592 1246 592 1246 613 1203 c 0,54,55
 654 1118 654 1118 685 1029 c 0,56,57
 717 941 717 941 741 858 c 0,58,59
 753 816 753 816 761.5 777.5 c 128,-1,60
 770 739 770 739 777 703 c 0,61,62
 781 679 781 679 784 656.5 c 128,-1,63
 787 634 787 634 788.5 613.5 c 128,-1,64
 790 593 790 593 790 575 c 0,65,66
 790 434 790 434 756 301 c 0,67,68
 723 170 723 170 663 50 c 0,69,70
 603 -70 603 -70 518 -177 c 0,71,72
 434 -283 434 -283 333 -376 c 0,0,1
EndSplineSet
Validated: 1
EndChar

StartChar: asterisk
Encoding: 42 42 13
Width: 894
GlyphClass: 2
Flags: W
LayerCount: 2
Fore
SplineSet
277 872 m 2,0,1
 276 871 276 871 272.5 868 c 128,-1,2
 269 865 269 865 267.5 863.5 c 128,-1,3
 266 862 266 862 262.5 859.5 c 128,-1,4
 259 857 259 857 256.5 856 c 128,-1,5
 254 855 254 855 250 853 c 128,-1,6
 246 851 246 851 242 850 c 128,-1,7
 238 849 238 849 233 848.5 c 128,-1,8
 228 848 228 848 223 848 c 2,9,-1
 199 848 l 2,10,11
 148 848 148 848 112 878 c 0,12,13
 72 912 72 912 72 969 c 0,14,15
 72 995 72 995 80 1019 c 0,16,17
 86 1035 86 1035 96.5 1048 c 128,-1,18
 107 1061 107 1061 121 1071 c 2,19,-1
 124 1073 l 1,20,-1
 126 1074 l 1,21,-1
 280 1156 l 1,22,-1
 134 1238 l 1,23,-1
 132 1238 l 1,24,-1
 131 1240 l 2,25,26
 103 1259 103 1259 87.5 1288 c 128,-1,27
 72 1317 72 1317 72 1351 c 0,28,29
 72 1401 72 1401 107.5 1436.5 c 128,-1,30
 143 1472 143 1472 193 1472 c 0,31,32
 208 1472 208 1472 223 1470 c 0,33,34
 252 1466 252 1466 273 1446 c 2,35,-1
 355 1367 l 1,36,-1
 347 1444 l 2,37,38
 343 1478 343 1478 358 1504 c 0,39,40
 362 1511 362 1511 367.5 1517 c 128,-1,41
 373 1523 373 1523 379 1528.5 c 128,-1,42
 385 1534 385 1534 391 1539 c 0,43,44
 397 1543 397 1543 403.5 1546.5 c 128,-1,45
 410 1550 410 1550 416.5 1553 c 128,-1,46
 423 1556 423 1556 430 1558 c 0,47,48
 452 1565 452 1565 472 1565 c 0,49,50
 478 1565 478 1565 484.5 1564 c 128,-1,51
 491 1563 491 1563 497 1561.5 c 128,-1,52
 503 1560 503 1560 509 1558 c 0,53,54
 533 1548 533 1548 550 1525 c 0,55,56
 570 1499 570 1499 582 1461 c 0,57,58
 584 1455 584 1455 585.5 1449 c 128,-1,59
 587 1443 587 1443 588 1436.5 c 128,-1,60
 589 1430 589 1430 590 1423.5 c 128,-1,61
 591 1417 591 1417 592 1410.5 c 128,-1,62
 593 1404 593 1404 593.5 1397.5 c 128,-1,63
 594 1391 594 1391 594 1384 c 0,64,65
 594 1383 594 1383 594 1381 c 2,66,-1
 595 1382 l 1,67,-1
 596 1383 l 1,68,-1
 597 1384 l 1,69,-1
 598 1385 l 1,70,-1
 599 1386 l 1,71,-1
 600 1387 l 1,72,-1
 601 1388 l 1,73,-1
 602 1389 l 1,74,-1
 604 1391 l 2,75,76
 622 1408 622 1408 638 1423 c 0,77,78
 657 1441 657 1441 669 1449 c 0,79,80
 679 1456 679 1456 685 1459 c 0,81,82
 694 1464 694 1464 702 1467 c 0,83,84
 714 1472 714 1472 728 1472 c 2,85,-1
 741 1472 l 2,86,87
 798 1472 798 1472 833 1435 c 0,88,89
 866 1399 866 1399 866 1346 c 0,90,91
 866 1318 866 1318 859 1296 c 0,92,93
 856 1285 856 1285 849.5 1275.5 c 128,-1,94
 843 1266 843 1266 836 1259 c 128,-1,95
 829 1252 829 1252 821 1245 c 2,96,-1
 819 1244 l 1,97,-1
 817 1243 l 1,98,-1
 675 1152 l 1,99,-1
 803 1083 l 2,100,101
 838 1064 838 1064 853 1032 c 0,102,103
 857 1023 857 1023 860 1012.5 c 128,-1,104
 863 1002 863 1002 864.5 992 c 128,-1,105
 866 982 866 982 866 972 c 0,106,107
 866 918 866 918 831.5 883 c 128,-1,108
 797 848 797 848 743 848 c 0,109,110
 713 848 713 848 681 868 c 0,111,112
 657 883 657 883 633 905 c 0,113,114
 611 925 611 925 589 949 c 2,115,-1
 587 951 l 1,116,-1
 587 823 l 1,117,118
 599 797 599 797 586.5 774 c 128,-1,119
 574 751 574 751 557 742 c 0,120,121
 548 737 548 737 539 734 c 128,-1,122
 530 731 530 731 520 728 c 0,123,124
 501 724 501 724 487 724 c 0,125,126
 469 724 469 724 448 730 c 0,127,128
 428 736 428 736 411 746 c 0,129,130
 395 756 395 756 384.5 776.5 c 128,-1,131
 374 797 374 797 379 819 c 0,132,133
 380 825 380 825 381 834 c 2,134,-1
 381 966 l 1,135,-1
 277 872 l 2,0,1
EndSplineSet
Validated: 1
EndChar

StartChar: plus
Encoding: 43 43 14
Width: 1650
GlyphClass: 2
Flags: W
LayerCount: 2
Fore
SplineSet
610 159 m 2,0,1
 611 166 611 166 613.5 178.5 c 128,-1,2
 616 191 616 191 619 208 c 0,3,4
 625 244 625 244 632 290 c 0,5,6
 634 305 634 305 637 321 c 128,-1,7
 640 337 640 337 642.5 353.5 c 128,-1,8
 645 370 645 370 648 387 c 0,9,10
 656 438 656 438 663 484 c 0,11,12
 674 557 674 557 676 568 c 0,13,14
 683 600 683 600 684 610 c 0,15,16
 684 616 684 616 685 627 c 2,17,-1
 686 629 l 1,18,19
 680 629 680 629 674 629 c 128,-1,20
 668 629 668 629 662 629 c 128,-1,21
 656 629 656 629 650 629 c 128,-1,22
 644 629 644 629 638 629 c 128,-1,23
 632 629 632 629 625.5 629 c 128,-1,24
 619 629 619 629 612.5 629 c 128,-1,25
 606 629 606 629 598 630 c 0,26,27
 574 630 574 630 548 630 c 0,28,29
 524 630 524 630 496 630 c 0,30,31
 485 630 485 630 474 630 c 128,-1,32
 463 630 463 630 452.5 630 c 128,-1,33
 442 630 442 630 431.5 630 c 128,-1,34
 421 630 421 630 411 630 c 128,-1,35
 401 630 401 630 391 631 c 0,36,37
 366 631 366 631 344 631 c 0,38,39
 324 631 324 631 304 631 c 0,40,41
 293 631 293 631 284 631 c 128,-1,42
 275 631 275 631 266.5 632 c 128,-1,43
 258 633 258 633 250.5 634 c 128,-1,44
 243 635 243 635 236 636 c 0,45,46
 223 639 223 639 184 646 c 0,47,48
 177 647 177 647 170 648 c 128,-1,49
 163 649 163 649 156.5 650.5 c 128,-1,50
 150 652 150 652 143 654 c 128,-1,51
 136 656 136 656 130 658.5 c 128,-1,52
 124 661 124 661 117 664 c 0,53,54
 100 671 100 671 85 682 c 128,-1,55
 70 693 70 693 58 707 c 0,56,57
 30 740 30 740 30 793 c 0,58,59
 30 834 30 834 46 863 c 0,60,61
 54 877 54 877 66 889 c 128,-1,62
 78 901 78 901 92 909 c 0,63,64
 105 916 105 916 119.5 920.5 c 128,-1,65
 134 925 134 925 149 928 c 0,66,67
 154 929 154 929 164.5 930.5 c 128,-1,68
 175 932 175 932 180 932.5 c 128,-1,69
 185 933 185 933 192.5 933 c 128,-1,70
 200 933 200 933 207 932 c 128,-1,71
 214 931 214 931 223 928 c 2,72,-1
 255 918 l 1,73,-1
 742 918 l 1,74,-1
 742 1410 l 2,75,76
 742 1468 742 1468 766 1508 c 0,77,78
 781 1534 781 1534 807.5 1547.5 c 128,-1,79
 834 1561 834 1561 864 1561 c 0,80,81
 875 1561 875 1561 885.5 1560 c 128,-1,82
 896 1559 896 1559 906 1557.5 c 128,-1,83
 916 1556 916 1556 926 1553 c 128,-1,84
 936 1550 936 1550 945 1546 c 0,85,86
 981 1530 981 1530 1005 1499 c 0,87,88
 1016 1485 1016 1485 1024 1467.5 c 128,-1,89
 1032 1450 1032 1450 1036 1432 c 0,90,91
 1045 1398 1045 1398 1045 1371 c 0,92,93
 1045 1363 1045 1363 1044 1356 c 0,94,95
 1040 1296 1040 1296 1036.5 1241.5 c 128,-1,96
 1033 1187 1033 1187 1030 1139 c 0,97,98
 1029 1115 1029 1115 1028.5 1089 c 128,-1,99
 1028 1063 1028 1063 1027.5 1036 c 128,-1,100
 1027 1009 1027 1009 1026.5 980 c 128,-1,101
 1026 951 1026 951 1026 921 c 2,102,-1
 1026 894 l 1,103,-1
 1483 872 l 2,104,105
 1509 872 1509 872 1529 868 c 0,106,107
 1541 866 1541 866 1551.5 862 c 128,-1,108
 1562 858 1562 858 1571 853 c 0,109,110
 1582 846 1582 846 1591.5 835.5 c 128,-1,111
 1601 825 1601 825 1606 813 c 0,112,113
 1616 792 1616 792 1616 762 c 0,114,115
 1616 695 1616 695 1586 656 c 0,116,117
 1558 620 1558 620 1502 595 c 2,118,-1
 1493 591 l 1,119,-1
 1482 591 l 1,120,-1
 1336 591 l 1,121,122
 1244 595 1244 595 1155 597 c 0,123,124
 1135 597 1135 597 1114.5 597.5 c 128,-1,125
 1094 598 1094 598 1073 598.5 c 128,-1,126
 1052 599 1052 599 1031.5 599 c 128,-1,127
 1011 599 1011 599 991 599 c 1,128,129
 989 588 989 588 987 573 c 0,130,131
 982 542 982 542 976 501 c 0,132,133
 970 461 970 461 965 418 c 0,134,135
 959 373 959 373 952 332 c 0,136,137
 950 319 950 319 948.5 306.5 c 128,-1,138
 947 294 947 294 945 283 c 128,-1,139
 943 272 943 272 942 261 c 0,140,141
 937 229 937 229 935 215 c 0,142,143
 933 205 933 205 932 195.5 c 128,-1,144
 931 186 931 186 930 175.5 c 128,-1,145
 929 165 929 165 929 153 c 0,146,147
 928 109 928 109 920 71 c 0,148,149
 910 25 910 25 883 -9 c 0,150,151
 848 -51 848 -51 781 -51 c 0,152,153
 706 -51 706 -51 657.5 -2.5 c 128,-1,154
 609 46 609 46 609 120 c 2,155,-1
 609 149 l 1,156,-1
 609 154 l 1,157,-1
 610 159 l 2,0,1
EndSplineSet
Validated: 1
EndChar

StartChar: comma
Encoding: 44 44 15
Width: 720
GlyphClass: 2
Flags: W
LayerCount: 2
Fore
SplineSet
38 -151 m 0,0,1
 80 -103 80 -103 107 -57 c 0,2,3
 135 -11 135 -11 152 36 c 0,4,5
 158 52 158 52 163 68 c 128,-1,6
 168 84 168 84 172.5 100 c 128,-1,7
 177 116 177 116 180 133 c 0,8,9
 191 185 191 185 199 241 c 0,10,11
 207 295 207 295 251 326 c 0,12,13
 264 335 264 335 277.5 341 c 128,-1,14
 291 347 291 347 306 350 c 128,-1,15
 321 353 321 353 336 353 c 0,16,17
 382 353 382 353 416 333 c 0,18,19
 421 330 421 330 425.5 326.5 c 128,-1,20
 430 323 430 323 434 319.5 c 128,-1,21
 438 316 438 316 441.5 311.5 c 128,-1,22
 445 307 445 307 448.5 303 c 128,-1,23
 452 299 452 299 455 294.5 c 128,-1,24
 458 290 458 290 461 285 c 128,-1,25
 464 280 464 280 466 275 c 128,-1,26
 468 270 468 270 470 265 c 2,27,-1
 474 256 l 1,28,-1
 474 246 l 1,29,-1
 474 187 l 2,30,31
 474 151 474 151 466 100 c 0,32,33
 458 50 458 50 442 -5 c 0,34,35
 440 -11 440 -11 438 -17 c 128,-1,36
 436 -23 436 -23 434.5 -29 c 128,-1,37
 433 -35 433 -35 430.5 -41 c 128,-1,38
 428 -47 428 -47 426 -53 c 128,-1,39
 424 -59 424 -59 422 -65 c 128,-1,40
 420 -71 420 -71 417.5 -77 c 128,-1,41
 415 -83 415 -83 412.5 -89 c 128,-1,42
 410 -95 410 -95 407.5 -101 c 128,-1,43
 405 -107 405 -107 403 -113 c 0,44,45
 379 -168 379 -168 347 -213 c 0,46,47
 314 -261 314 -261 272 -291 c 0,48,49
 248 -308 248 -308 221 -316.5 c 128,-1,50
 194 -325 194 -325 166 -325 c 0,51,52
 150 -325 150 -325 134 -321 c 128,-1,53
 118 -317 118 -317 103 -310 c 0,54,55
 76 -297 76 -297 56 -277 c 0,56,57
 33 -255 33 -255 24 -229 c 0,58,59
 17 -211 17 -211 20.5 -188.5 c 128,-1,60
 24 -166 24 -166 38 -151 c 0,0,1
EndSplineSet
Validated: 1
EndChar

StartChar: hyphen
Encoding: 45 45 16
AltUni2: 0000ad.ffffffff.0
Width: 720
GlyphClass: 2
Flags: W
LayerCount: 2
Fore
SplineSet
792 408 m 1,0,-1
 136 408 l 1,1,-1
 74 408 l 1,2,-1
 12 408 l 1,3,-1
 -50 408 l 1,4,-1
 -38 469 l 1,5,-1
 -26 530 l 1,6,-1
 -14 591 l 1,7,-1
 22 772 l 1,8,-1
 30 813 l 1,9,-1
 38 854 l 1,10,-1
 46 895 l 1,11,-1
 88 895 l 1,12,-1
 130 895 l 1,13,-1
 172 895 l 1,14,-1
 828 895 l 1,15,-1
 890 895 l 1,16,-1
 952 895 l 1,17,-1
 1014 895 l 1,18,-1
 1002 834 l 1,19,-1
 990 773 l 1,20,-1
 978 712 l 1,21,-1
 942 531 l 1,22,-1
 934 490 l 1,23,-1
 926 449 l 1,24,-1
 918 408 l 1,25,-1
 876 408 l 1,26,-1
 834 408 l 1,27,-1
 792 408 l 1,0,-1
EndSplineSet
Validated: 1
EndChar

StartChar: period
Encoding: 46 46 17
Width: 720
GlyphClass: 2
Flags: W
LayerCount: 2
Fore
SplineSet
55 151 m 128,-1,1
 55 191 55 191 71 228 c 0,2,3
 86 264 86 264 112 291 c 0,4,5
 139 318 139 318 175.5 333.5 c 128,-1,6
 212 349 212 349 252 349 c 0,7,8
 272 349 272 349 291.5 345 c 128,-1,9
 311 341 311 341 329 333 c 0,10,11
 365 318 365 318 392 291 c 128,-1,12
 419 264 419 264 434 228 c 0,13,14
 450 191 450 191 450 151 c 0,15,16
 450 131 450 131 446 111.5 c 128,-1,17
 442 92 442 92 434 74 c 0,18,19
 418 38 418 38 392 11 c 0,20,21
 365 -15 365 -15 329 -30 c 0,22,23
 311 -38 311 -38 291.5 -42 c 128,-1,24
 272 -46 272 -46 252 -46 c 0,25,26
 212 -46 212 -46 175 -30 c 0,27,28
 139 -15 139 -15 112.5 11.5 c 128,-1,29
 86 38 86 38 71 74 c 0,30,0
 55 111 55 111 55 151 c 128,-1,1
EndSplineSet
Validated: 1
EndChar

StartChar: slash
Encoding: 47 47 18
Width: 944
GlyphClass: 2
Flags: W
LayerCount: 2
Fore
SplineSet
68 0 m 0,0,1
 68 28 68 28 75 58 c 0,2,3
 81 87 81 87 91 114 c 0,4,5
 101 140 101 140 112 164 c 0,6,7
 122 187 122 187 133 208 c 2,8,-1
 444 916 l 2,9,10
 470 970 470 970 498 1043 c 0,11,12
 502 1053 502 1053 506 1063.5 c 128,-1,13
 510 1074 510 1074 514 1085 c 128,-1,14
 518 1096 518 1096 521.5 1106.5 c 128,-1,15
 525 1117 525 1117 529 1128 c 128,-1,16
 533 1139 533 1139 537 1149.5 c 128,-1,17
 541 1160 541 1160 544.5 1171 c 128,-1,18
 548 1182 548 1182 552 1193 c 0,19,20
 565 1232 565 1232 576.5 1269 c 128,-1,21
 588 1306 588 1306 598 1342 c 0,22,23
 619 1414 619 1414 633 1465 c 2,24,-1
 633 1466 l 1,25,-1
 634 1468 l 2,26,27
 649 1511 649 1511 684 1536.5 c 128,-1,28
 719 1562 719 1562 765 1562 c 0,29,30
 794 1562 794 1562 820 1553 c 0,31,32
 847 1543 847 1543 869 1525 c 0,33,34
 880 1516 880 1516 888.5 1506 c 128,-1,35
 897 1496 897 1496 904 1484 c 0,36,37
 909 1475 909 1475 912.5 1464 c 128,-1,38
 916 1453 916 1453 917.5 1443 c 128,-1,39
 919 1433 919 1433 919 1422 c 0,40,41
 919 1394 919 1394 916 1364.5 c 128,-1,42
 913 1335 913 1335 907 1303 c 0,43,44
 901 1272 901 1272 892.5 1240 c 128,-1,45
 884 1208 884 1208 874 1175 c 0,46,47
 864 1142 864 1142 852.5 1109 c 128,-1,48
 841 1076 841 1076 829 1043 c 0,49,50
 816 1011 816 1011 803 979.5 c 128,-1,51
 790 948 790 948 776 917 c 0,52,53
 749 856 749 856 723 801 c 0,54,55
 710 775 710 775 698 751 c 128,-1,56
 686 727 686 727 675 707 c 2,57,-1
 398 74 l 1,58,-1
 397 72 l 1,59,-1
 396 70 l 2,60,61
 385 49 385 49 377 22 c 0,62,63
 372 4 372 4 365.5 -13.5 c 128,-1,64
 359 -31 359 -31 352 -47 c 0,65,66
 334 -85 334 -85 304 -111 c 0,67,68
 295 -119 295 -119 284 -125.5 c 128,-1,69
 273 -132 273 -132 261 -135.5 c 128,-1,70
 249 -139 249 -139 237 -141 c 128,-1,71
 225 -143 225 -143 212 -143 c 0,72,73
 151 -143 151 -143 110 -102 c 0,74,75
 68 -61 68 -61 68 0 c 0,0,1
EndSplineSet
Validated: 1
EndChar

StartChar: zero
Encoding: 48 48 19
Width: 1570
GlyphClass: 2
Flags: W
LayerCount: 2
Fore
SplineSet
403 881 m 0,0,1
 392 810 392 810 392 760 c 0,2,3
 392 684 392 684 393 614 c 0,4,5
 393 592 393 592 395 570.5 c 128,-1,6
 397 549 397 549 399.5 529 c 128,-1,7
 402 509 402 509 407 490 c 0,8,9
 413 462 413 462 421.5 436 c 128,-1,10
 430 410 430 410 441 387 c 0,11,12
 461 346 461 346 498 316 c 0,13,14
 534 287 534 287 590 271 c 0,15,16
 648 254 648 254 737 254 c 0,17,18
 805 254 805 254 860 272 c 0,19,20
 916 291 916 291 959 324 c 0,21,22
 1004 358 1004 358 1038 402 c 0,23,24
 1055 425 1055 425 1069.5 450 c 128,-1,25
 1084 475 1084 475 1096 500 c 0,26,27
 1108 526 1108 526 1116 553 c 128,-1,28
 1124 580 1124 580 1129 607 c 0,29,30
 1142 666 1142 666 1142 697 c 0,31,32
 1142 701 1142 701 1142 703.5 c 128,-1,33
 1142 706 1142 706 1142 708 c 0,34,35
 1140 722 1140 722 1138.5 740.5 c 128,-1,36
 1137 759 1137 759 1136 780.5 c 128,-1,37
 1135 802 1135 802 1135 830 c 0,38,39
 1135 888 1135 888 1117 947 c 0,40,41
 1111 968 1111 968 1103.5 988 c 128,-1,42
 1096 1008 1096 1008 1088 1028 c 128,-1,43
 1080 1048 1080 1048 1070 1067 c 0,44,45
 1044 1122 1044 1122 1006 1164 c 0,46,47
 969 1204 969 1204 918 1228 c 0,48,49
 871 1250 871 1250 804 1250 c 0,50,51
 731 1250 731 1250 673 1231 c 0,52,53
 653 1225 653 1225 635.5 1217 c 128,-1,54
 618 1209 618 1209 601.5 1199.5 c 128,-1,55
 585 1190 585 1190 570 1179 c 0,56,57
 524 1145 524 1145 491 1099 c 0,58,59
 457 1051 457 1051 435 996 c 0,60,61
 423 964 423 964 415 936 c 128,-1,62
 407 908 407 908 403 881 c 0,0,1
119 568 m 0,63,64
 115 663 115 663 115 766 c 0,65,66
 115 799 115 799 119 843.5 c 128,-1,67
 123 888 123 888 131 946 c 0,68,69
 143 1025 143 1025 183 1121 c 0,70,71
 200 1163 200 1163 221.5 1202.5 c 128,-1,72
 243 1242 243 1242 269 1278 c 0,73,74
 322 1353 322 1353 397 1408 c 0,75,76
 438 1436 438 1436 484 1457.5 c 128,-1,77
 530 1479 530 1479 581 1495 c 0,78,79
 633 1512 633 1512 689.5 1520.5 c 128,-1,80
 746 1529 746 1529 807 1529 c 0,81,82
 932 1529 932 1529 1030 1486 c 0,83,84
 1126 1447 1126 1447 1196 1381 c 0,85,86
 1258 1317 1258 1317 1301 1234 c 0,87,88
 1343 1152 1343 1152 1369 1063 c 0,89,90
 1376 1041 1376 1041 1381.5 1019 c 128,-1,91
 1387 997 1387 997 1391.5 974.5 c 128,-1,92
 1396 952 1396 952 1400 929.5 c 128,-1,93
 1404 907 1404 907 1407 885 c 0,94,95
 1418 796 1418 796 1418 715 c 0,96,97
 1418 640 1418 640 1405 562 c 0,98,99
 1398 523 1398 523 1388 484 c 128,-1,100
 1378 445 1378 445 1364 407 c 0,101,102
 1336 331 1336 331 1294 262 c 0,103,104
 1251 191 1251 191 1193 135 c 0,105,106
 1128 78 1128 78 1041 38 c 0,107,108
 997 18 997 18 949 4 c 0,109,110
 900 -11 900 -11 848 -18 c 2,111,-1
 843 -19 l 1,112,-1
 838 -19 l 1,113,-1
 737 -19 l 2,114,115
 668 -19 668 -19 607.5 -11.5 c 128,-1,116
 547 -4 547 -4 495 12 c 0,117,118
 389 41 389 41 319 95 c 0,119,120
 254 149 254 149 213 224 c 0,121,122
 174 296 174 296 148 382 c 0,123,124
 123 468 123 468 119 568 c 0,63,64
EndSplineSet
Validated: 1
EndChar

StartChar: one
Encoding: 49 49 20
Width: 1217
GlyphClass: 2
Flags: W
LayerCount: 2
Fore
SplineSet
937 1364 m 1,0,-1
 936 279 l 1,1,-1
 1014 265 l 2,2,3
 1045 260 1045 260 1062 250 c 2,4,-1
 1063 249 l 1,5,-1
 1065 249 l 2,6,7
 1086 235 1086 235 1100 215 c 0,8,9
 1102 212 1102 212 1104.5 208.5 c 128,-1,10
 1107 205 1107 205 1109 202 c 128,-1,11
 1111 199 1111 199 1113 195.5 c 128,-1,12
 1115 192 1115 192 1117 188.5 c 128,-1,13
 1119 185 1119 185 1120.5 181.5 c 128,-1,14
 1122 178 1122 178 1123 174 c 0,15,16
 1131 151 1131 151 1131 130 c 0,17,18
 1131 112 1131 112 1124 92 c 0,19,20
 1117 72 1117 72 1106 55 c 0,21,22
 1093 36 1093 36 1075 23 c 0,23,24
 1064 15 1064 15 1052 10 c 0,25,26
 1036 3 1036 3 1018 3 c 2,27,-1
 272 3 l 2,28,29
 245 3 245 3 218 6 c 0,30,31
 186 10 186 10 159 24 c 0,32,33
 129 40 129 40 110 68 c 0,34,35
 100 84 100 84 95 103 c 128,-1,36
 90 122 90 122 90 142 c 128,-1,37
 90 162 90 162 95 184 c 0,38,39
 100 210 100 210 113 231 c 0,40,41
 127 254 127 254 148 270 c 0,42,43
 174 289 174 289 210 289 c 2,44,-1
 579 289 l 1,45,-1
 579 1085 l 1,46,47
 567 1079 567 1079 555.5 1073.5 c 128,-1,48
 544 1068 544 1068 532 1062.5 c 128,-1,49
 520 1057 520 1057 508.5 1052 c 128,-1,50
 497 1047 497 1047 484 1043 c 0,51,52
 466 1036 466 1036 447 1029.5 c 128,-1,53
 428 1023 428 1023 409 1017.5 c 128,-1,54
 390 1012 390 1012 371 1008 c 0,55,56
 315 995 315 995 263 995 c 2,57,-1
 229 995 l 1,58,-1
 220 995 l 1,59,-1
 212 998 l 2,60,61
 164 1013 164 1013 141 1047 c 0,62,63
 130 1063 130 1063 125.5 1081.5 c 128,-1,64
 121 1100 121 1100 121 1120 c 0,65,66
 121 1160 121 1160 146 1190 c 0,67,68
 167 1215 167 1215 199 1233 c 0,69,70
 227 1249 227 1249 261 1261 c 0,71,72
 291 1272 291 1272 322 1282 c 0,73,74
 355 1291 355 1291 387 1300 c 0,75,76
 400 1304 400 1304 410.5 1308 c 128,-1,77
 421 1312 421 1312 428 1316 c 0,78,79
 462 1334 462 1334 492.5 1353.5 c 128,-1,80
 523 1373 523 1373 553 1395 c 0,81,82
 584 1418 584 1418 614 1440.5 c 128,-1,83
 644 1463 644 1463 673 1485 c 2,84,-1
 676 1488 l 1,85,-1
 679 1490 l 2,86,87
 702 1505 702 1505 730 1510 c 2,88,-1
 732 1511 l 1,89,-1
 735 1511 l 2,90,91
 745 1512 745 1512 755 1513 c 128,-1,92
 765 1514 765 1514 776 1514 c 0,93,94
 813 1514 813 1514 845.5 1502.5 c 128,-1,95
 878 1491 878 1491 899 1469 c 0,96,97
 918 1449 918 1449 927.5 1424.5 c 128,-1,98
 937 1400 937 1400 937 1373 c 2,99,-1
 937 1364 l 1,0,-1
EndSplineSet
Validated: 1
EndChar

StartChar: two
Encoding: 50 50 21
Width: 1519
GlyphClass: 2
Flags: W
LayerCount: 2
Fore
SplineSet
158 40 m 0,0,1
 115 76 115 76 115 131 c 0,2,3
 115 156 115 156 127 179 c 128,-1,4
 139 202 139 202 161 228 c 0,5,6
 198 271 198 271 258 324 c 0,7,8
 316 376 316 376 394 437 c 0,9,10
 477 497 477 497 564 563 c 0,11,12
 650 629 650 629 732 701 c 0,13,14
 813 771 813 771 877 845 c 0,15,16
 898 869 898 869 916 893 c 128,-1,17
 934 917 934 917 949 940.5 c 128,-1,18
 964 964 964 964 977 988 c 0,19,20
 989 1011 989 1011 996.5 1034 c 128,-1,21
 1004 1057 1004 1057 1008 1079 c 128,-1,22
 1012 1101 1012 1101 1012 1123 c 0,23,24
 1012 1151 1012 1151 994 1169 c 0,25,26
 971 1192 971 1192 937 1206 c 0,27,28
 924 1211 924 1211 910.5 1215.5 c 128,-1,29
 897 1220 897 1220 882.5 1223.5 c 128,-1,30
 868 1227 868 1227 853 1230 c 0,31,32
 829 1234 829 1234 806.5 1235.5 c 128,-1,33
 784 1237 784 1237 763 1237 c 0,34,35
 707 1237 707 1237 660 1217 c 0,36,37
 633 1206 633 1206 608.5 1191.5 c 128,-1,38
 584 1177 584 1177 562 1160 c 0,39,40
 538 1142 538 1142 517 1122.5 c 128,-1,41
 496 1103 496 1103 476 1082 c 0,42,43
 466 1071 466 1071 456 1060 c 128,-1,44
 446 1049 446 1049 436.5 1039 c 128,-1,45
 427 1029 427 1029 417.5 1019 c 128,-1,46
 408 1009 408 1009 399 999 c 0,47,48
 386 986 386 986 370 977 c 0,49,50
 355 968 355 968 338 962 c 0,51,52
 325 958 325 958 310.5 956.5 c 128,-1,53
 296 955 296 955 281 955 c 0,54,55
 268 955 268 955 255.5 957 c 128,-1,56
 243 959 243 959 231 963.5 c 128,-1,57
 219 968 219 968 208 974 c 128,-1,58
 197 980 197 980 187 988 c 0,59,60
 145 1022 145 1022 145 1072 c 2,61,-1
 145 1076 l 1,62,-1
 145 1078 l 1,63,-1
 145 1080 l 2,64,65
 146 1088 146 1088 146 1094 c 0,66,67
 146 1112 146 1112 156 1131 c 2,68,-1
 158 1135 l 1,69,-1
 161 1139 l 2,70,71
 211 1202 211 1202 262 1265 c 0,72,73
 289 1298 289 1298 318.5 1328.5 c 128,-1,74
 348 1359 348 1359 382 1385 c 0,75,76
 407 1403 407 1403 434 1419.5 c 128,-1,77
 461 1436 461 1436 489.5 1449.5 c 128,-1,78
 518 1463 518 1463 549 1475 c 0,79,80
 644 1514 644 1514 763 1514 c 0,81,82
 788 1514 788 1514 813 1512.5 c 128,-1,83
 838 1511 838 1511 862.5 1508 c 128,-1,84
 887 1505 887 1505 912 1501 c 128,-1,85
 937 1497 937 1497 962 1491 c 0,86,87
 1012 1480 1012 1480 1058 1463 c 128,-1,88
 1104 1446 1104 1446 1145 1424 c 0,89,90
 1223 1377 1223 1377 1269 1306 c 0,91,92
 1293 1269 1293 1269 1304.5 1225.5 c 128,-1,93
 1316 1182 1316 1182 1316 1134 c 0,94,95
 1316 1116 1316 1116 1314.5 1097.5 c 128,-1,96
 1313 1079 1313 1079 1310.5 1061 c 128,-1,97
 1308 1043 1308 1043 1304.5 1024.5 c 128,-1,98
 1301 1006 1301 1006 1296 988 c 128,-1,99
 1291 970 1291 970 1285 952 c 0,100,101
 1270 908 1270 908 1249 864.5 c 128,-1,102
 1228 821 1228 821 1203 779 c 0,103,104
 1149 696 1149 696 1074 617 c 0,105,106
 1001 540 1001 540 921 470 c 0,107,108
 842 400 842 400 764 338 c 0,109,110
 758 333 758 333 751 328 c 128,-1,111
 744 323 744 323 739 319 c 1,112,113
 789 321 789 321 841 321 c 0,114,115
 858 321 858 321 875 321 c 0,116,117
 887 324 887 324 907 324 c 0,118,119
 929 324 929 324 971 321 c 0,120,121
 1006 319 1006 319 1046 319 c 0,122,123
 1059 319 1059 319 1073 319 c 0,124,125
 1136 319 1136 319 1197 308 c 0,126,127
 1253 298 1253 298 1299 281 c 0,128,129
 1311 276 1311 276 1322.5 270.5 c 128,-1,130
 1334 265 1334 265 1345 259 c 128,-1,131
 1356 253 1356 253 1365.5 245.5 c 128,-1,132
 1375 238 1375 238 1384 230 c 0,133,134
 1425 191 1425 191 1425 133 c 0,135,136
 1425 120 1425 120 1422.5 107.5 c 128,-1,137
 1420 95 1420 95 1415 83.5 c 128,-1,138
 1410 72 1410 72 1402.5 62 c 128,-1,139
 1395 52 1395 52 1385 43 c 0,140,141
 1367 26 1367 26 1345 17 c 128,-1,142
 1323 8 1323 8 1299 8 c 2,143,-1
 1281 10 l 2,144,145
 1275 11 1275 11 1268.5 11.5 c 128,-1,146
 1262 12 1262 12 1255 12.5 c 128,-1,147
 1248 13 1248 13 1241.5 13 c 128,-1,148
 1235 13 1235 13 1228 13.5 c 128,-1,149
 1221 14 1221 14 1214 14 c 0,150,151
 1206 14 1206 14 1200 14 c 0,152,153
 1145 14 1145 14 1087 24 c 0,154,155
 1038 32 1038 32 989 35 c 0,156,157
 925 37 925 37 900 37 c 2,158,-1
 890 37 l 2,159,160
 880 36 880 36 845 36 c 128,-1,161
 810 36 810 36 733 36 c 0,162,163
 662 33 662 33 579 33 c 0,164,165
 554 33 554 33 530 32 c 128,-1,166
 506 31 506 31 483 29 c 128,-1,167
 460 27 460 27 438 24 c 2,168,-1
 436 23 l 1,169,-1
 435 23 l 2,170,171
 362 16 362 16 297 4 c 2,172,-1
 292 3 l 1,173,-1
 287 3 l 1,174,-1
 257 3 l 2,175,176
 199 3 199 3 158 40 c 0,0,1
EndSplineSet
Validated: 1
EndChar

StartChar: three
Encoding: 51 51 22
Width: 1510
GlyphClass: 2
Flags: W
LayerCount: 2
Fore
SplineSet
112 247 m 0,0,1
 78 291 78 291 78 341 c 0,2,3
 78 355 78 355 81 369 c 128,-1,4
 84 383 84 383 89 395 c 0,5,6
 94 407 94 407 101 418.5 c 128,-1,7
 108 430 108 430 117 439 c 0,8,9
 136 459 136 459 162 471 c 0,10,11
 175 477 175 477 188.5 479.5 c 128,-1,12
 202 482 202 482 216 482 c 0,13,14
 266 482 266 482 318 465 c 0,15,16
 369 450 369 450 424 427 c 0,17,18
 478 405 478 405 533 380 c 0,19,20
 559 368 559 368 585.5 356.5 c 128,-1,21
 612 345 612 345 639 335 c 0,22,23
 693 315 693 315 750 302 c 0,24,25
 802 289 802 289 858 289 c 0,26,27
 872 289 872 289 887.5 289.5 c 128,-1,28
 903 290 903 290 921 292 c 0,29,30
 956 295 956 295 991 301 c 0,31,32
 1025 307 1025 307 1058 318 c 0,33,34
 1088 328 1088 328 1110 342 c 0,35,36
 1120 349 1120 349 1128 356.5 c 128,-1,37
 1136 364 1136 364 1142 372 c 0,38,39
 1152 387 1152 387 1153 408 c 0,40,41
 1153 438 1153 438 1137 464 c 0,42,43
 1128 478 1128 478 1117 491.5 c 128,-1,44
 1106 505 1106 505 1091 517 c 0,45,46
 1061 543 1061 543 1022 565 c 0,47,48
 1008 573 1008 573 994 580.5 c 128,-1,49
 980 588 980 588 965.5 595 c 128,-1,50
 951 602 951 602 936 609 c 0,51,52
 891 629 891 629 847 645 c 0,53,54
 801 662 801 662 764 676 c 2,55,-1
 758 678 l 1,56,-1
 752 681 l 2,57,58
 733 693 733 693 721 704 c 0,59,60
 708 716 708 716 699 729 c 0,61,62
 688 746 688 746 687 766 c 0,63,64
 686 777 686 777 687 793 c 2,65,-1
 687 806 l 2,66,67
 687 808 687 808 687 810 c 128,-1,68
 687 812 687 812 687 813.5 c 128,-1,69
 687 815 687 815 687.5 817 c 128,-1,70
 688 819 688 819 688 821 c 0,71,72
 690 835 690 835 698 848 c 0,73,74
 700 852 700 852 703 855 c 128,-1,75
 706 858 706 858 710 864 c 2,76,-1
 990 1205 l 1,77,78
 934 1203 934 1203 878.5 1199.5 c 128,-1,79
 823 1196 823 1196 766.5 1194.5 c 128,-1,80
 710 1193 710 1193 653 1193 c 0,81,82
 630 1193 630 1193 586 1191 c 0,83,84
 539 1189 539 1189 484 1189 c 0,85,86
 465 1189 465 1189 445.5 1189.5 c 128,-1,87
 426 1190 426 1190 407 1191.5 c 128,-1,88
 388 1193 388 1193 368 1195 c 0,89,90
 308 1201 308 1201 262 1217 c 0,91,92
 210 1235 210 1235 176 1269 c 0,93,94
 136 1310 136 1310 136 1373 c 0,95,96
 136 1429 136 1429 174 1470 c 0,97,98
 215 1514 215 1514 277 1514 c 2,99,-1
 287 1514 l 1,100,-1
 295 1514 l 2,101,102
 300 1514 300 1514 305 1514 c 128,-1,103
 310 1514 310 1514 315.5 1513.5 c 128,-1,104
 321 1513 321 1513 327 1513 c 0,105,106
 334 1513 334 1513 341.5 1512.5 c 128,-1,107
 349 1512 349 1512 357 1511 c 128,-1,108
 365 1510 365 1510 373 1510 c 0,109,110
 420 1506 420 1506 474 1501 c 0,111,112
 491 1499 491 1499 507 1497.5 c 128,-1,113
 523 1496 523 1496 539 1494 c 128,-1,114
 555 1492 555 1492 572 1491 c 0,115,116
 618 1486 618 1486 664 1486 c 0,117,118
 813 1486 813 1486 960 1497 c 0,119,120
 1111 1508 1111 1508 1258 1508 c 0,121,122
 1287 1508 1287 1508 1315 1504 c 0,123,124
 1348 1499 1348 1499 1376 1486 c 0,125,126
 1409 1471 1409 1471 1428 1440 c 0,127,128
 1438 1424 1438 1424 1443 1406 c 128,-1,129
 1448 1388 1448 1388 1448 1368 c 0,130,131
 1448 1356 1448 1356 1445 1342 c 0,132,133
 1443 1334 1443 1334 1440.5 1327.5 c 128,-1,134
 1438 1321 1438 1321 1434 1314 c 2,135,-1
 1433 1313 l 1,136,-1
 1432 1312 l 1,137,-1
 1086 846 l 1,138,139
 1139 819 1139 819 1193 788 c 0,140,141
 1265 743 1265 743 1321 687 c 0,142,143
 1350 658 1350 658 1373.5 626.5 c 128,-1,144
 1397 595 1397 595 1415 561 c 0,145,146
 1454 488 1454 488 1454 400 c 0,147,148
 1454 329 1454 329 1429 270 c 0,149,150
 1421 251 1421 251 1410.5 233.5 c 128,-1,151
 1400 216 1400 216 1387.5 199.5 c 128,-1,152
 1375 183 1375 183 1361 168 c 0,153,154
 1319 124 1319 124 1263 92 c 0,155,156
 1209 61 1209 61 1140 41 c 0,157,158
 1072 20 1072 20 1000 10 c 0,159,160
 964 5 964 5 929.5 2.5 c 128,-1,161
 895 0 895 0 861 0 c 128,-1,162
 827 0 827 0 776 5 c 0,163,164
 726 10 726 10 664 21 c 0,165,166
 633 26 633 26 601.5 32.5 c 128,-1,167
 570 39 570 39 536.5 46.5 c 128,-1,168
 503 54 503 54 469.5 63 c 128,-1,169
 436 72 436 72 404 82 c 0,170,171
 338 102 338 102 283 125 c 0,172,173
 228 149 228 149 185 179 c 0,174,175
 140 211 140 211 112 247 c 0,0,1
EndSplineSet
Validated: 1
EndChar

StartChar: four
Encoding: 52 52 23
Width: 1249
GlyphClass: 2
Flags: W
LayerCount: 2
Fore
SplineSet
793 37 m 0,0,1
 748 70 748 70 748 124 c 0,2,3
 748 183 748 183 771 251 c 0,4,5
 792 313 792 313 818 380 c 0,6,7
 823 393 823 393 827.5 406.5 c 128,-1,8
 832 420 832 420 837 433 c 128,-1,9
 842 446 842 446 846 459.5 c 128,-1,10
 850 473 850 473 854.5 486.5 c 128,-1,11
 859 500 859 500 863 513 c 0,12,13
 872 544 872 544 877 575.5 c 128,-1,14
 882 607 882 607 882 637 c 1,15,16
 862 643 862 643 838 648 c 0,17,18
 784 658 784 658 718 666 c 0,19,20
 685 670 685 670 650 674 c 128,-1,21
 615 678 615 678 578 681 c 0,22,23
 502 688 502 688 428 695 c 0,24,25
 390 699 390 699 354 703.5 c 128,-1,26
 318 708 318 708 287 713 c 0,27,28
 227 724 227 724 180 740 c 0,29,30
 163 746 163 746 148.5 752.5 c 128,-1,31
 134 759 134 759 120.5 767 c 128,-1,32
 107 775 107 775 96 784 c 0,33,34
 53 819 53 819 53 871 c 2,35,-1
 53 894 l 1,36,-1
 53 902 l 1,37,-1
 56 909 l 1,38,-1
 135 1132 l 2,39,40
 137 1138 137 1138 139 1146 c 128,-1,41
 141 1154 141 1154 143.5 1164 c 128,-1,42
 146 1174 146 1174 148 1186 c 0,43,44
 150 1199 150 1199 151.5 1212 c 128,-1,45
 153 1225 153 1225 154.5 1238 c 128,-1,46
 156 1251 156 1251 158 1265 c 0,47,48
 162 1305 162 1305 164 1341.5 c 128,-1,49
 166 1378 166 1378 166 1398 c 2,50,-1
 166 1399 l 1,51,-1
 166 1401 l 2,52,53
 167 1413 167 1413 170.5 1424.5 c 128,-1,54
 174 1436 174 1436 181 1447 c 0,55,56
 192 1466 192 1466 209 1480 c 0,57,58
 226 1495 226 1495 248.5 1503 c 128,-1,59
 271 1511 271 1511 294 1511 c 0,60,61
 327 1511 327 1511 357.5 1501.5 c 128,-1,62
 388 1492 388 1492 411 1472.5 c 128,-1,63
 434 1453 434 1453 445.5 1427 c 128,-1,64
 457 1401 457 1401 457 1372 c 0,65,66
 457 1310 457 1310 451 1249 c 128,-1,67
 445 1188 445 1188 434 1129 c 0,68,69
 428 1097 428 1097 419.5 1065 c 128,-1,70
 411 1033 411 1033 400.5 1001 c 128,-1,71
 390 969 390 969 378 937 c 1,72,73
 428 931 428 931 484 925 c 0,74,75
 570 915 570 915 657 902 c 0,76,77
 746 889 746 889 830 872 c 0,78,79
 840 870 840 870 849.5 868 c 128,-1,80
 859 866 859 866 868.5 864 c 128,-1,81
 878 862 878 862 887 860 c 128,-1,82
 896 858 896 858 905 855 c 1,83,-1
 923 1408 l 2,84,85
 923 1420 923 1420 931.5 1435 c 128,-1,86
 940 1450 940 1450 950 1460 c 0,87,88
 964 1474 964 1474 983 1484 c 0,89,90
 992 1489 992 1489 1001.5 1493 c 128,-1,91
 1011 1497 1011 1497 1021 1500 c 0,92,93
 1027 1502 1027 1502 1032.5 1503 c 128,-1,94
 1038 1504 1038 1504 1044.5 1504.5 c 128,-1,95
 1051 1505 1051 1505 1057 1505 c 0,96,97
 1109 1505 1109 1505 1144 1472 c 0,98,99
 1175 1444 1175 1444 1186 1403 c 2,100,-1
 1187 1397 l 1,101,-1
 1187 1392 l 2,102,103
 1187 1389 1187 1389 1187 1384 c 128,-1,104
 1187 1379 1187 1379 1187 1372.5 c 128,-1,105
 1187 1366 1187 1366 1187.5 1358 c 128,-1,106
 1188 1350 1188 1350 1188 1341.5 c 128,-1,107
 1188 1333 1188 1333 1188 1324.5 c 128,-1,108
 1188 1316 1188 1316 1188 1307 c 0,109,110
 1188 1280 1188 1280 1189 1255 c 0,111,112
 1190 1230 1190 1230 1190 1220 c 0,113,114
 1190 1216 1190 1216 1190 1211 c 128,-1,115
 1190 1206 1190 1206 1190 1200.5 c 128,-1,116
 1190 1195 1190 1195 1190 1189 c 128,-1,117
 1190 1183 1190 1183 1189 1175 c 0,118,119
 1189 1147 1189 1147 1188 1120 c 0,120,121
 1188 1106 1188 1106 1188 1093.5 c 128,-1,122
 1188 1081 1188 1081 1187 1071 c 0,123,124
 1187 1051 1187 1051 1187 1047 c 2,125,-1
 1187 1046 l 1,126,-1
 1187 1045 l 2,127,128
 1187 1040 1187 1040 1186.5 1034 c 128,-1,129
 1186 1028 1186 1028 1185.5 1021 c 128,-1,130
 1185 1014 1185 1014 1184.5 1005 c 128,-1,131
 1184 996 1184 996 1184 986 c 0,132,133
 1182 946 1182 946 1179 895 c 128,-1,134
 1176 844 1176 844 1172 788 c 0,135,136
 1168 733 1168 733 1164 682 c 0,137,138
 1163 665 1163 665 1162 649 c 128,-1,139
 1161 633 1161 633 1160 618.5 c 128,-1,140
 1159 604 1159 604 1158 591 c 0,141,142
 1155 550 1155 550 1153 530 c 0,143,144
 1152 521 1152 521 1150 509.5 c 128,-1,145
 1148 498 1148 498 1144 479 c 0,146,147
 1138 445 1138 445 1132 408 c 0,148,149
 1130 395 1130 395 1128 382.5 c 128,-1,150
 1126 370 1126 370 1124 358.5 c 128,-1,151
 1122 347 1122 347 1120 335 c 0,152,153
 1114 302 1114 302 1112 289 c 0,154,155
 1107 260 1107 260 1097 218 c 0,156,157
 1086 173 1086 173 1066 130 c 0,158,159
 1045 84 1045 84 1013 50 c 0,160,161
 971 3 971 3 902 3 c 0,162,163
 836 3 836 3 793 37 c 0,0,1
EndSplineSet
Validated: 1
EndChar

StartChar: five
Encoding: 53 53 24
Width: 1584
GlyphClass: 2
Flags: W
LayerCount: 2
Fore
SplineSet
157 191 m 0,0,1
 105 242 105 242 105 306 c 0,2,3
 105 374 105 374 150 414 c 0,4,5
 192 451 192 451 257 451 c 0,6,7
 289 451 289 451 322 444 c 0,8,9
 355 437 355 437 392 424 c 0,10,11
 458 401 458 401 530 373 c 0,12,13
 598 346 598 346 673 323 c 0,14,15
 741 303 741 303 815 303 c 0,16,17
 849 303 849 303 894.5 307 c 128,-1,18
 940 311 940 311 990 321 c 0,19,20
 1038 330 1038 330 1085 346 c 0,21,22
 1129 361 1129 361 1163 383 c 0,23,24
 1194 403 1194 403 1213 429 c 0,25,26
 1229 452 1229 452 1229 484 c 0,27,28
 1229 512 1229 512 1221 533 c 128,-1,29
 1213 554 1213 554 1197 571 c 0,30,31
 1185 584 1185 584 1170 595.5 c 128,-1,32
 1155 607 1155 607 1136.5 617.5 c 128,-1,33
 1118 628 1118 628 1096 637 c 0,34,35
 1028 666 1028 666 940 684 c 0,36,37
 893 693 893 693 845.5 700.5 c 128,-1,38
 798 708 798 708 750 715 c 0,39,40
 652 728 652 728 557 740 c 0,41,42
 524 744 524 744 493.5 749 c 128,-1,43
 463 754 463 754 435 760 c 128,-1,44
 407 766 407 766 380 772 c 0,45,46
 353 779 353 779 332 787 c 0,47,48
 311 795 311 795 291.5 805 c 128,-1,49
 272 815 272 815 255 827 c 0,50,51
 236 841 236 841 222 859 c 128,-1,52
 208 877 208 877 200.5 898.5 c 128,-1,53
 193 920 193 920 193 944 c 2,54,-1
 193 977 l 1,55,-1
 193 985 l 1,56,-1
 196 993 l 2,57,58
 199 1003 199 1003 203.5 1014.5 c 128,-1,59
 208 1026 208 1026 213 1040 c 0,60,61
 223 1066 223 1066 234 1095 c 0,62,63
 244 1123 244 1123 252 1151 c 0,64,65
 259 1176 259 1176 260 1195 c 2,66,-1
 273 1482 l 2,67,68
 274 1472 274 1472 308 1464 c 1,69,70
 338 1495 338 1495 378 1508 c 2,71,-1
 387 1510 l 1,72,-1
 396 1510 l 1,73,-1
 482 1510 l 1,74,-1
 571 1510 l 2,75,76
 582 1510 582 1510 596 1509.5 c 128,-1,77
 610 1509 610 1509 627 1508.5 c 128,-1,78
 644 1508 644 1508 666 1507 c 0,79,80
 729 1505 729 1505 809.5 1502.5 c 128,-1,81
 890 1500 890 1500 978 1497 c 0,82,83
 1022 1495 1022 1495 1064.5 1493.5 c 128,-1,84
 1107 1492 1107 1492 1147.5 1490.5 c 128,-1,85
 1188 1489 1188 1489 1224 1488 c 128,-1,86
 1260 1487 1260 1487 1291 1486 c 0,87,88
 1320 1485 1320 1485 1340.5 1484 c 128,-1,89
 1361 1483 1361 1483 1375 1483 c 2,90,-1
 1382 1483 l 1,91,-1
 1388 1481 l 2,92,93
 1437 1466 1437 1466 1465 1425 c 0,94,95
 1478 1406 1478 1406 1484.5 1384 c 128,-1,96
 1491 1362 1491 1362 1491 1338 c 0,97,98
 1491 1320 1491 1320 1487 1303 c 128,-1,99
 1483 1286 1483 1286 1474.5 1270 c 128,-1,100
 1466 1254 1466 1254 1454 1241 c 0,101,102
 1443 1229 1443 1229 1429.5 1220 c 128,-1,103
 1416 1211 1416 1211 1401 1204.5 c 128,-1,104
 1386 1198 1386 1198 1370 1194 c 2,105,-1
 1365 1193 l 1,106,-1
 1359 1193 l 1,107,-1
 1176 1193 l 2,108,109
 1032 1193 1032 1193 888 1200 c 0,110,111
 748 1207 748 1207 607 1207 c 2,112,-1
 592 1207 l 1,113,114
 591 1198 591 1198 590 1190.5 c 128,-1,115
 589 1183 589 1183 587 1174 c 0,116,117
 580 1135 580 1135 572 1096 c 0,118,119
 564 1059 564 1059 558 1022 c 0,120,121
 555 1003 555 1003 553 986 c 1,122,123
 564 984 564 984 574.5 981.5 c 128,-1,124
 585 979 585 979 596 977 c 128,-1,125
 607 975 607 975 618 972.5 c 128,-1,126
 629 970 629 970 641 968 c 0,127,128
 716 955 716 955 799 940 c 0,129,130
 882 925 882 925 968 906 c 0,131,132
 1056 887 1056 887 1138 863 c 0,133,134
 1180 850 1180 850 1219.5 835 c 128,-1,135
 1259 820 1259 820 1295 802 c 0,136,137
 1312 793 1312 793 1328 783.5 c 128,-1,138
 1344 774 1344 774 1359 763.5 c 128,-1,139
 1374 753 1374 753 1388.5 741 c 128,-1,140
 1403 729 1403 729 1416 717 c 0,141,142
 1443 692 1443 692 1464 662.5 c 128,-1,143
 1485 633 1485 633 1500 600 c 0,144,145
 1531 533 1531 533 1531 449 c 0,146,147
 1531 369 1531 369 1498 303 c 0,148,149
 1490 287 1490 287 1481 271.5 c 128,-1,150
 1472 256 1472 256 1461.5 241.5 c 128,-1,151
 1451 227 1451 227 1439 214 c 128,-1,152
 1427 201 1427 201 1414 188 c 0,153,154
 1362 139 1362 139 1294 104 c 0,155,156
 1221 70 1221 70 1138 47 c 0,157,158
 1111 39 1111 39 1084 32.5 c 128,-1,159
 1057 26 1057 26 1029.5 21 c 128,-1,160
 1002 16 1002 16 974 12 c 128,-1,161
 946 8 946 8 919.5 5.5 c 128,-1,162
 893 3 893 3 866.5 1.5 c 128,-1,163
 840 0 840 0 815 0 c 0,164,165
 795 0 795 0 769 2 c 128,-1,166
 743 4 743 4 709 7 c 0,167,168
 676 11 676 11 639.5 16.5 c 128,-1,169
 603 22 603 22 564 29 c 0,170,171
 486 43 486 43 404 66 c 0,172,173
 324 89 324 89 264 118 c 0,174,175
 199 150 199 150 157 191 c 0,0,1
EndSplineSet
Validated: 1
EndChar

StartChar: six
Encoding: 54 54 25
Width: 1409
GlyphClass: 2
Flags: W
LayerCount: 2
Fore
SplineSet
387 626.5 m 128,-1,1
 386 623 386 623 386 619 c 0,2,3
 386 604 386 604 386.5 590 c 128,-1,4
 387 576 387 576 388 561.5 c 128,-1,5
 389 547 389 547 390.5 533 c 128,-1,6
 392 519 392 519 394 505 c 128,-1,7
 396 491 396 491 399 478 c 0,8,9
 402 462 402 462 406.5 446.5 c 128,-1,10
 411 431 411 431 416.5 417 c 128,-1,11
 422 403 422 403 429 390 c 128,-1,12
 436 377 436 377 444 365 c 0,13,14
 475 320 475 320 527 293 c 0,15,16
 577 267 577 267 661 267 c 2,17,-1
 720 267 l 2,18,19
 731 269 731 269 742 272 c 128,-1,20
 753 275 753 275 764 278 c 128,-1,21
 775 281 775 281 787 286 c 0,22,23
 827 300 827 300 867 319 c 0,24,25
 906 338 906 338 942 362 c 0,26,27
 977 385 977 385 1003 412 c 0,28,29
 1011 420 1011 420 1018 428.5 c 128,-1,30
 1025 437 1025 437 1031 445.5 c 128,-1,31
 1037 454 1037 454 1042 463 c 0,32,33
 1055 487 1055 487 1054 511 c 0,34,35
 1054 568 1054 568 1034 619 c 0,36,37
 1029 632 1029 632 1023 643 c 128,-1,38
 1017 654 1017 654 1010 665 c 128,-1,39
 1003 676 1003 676 995 685.5 c 128,-1,40
 987 695 987 695 978 704 c 0,41,42
 942 739 942 739 888 760 c 0,43,44
 875 765 875 765 860.5 769 c 128,-1,45
 846 773 846 773 830.5 775.5 c 128,-1,46
 815 778 815 778 797.5 779.5 c 128,-1,47
 780 781 780 781 761 781 c 0,48,49
 737 781 737 781 700 774 c 0,50,51
 687 772 687 772 673 769 c 128,-1,52
 659 766 659 766 644.5 762.5 c 128,-1,53
 630 759 630 759 615 754 c 0,54,55
 570 741 570 741 526 723 c 0,56,57
 504 714 504 714 484.5 704.5 c 128,-1,58
 465 695 465 695 448 685 c 0,59,60
 437 678 437 678 428 671.5 c 128,-1,61
 419 665 419 665 411.5 658.5 c 128,-1,62
 404 652 404 652 398 645 c 0,63,64
 393 640 393 640 390.5 635 c 128,-1,0
 388 630 388 630 387 626.5 c 128,-1,1
99 876 m 1,65,-1
 99 880 l 2,66,67
 118 1009 118 1009 176 1124 c 0,68,69
 234 1240 234 1240 326 1329 c 1,70,71
 431 1418 431 1418 575 1471 c 0,72,73
 720 1524 720 1524 893 1524 c 0,74,75
 903 1524 903 1524 916 1524.5 c 128,-1,76
 929 1525 929 1525 945 1526 c 0,77,78
 980 1529 980 1529 1018 1530 c 0,79,80
 1028 1530 1028 1530 1038 1530 c 0,81,82
 1068 1530 1068 1530 1097 1528 c 0,83,84
 1136 1525 1136 1525 1167 1514 c 0,85,86
 1205 1500 1205 1500 1230 1471 c 0,87,88
 1244 1454 1244 1454 1250.5 1433.5 c 128,-1,89
 1257 1413 1257 1413 1257 1390 c 0,90,91
 1257 1328 1257 1328 1212 1290 c 0,92,93
 1171 1255 1171 1255 1116 1255 c 0,94,95
 1101 1255 1101 1255 1085 1254 c 0,96,97
 1067 1253 1067 1253 1050 1252 c 128,-1,98
 1033 1251 1033 1251 1015 1249 c 0,99,100
 985 1246 985 1246 955 1244.5 c 128,-1,101
 925 1243 925 1243 893 1243 c 0,102,103
 798 1243 798 1243 707 1218 c 0,104,105
 615 1192 615 1192 543 1147 c 0,106,107
 507 1125 507 1125 479 1099 c 0,108,109
 450 1070 450 1070 428 1037 c 0,110,111
 408 1002 408 1002 398 966 c 1,112,113
 426 981 426 981 452 992 c 128,-1,114
 478 1003 478 1003 506 1014 c 0,115,116
 565 1036 565 1036 628 1049 c 0,117,118
 693 1062 693 1062 761 1062 c 0,119,120
 903 1062 903 1062 1018 1016 c 0,121,122
 1074 993 1074 993 1118 963 c 0,123,124
 1160 932 1160 932 1194 894 c 0,125,126
 1262 818 1262 818 1298 719 c 0,127,128
 1334 621 1334 621 1334 514 c 0,129,130
 1334 480 1334 480 1327.5 445.5 c 128,-1,131
 1321 411 1321 411 1308 377 c 0,132,133
 1300 355 1300 355 1289 334 c 128,-1,134
 1278 313 1278 313 1265.5 293 c 128,-1,135
 1253 273 1253 273 1238 254 c 0,136,137
 1224 235 1224 235 1208 216.5 c 128,-1,138
 1192 198 1192 198 1174.5 181 c 128,-1,139
 1157 164 1157 164 1137 148 c 0,140,141
 1078 99 1078 99 1002 63 c 0,142,143
 925 27 925 27 841 8 c 0,144,145
 799 -3 799 -3 756.5 -8.5 c 128,-1,146
 714 -14 714 -14 672 -14 c 0,147,148
 536 -14 536 -14 436 21 c 0,149,150
 403 32 403 32 373 46 c 128,-1,151
 343 60 343 60 320 76.5 c 128,-1,152
 297 93 297 93 276 113 c 0,153,154
 216 170 216 170 181 247 c 0,155,156
 147 321 147 321 129 406 c 0,157,158
 111 489 111 489 105 580 c 0,159,160
 99 668 99 668 99 756 c 2,161,-1
 99 873 l 1,162,-1
 99 876 l 1,65,-1
EndSplineSet
Validated: 1
EndChar

StartChar: seven
Encoding: 55 55 26
Width: 1506
GlyphClass: 2
Flags: W
LayerCount: 2
Fore
SplineSet
470 105 m 1,0,-1
 470 172 l 2,1,2
 470 273 470 273 496 373 c 0,3,4
 522 472 522 472 565 569 c 0,5,6
 608 666 608 666 665 760 c 0,7,8
 679 783 679 783 694 806 c 128,-1,9
 709 829 709 829 724 852 c 128,-1,10
 739 875 739 875 754.5 897 c 128,-1,11
 770 919 770 919 786 942 c 0,12,13
 850 1030 850 1030 917 1113 c 0,14,15
 954 1159 954 1159 989 1202 c 1,16,17
 949 1201 949 1201 910 1200 c 0,18,19
 815 1197 815 1197 722 1197 c 0,20,21
 693 1197 693 1197 635 1194 c 0,22,23
 620 1193 620 1193 604 1192.5 c 128,-1,24
 588 1192 588 1192 571 1191.5 c 128,-1,25
 554 1191 554 1191 537 1190.5 c 128,-1,26
 520 1190 520 1190 502 1190 c 0,27,28
 490 1189 490 1189 481 1189 c 128,-1,29
 472 1189 472 1189 461 1189 c 0,30,31
 430 1189 430 1189 401.5 1190 c 128,-1,32
 373 1191 373 1191 348 1192 c 0,33,34
 267 1197 267 1197 212 1212 c 0,35,36
 147 1229 147 1229 104 1262 c 0,37,38
 49 1304 49 1304 49 1375 c 0,39,40
 49 1391 49 1391 53 1410 c 0,41,42
 57 1430 57 1430 67 1448 c 0,43,44
 78 1470 78 1470 97 1485 c 0,45,46
 105 1492 105 1492 115 1496.5 c 128,-1,47
 125 1501 125 1501 135 1503 c 128,-1,48
 145 1505 145 1505 155 1505 c 2,49,-1
 228 1505 l 1,50,-1
 231 1505 l 1,51,-1
 234 1505 l 2,52,53
 317 1495 317 1495 382 1489 c 0,54,55
 446 1483 446 1483 503 1479 c 0,56,57
 517 1478 517 1478 531.5 1477.5 c 128,-1,58
 546 1477 546 1477 560 1476.5 c 128,-1,59
 574 1476 574 1476 588 1475.5 c 128,-1,60
 602 1475 602 1475 617 1475 c 0,61,62
 636 1475 636 1475 657 1474.5 c 128,-1,63
 678 1474 678 1474 701 1474 c 128,-1,64
 724 1474 724 1474 749 1474 c 0,65,66
 818 1474 818 1474 887 1480 c 0,67,68
 958 1486 958 1486 1029 1492 c 0,69,70
 1101 1499 1101 1499 1172 1505 c 0,71,72
 1241 1511 1241 1511 1307 1511 c 0,73,74
 1314 1511 1314 1511 1321 1510.5 c 128,-1,75
 1328 1510 1328 1510 1335.5 1508.5 c 128,-1,76
 1343 1507 1343 1507 1349.5 1505.5 c 128,-1,77
 1356 1504 1356 1504 1363 1501.5 c 128,-1,78
 1370 1499 1370 1499 1376 1496 c 128,-1,79
 1382 1493 1382 1493 1388.5 1489 c 128,-1,80
 1395 1485 1395 1485 1400 1481 c 0,81,82
 1424 1465 1424 1465 1436.5 1439.5 c 128,-1,83
 1449 1414 1449 1414 1449 1385 c 0,84,85
 1449 1343 1449 1343 1423 1305 c 2,86,-1
 1422 1304 l 1,87,-1
 1421 1303 l 2,88,89
 1340 1200 1340 1200 1263 1093 c 0,90,91
 1224 1040 1224 1040 1186 986 c 0,92,93
 1145 932 1145 932 1105 877 c 0,94,95
 1027 767 1027 767 959 653 c 0,96,97
 892 540 892 540 840 420 c 0,98,99
 837 412 837 412 834 400 c 128,-1,100
 831 388 831 388 829 372 c 0,101,102
 826 354 826 354 823.5 334 c 128,-1,103
 821 314 821 314 818 293 c 0,104,105
 817 287 817 287 816.5 280.5 c 128,-1,106
 816 274 816 274 815 268 c 128,-1,107
 814 262 814 262 813 255.5 c 128,-1,108
 812 249 812 249 811 243 c 128,-1,109
 810 237 810 237 809 230.5 c 128,-1,110
 808 224 808 224 807 217.5 c 128,-1,111
 806 211 806 211 805 205 c 0,112,113
 801 181 801 181 794 158 c 128,-1,114
 787 135 787 135 778 115 c 0,115,116
 768 93 768 93 755.5 75 c 128,-1,117
 743 57 743 57 726 41 c 0,118,119
 684 0 684 0 619 0 c 0,120,121
 568 0 568 0 528 27 c 0,122,123
 488 51 488 51 473 90 c 2,124,-1
 470 98 l 1,125,-1
 470 105 l 1,0,-1
EndSplineSet
Validated: 1
EndChar

StartChar: eight
Encoding: 56 56 27
Width: 1263
GlyphClass: 2
Flags: W
LayerCount: 2
Fore
SplineSet
925 1073 m 0,0,1
 933 1085 933 1085 933 1095 c 0,2,3
 933 1120 933 1120 918 1145 c 0,4,5
 901 1175 901 1175 872 1202 c 0,6,7
 841 1231 841 1231 801 1255 c 0,8,9
 791 1261 791 1261 780 1267 c 128,-1,10
 769 1273 769 1273 758.5 1278.5 c 128,-1,11
 748 1284 748 1284 737 1289 c 128,-1,12
 726 1294 726 1294 715 1298 c 0,13,14
 700 1304 700 1304 685.5 1309 c 128,-1,15
 671 1314 671 1314 657 1318.5 c 128,-1,16
 643 1323 643 1323 629 1326 c 0,17,18
 589 1336 589 1336 556 1336 c 0,19,20
 519 1336 519 1336 482 1326 c 0,21,22
 464 1321 464 1321 449 1314 c 128,-1,23
 434 1307 434 1307 420 1298 c 0,24,25
 394 1280 394 1280 379 1256 c 0,26,27
 365 1233 365 1233 364 1203 c 0,28,29
 364 1175 364 1175 377 1156 c 0,30,31
 393 1133 393 1133 421 1114 c 2,32,-1
 666 946 l 1,33,34
 674 947 674 947 683.5 948.5 c 128,-1,35
 693 950 693 950 704 952 c 0,36,37
 712 954 712 954 719.5 956 c 128,-1,38
 727 958 727 958 735 960.5 c 128,-1,39
 743 963 743 963 751.5 966 c 128,-1,40
 760 969 760 969 768 972 c 0,41,42
 801 985 801 985 833 1001 c 0,43,44
 864 1017 864 1017 889 1037 c 0,45,46
 912 1055 912 1055 925 1073 c 0,0,1
943.5 435.5 m 128,-1,48
 946 444 946 444 946 454 c 0,49,50
 946 459 946 459 945.5 463 c 128,-1,51
 945 467 945 467 944 470 c 128,-1,52
 943 473 943 473 941 476 c 0,53,54
 935 488 935 488 925 501 c 0,55,56
 919 506 919 506 911.5 512.5 c 128,-1,57
 904 519 904 519 893 529 c 0,58,59
 868 551 868 551 834 578.5 c 128,-1,60
 800 606 800 606 760 636 c 128,-1,61
 720 666 720 666 683 691 c 0,62,63
 674 697 674 697 666 702 c 128,-1,64
 658 707 658 707 650 712 c 128,-1,65
 642 717 642 717 634.5 721 c 128,-1,66
 627 725 627 725 621 729 c 0,67,68
 617 731 617 731 613.5 732.5 c 128,-1,69
 610 734 610 734 607.5 735 c 128,-1,70
 605 736 605 736 603 737 c 128,-1,71
 601 738 601 738 600 738 c 0,72,73
 577 737 577 737 549 729 c 0,74,75
 533 724 533 724 517 716.5 c 128,-1,76
 501 709 501 709 484 700 c 0,77,78
 451 682 451 682 420 657 c 0,79,80
 404 644 404 644 391 631 c 128,-1,81
 378 618 378 618 367 604 c 0,82,83
 362 597 362 597 357 590.5 c 128,-1,84
 352 584 352 584 347.5 577.5 c 128,-1,85
 343 571 343 571 339.5 564.5 c 128,-1,86
 336 558 336 558 332 551 c 0,87,88
 321 527 321 527 321 506 c 0,89,90
 321 482 321 482 328 461.5 c 128,-1,91
 335 441 335 441 350 421 c 0,92,93
 382 379 382 379 431 349 c 0,94,95
 448 339 448 339 466 330 c 128,-1,96
 484 321 484 321 503.5 314 c 128,-1,97
 523 307 523 307 544 302 c 0,98,99
 565 296 565 296 585 292.5 c 128,-1,100
 605 289 605 289 623.5 287 c 128,-1,101
 642 285 642 285 660 285 c 0,102,103
 672 285 672 285 686 286.5 c 128,-1,104
 700 288 700 288 716 292 c 0,105,106
 749 299 749 299 784 311 c 0,107,108
 818 323 818 323 849 341 c 0,109,110
 879 358 879 358 902 378 c 0,111,112
 913 388 913 388 921.5 397.5 c 128,-1,113
 930 407 930 407 936 418 c 0,114,47
 941 427 941 427 943.5 435.5 c 128,-1,48
1209 531 m 0,115,116
 1233 480 1233 480 1233 425 c 0,117,118
 1233 363 1233 363 1209 307 c 0,119,120
 1206 301 1206 301 1203.5 295 c 128,-1,121
 1201 289 1201 289 1198 283 c 128,-1,122
 1195 277 1195 277 1191.5 271.5 c 128,-1,123
 1188 266 1188 266 1184.5 260.5 c 128,-1,124
 1181 255 1181 255 1177.5 249.5 c 128,-1,125
 1174 244 1174 244 1170.5 238.5 c 128,-1,126
 1167 233 1167 233 1163 227.5 c 128,-1,127
 1159 222 1159 222 1154.5 216.5 c 128,-1,128
 1150 211 1150 211 1146 206 c 0,129,130
 1107 160 1107 160 1055 123 c 0,131,132
 1003 87 1003 87 940 61 c 0,133,134
 907 48 907 48 871 39 c 0,135,136
 836 28 836 28 801 21 c 0,137,138
 777 16 777 16 753.5 12.5 c 128,-1,139
 730 9 730 9 706.5 7.5 c 128,-1,140
 683 6 683 6 660 6 c 0,141,142
 602 6 602 6 543 14.5 c 128,-1,143
 484 23 484 23 426 41 c 0,144,145
 309 74 309 74 223 133 c 0,146,147
 140 194 140 194 88 280 c 0,148,149
 34 368 34 368 34 474 c 0,150,151
 34 511 34 511 38.5 543 c 128,-1,152
 43 575 43 575 53 603 c 0,153,154
 72 656 72 656 102 694 c 0,155,156
 117 713 117 713 134 729 c 128,-1,157
 151 745 151 745 171 759 c 0,158,159
 205 782 205 782 239 804 c 0,160,161
 255 814 255 814 270 825 c 0,162,163
 286 836 286 836 304 847 c 0,164,165
 317 855 317 855 328 866 c 1,166,167
 311 880 311 880 295 891 c 0,168,169
 262 917 262 917 233 941 c 0,170,171
 202 966 202 966 173 992 c 0,172,173
 142 1020 142 1020 119 1054 c 0,174,175
 106 1071 106 1071 96 1090.5 c 128,-1,176
 86 1110 86 1110 79 1131 c 0,177,178
 65 1174 65 1174 65 1227 c 0,179,180
 65 1315 65 1315 105 1388 c 0,181,182
 144 1460 144 1460 207 1510 c 0,183,184
 238 1535 238 1535 275 1554 c 0,185,186
 316 1573 316 1573 363 1587 c 0,187,188
 457 1616 457 1616 556 1616 c 0,189,190
 582 1616 582 1616 609 1614 c 128,-1,191
 636 1612 636 1612 662.5 1607.5 c 128,-1,192
 689 1603 689 1603 717 1597 c 0,193,194
 798 1579 798 1579 876 1547 c 128,-1,195
 954 1515 954 1515 1018 1471 c 0,196,197
 1078 1426 1078 1426 1124 1373 c 0,198,199
 1171 1318 1171 1318 1198 1256 c 0,200,201
 1226 1191 1226 1191 1226 1123 c 0,202,203
 1226 1090 1226 1090 1219.5 1059 c 128,-1,204
 1213 1028 1213 1028 1200 1000 c 0,205,206
 1187 973 1187 973 1170 949 c 128,-1,207
 1153 925 1153 925 1132 903 c 0,208,209
 1122 892 1122 892 1111.5 882 c 128,-1,210
 1101 872 1101 872 1089.5 862.5 c 128,-1,211
 1078 853 1078 853 1065.5 844 c 128,-1,212
 1053 835 1053 835 1041 827 c 0,213,214
 1013 809 1013 809 983 792 c 1,215,216
 992 783 992 783 1001 774 c 128,-1,217
 1010 765 1010 765 1022 755 c 0,218,219
 1037 741 1037 741 1053 725.5 c 128,-1,220
 1069 710 1069 710 1086 694 c 0,221,222
 1123 659 1123 659 1154 619 c 0,223,224
 1165 605 1165 605 1175 590.5 c 128,-1,225
 1185 576 1185 576 1193.5 561.5 c 128,-1,226
 1202 547 1202 547 1209 531 c 0,115,116
EndSplineSet
Validated: 1
EndChar

StartChar: nine
Encoding: 57 57 28
Width: 1409
GlyphClass: 2
Flags: W
LayerCount: 2
Fore
SplineSet
1044.5 905.5 m 128,-1,1
 1047 911 1047 911 1047 916 c 0,2,3
 1047 989 1047 989 1033 1057 c 0,4,5
 1028 1079 1028 1079 1021.5 1098.5 c 128,-1,6
 1015 1118 1015 1118 1006 1135.5 c 128,-1,7
 997 1153 997 1153 986 1170 c 0,8,9
 955 1215 955 1215 902 1242 c 0,10,11
 851 1268 851 1268 766 1268 c 2,12,-1
 707 1268 l 1,13,14
 682 1263 682 1263 656 1254.5 c 128,-1,15
 630 1246 630 1246 601 1234 c 0,16,17
 540 1208 540 1208 489 1173 c 0,18,19
 439 1138 439 1138 407 1097 c 0,20,21
 379 1061 379 1061 379 1024 c 0,22,23
 379 994 379 994 382.5 966 c 128,-1,24
 386 938 386 938 393 912 c 0,25,26
 398 895 398 895 404 880 c 128,-1,27
 410 865 410 865 418 852 c 128,-1,28
 426 839 426 839 436 827 c 0,29,30
 450 810 450 810 468 797 c 128,-1,31
 486 784 486 784 509 774 c 0,32,33
 531 764 531 764 560.5 759 c 128,-1,34
 590 754 590 754 627 754 c 0,35,36
 651 754 651 754 692 761 c 0,37,38
 736 768 736 768 786 781 c 0,39,40
 803 785 803 785 819.5 790.5 c 128,-1,41
 836 796 836 796 853 801.5 c 128,-1,42
 870 807 870 807 887 813 c 0,43,44
 936 831 936 831 975 852 c 0,45,46
 983 856 983 856 990 860 c 128,-1,47
 997 864 997 864 1003 868 c 128,-1,48
 1009 872 1009 872 1014.5 876 c 128,-1,49
 1020 880 1020 880 1024.5 884 c 128,-1,50
 1029 888 1029 888 1034 892 c 0,51,0
 1042 900 1042 900 1044.5 905.5 c 128,-1,1
1334 659 m 1,52,-1
 1334 656 l 2,53,54
 1328 613 1328 613 1316.5 571 c 128,-1,55
 1305 529 1305 529 1289 488.5 c 128,-1,56
 1273 448 1273 448 1253 409 c 0,57,58
 1191 292 1191 292 1095 203 c 1,59,60
 984 114 984 114 837 61 c 0,61,62
 763 34 763 34 681 21 c 0,63,64
 600 7 600 7 514 7 c 0,65,66
 493 7 493 7 463 5 c 0,67,68
 428 2 428 2 389 1 c 0,69,70
 379 1 379 1 369 1 c 0,71,72
 340 1 340 1 314 3 c 0,73,74
 301 4 301 4 289.5 5.5 c 128,-1,75
 278 7 278 7 266 10 c 128,-1,76
 254 13 254 13 244 17 c 0,77,78
 206 31 206 31 182 59 c 0,79,80
 154 91 154 91 154 141 c 0,81,82
 154 203 154 203 199 241 c 0,83,84
 240 276 240 276 295 276 c 0,85,86
 341 276 341 276 392 282 c 0,87,88
 451 288 451 288 514 288 c 128,-1,89
 577 288 577 288 641 300 c 0,90,91
 706 312 706 312 766 334 c 128,-1,92
 826 356 826 356 878 387 c 0,93,94
 904 402 904 402 926.5 419 c 128,-1,95
 949 436 949 436 967 454 c 0,96,97
 986 475 986 475 1001 498 c 0,98,99
 1016 523 1016 523 1026 550 c 0,100,101
 1028 556 1028 556 1030.5 561.5 c 128,-1,102
 1033 567 1033 567 1035 573 c 1,103,104
 1033 572 1033 572 1032.5 571.5 c 128,-1,105
 1032 571 1032 571 1031 571 c 0,106,107
 1000 556 1000 556 967.5 543.5 c 128,-1,108
 935 531 935 531 901 520 c 0,109,110
 834 499 834 499 765 486 c 0,111,112
 693 473 693 473 627 473 c 0,113,114
 484 473 484 473 376 520 c 1,115,116
 280 566 280 566 218 643 c 0,117,118
 198 668 198 668 181 696.5 c 128,-1,119
 164 725 164 725 151 755 c 128,-1,120
 138 785 138 785 128 818 c 0,121,122
 99 915 99 915 99 1021 c 0,123,124
 99 1091 99 1091 125 1158 c 0,125,126
 150 1223 150 1223 193 1281 c 0,127,128
 236 1338 236 1338 293 1387 c 0,129,130
 322 1411 322 1411 353 1433 c 0,131,132
 389 1454 389 1454 427 1472 c 0,133,134
 504 1508 504 1508 587 1527 c 0,135,136
 672 1549 672 1549 755 1549 c 0,137,138
 800 1549 800 1549 840.5 1545 c 128,-1,139
 881 1541 881 1541 919 1533.5 c 128,-1,140
 957 1526 957 1526 991 1514 c 0,141,142
 1041 1498 1041 1498 1085 1474 c 0,143,144
 1123 1451 1123 1451 1153 1422 c 0,145,146
 1213 1365 1213 1365 1250 1288 c 0,147,148
 1259 1269 1259 1269 1266.5 1250 c 128,-1,149
 1274 1231 1274 1231 1280.5 1211 c 128,-1,150
 1287 1191 1287 1191 1293 1170.5 c 128,-1,151
 1299 1150 1299 1150 1303 1129 c 0,152,153
 1312 1087 1312 1087 1318.5 1044 c 128,-1,154
 1325 1001 1325 1001 1328 955 c 0,155,156
 1331 911 1331 911 1332.5 867 c 128,-1,157
 1334 823 1334 823 1334 779 c 2,158,-1
 1334 662 l 1,159,-1
 1334 659 l 1,52,-1
EndSplineSet
Validated: 1
EndChar

StartChar: colon
Encoding: 58 58 29
Width: 481
GlyphClass: 2
Flags: W
LayerCount: 2
Fore
SplineSet
47 979 m 0,0,1
 47 1019 47 1019 63 1056 c 0,2,3
 78 1092 78 1092 104 1119 c 0,4,5
 131 1146 131 1146 167.5 1161.5 c 128,-1,6
 204 1177 204 1177 244 1177 c 0,7,8
 264 1177 264 1177 283.5 1173 c 128,-1,9
 303 1169 303 1169 321 1161 c 0,10,11
 333 1156 333 1156 344 1150 c 128,-1,12
 355 1144 355 1144 365 1136 c 128,-1,13
 375 1128 375 1128 384 1119 c 0,14,15
 411 1092 411 1092 426 1056 c 0,16,17
 442 1019 442 1019 442 979 c 0,18,19
 442 959 442 959 438 939.5 c 128,-1,20
 434 920 434 920 426 902 c 0,21,22
 418 884 418 884 407.5 868 c 128,-1,23
 397 852 397 852 384 839 c 0,24,25
 375 830 375 830 365 822.5 c 128,-1,26
 355 815 355 815 344 809 c 128,-1,27
 333 803 333 803 321 798 c 0,28,29
 284 782 284 782 244 782 c 0,30,31
 224 782 224 782 204.5 786 c 128,-1,32
 185 790 185 790 167 798 c 0,33,34
 131 813 131 813 104.5 839.5 c 128,-1,35
 78 866 78 866 63 902 c 0,36,37
 55 920 55 920 51 939.5 c 128,-1,38
 47 959 47 959 47 979 c 0,0,1
55 151 m 128,-1,40
 55 191 55 191 71 228 c 0,41,42
 86 264 86 264 112 291 c 0,43,44
 139 318 139 318 175.5 333.5 c 128,-1,45
 212 349 212 349 252 349 c 0,46,47
 272 349 272 349 291.5 345 c 128,-1,48
 311 341 311 341 329 333 c 0,49,50
 365 318 365 318 392 291 c 128,-1,51
 419 264 419 264 434 228 c 0,52,53
 450 191 450 191 450 151 c 0,54,55
 450 131 450 131 446 111.5 c 128,-1,56
 442 92 442 92 434 74 c 0,57,58
 418 38 418 38 392 11 c 0,59,60
 365 -15 365 -15 329 -30 c 0,61,62
 311 -38 311 -38 291.5 -42 c 128,-1,63
 272 -46 272 -46 252 -46 c 0,64,65
 212 -46 212 -46 175 -30 c 0,66,67
 139 -15 139 -15 112.5 11.5 c 128,-1,68
 86 38 86 38 71 74 c 0,69,39
 55 111 55 111 55 151 c 128,-1,40
EndSplineSet
Validated: 1
EndChar

StartChar: semicolon
Encoding: 59 59 30
Width: 513
GlyphClass: 2
Flags: W
LayerCount: 2
Fore
SplineSet
118 978 m 0,0,1
 118 1018 118 1018 134 1055 c 0,2,3
 138 1064 138 1064 142 1072 c 128,-1,4
 146 1080 146 1080 151.5 1088 c 128,-1,5
 157 1096 157 1096 162.5 1103.5 c 128,-1,6
 168 1111 168 1111 175 1118 c 0,7,8
 202 1145 202 1145 238.5 1160.5 c 128,-1,9
 275 1176 275 1176 315 1176 c 0,10,11
 325 1176 325 1176 335 1175 c 128,-1,12
 345 1174 345 1174 354.5 1172 c 128,-1,13
 364 1170 364 1170 373.5 1167 c 128,-1,14
 383 1164 383 1164 392 1160 c 0,15,16
 396 1158 396 1158 400.5 1156 c 128,-1,17
 405 1154 405 1154 409 1152 c 128,-1,18
 413 1150 413 1150 417.5 1147.5 c 128,-1,19
 422 1145 422 1145 426 1142.5 c 128,-1,20
 430 1140 430 1140 433.5 1137 c 128,-1,21
 437 1134 437 1134 441 1131 c 128,-1,22
 445 1128 445 1128 448.5 1124.5 c 128,-1,23
 452 1121 452 1121 455 1118 c 0,24,25
 482 1091 482 1091 497 1055 c 0,26,27
 513 1018 513 1018 513 978 c 0,28,29
 513 958 513 958 509 938.5 c 128,-1,30
 505 919 505 919 497 901 c 0,31,32
 493 892 493 892 488.5 883.5 c 128,-1,33
 484 875 484 875 479 867 c 128,-1,34
 474 859 474 859 467.5 852 c 128,-1,35
 461 845 461 845 455 838 c 0,36,37
 446 829 446 829 436 821.5 c 128,-1,38
 426 814 426 814 415 808 c 128,-1,39
 404 802 404 802 392 797 c 0,40,41
 355 781 355 781 315 781 c 0,42,43
 295 781 295 781 275.5 785 c 128,-1,44
 256 789 256 789 238 797 c 0,45,46
 202 812 202 812 175.5 838.5 c 128,-1,47
 149 865 149 865 134 901 c 0,48,49
 126 919 126 919 122 938.5 c 128,-1,50
 118 958 118 958 118 978 c 0,0,1
38 -151 m 0,51,52
 80 -103 80 -103 107 -57 c 0,53,54
 135 -11 135 -11 152 36 c 0,55,56
 158 52 158 52 163 68 c 128,-1,57
 168 84 168 84 172.5 100 c 128,-1,58
 177 116 177 116 180 133 c 0,59,60
 191 185 191 185 199 241 c 0,61,62
 207 295 207 295 251 326 c 0,63,64
 264 335 264 335 277.5 341 c 128,-1,65
 291 347 291 347 306 350 c 128,-1,66
 321 353 321 353 336 353 c 0,67,68
 382 353 382 353 416 333 c 0,69,70
 421 330 421 330 425.5 326.5 c 128,-1,71
 430 323 430 323 434 319.5 c 128,-1,72
 438 316 438 316 441.5 311.5 c 128,-1,73
 445 307 445 307 448.5 303 c 128,-1,74
 452 299 452 299 455 294.5 c 128,-1,75
 458 290 458 290 461 285 c 128,-1,76
 464 280 464 280 466 275 c 128,-1,77
 468 270 468 270 470 265 c 2,78,-1
 474 256 l 1,79,-1
 474 246 l 1,80,-1
 474 187 l 2,81,82
 474 151 474 151 466 100 c 0,83,84
 458 50 458 50 442 -5 c 0,85,86
 440 -11 440 -11 438 -17 c 128,-1,87
 436 -23 436 -23 434.5 -29 c 128,-1,88
 433 -35 433 -35 430.5 -41 c 128,-1,89
 428 -47 428 -47 426 -53 c 128,-1,90
 424 -59 424 -59 422 -65 c 128,-1,91
 420 -71 420 -71 417.5 -77 c 128,-1,92
 415 -83 415 -83 412.5 -89 c 128,-1,93
 410 -95 410 -95 407.5 -101 c 128,-1,94
 405 -107 405 -107 403 -113 c 0,95,96
 379 -168 379 -168 347 -213 c 0,97,98
 314 -261 314 -261 272 -291 c 0,99,100
 248 -308 248 -308 221 -316.5 c 128,-1,101
 194 -325 194 -325 166 -325 c 0,102,103
 150 -325 150 -325 134 -321 c 128,-1,104
 118 -317 118 -317 103 -310 c 0,105,106
 76 -297 76 -297 56 -277 c 0,107,108
 33 -255 33 -255 24 -229 c 0,109,110
 17 -211 17 -211 20.5 -188.5 c 128,-1,111
 24 -166 24 -166 38 -151 c 0,51,52
EndSplineSet
Validated: 1
EndChar

StartChar: less
Encoding: 60 60 31
Width: 1162
GlyphClass: 2
Flags: W
LayerCount: 2
Fore
SplineSet
114 663 m 0,0,1
 120 701 120 701 159 735 c 0,2,3
 174 748 174 748 191.5 760 c 128,-1,4
 209 772 209 772 230 785 c 0,5,6
 270 809 270 809 317 833 c 0,7,8
 363 856 363 856 405 877 c 0,9,10
 419 884 419 884 432 890.5 c 128,-1,11
 445 897 445 897 457 903 c 128,-1,12
 469 909 469 909 480 914 c 0,13,14
 508 928 508 928 519 937 c 2,15,-1
 898 1251 l 1,16,-1
 900 1253 l 1,17,-1
 903 1254 l 2,18,19
 917 1263 917 1263 936 1271 c 0,20,21
 958 1279 958 1279 979 1279 c 0,22,23
 1037 1279 1037 1279 1075 1239 c 0,24,25
 1111 1200 1111 1200 1111 1147 c 0,26,27
 1111 1128 1111 1128 1105.5 1108.5 c 128,-1,28
 1100 1089 1100 1089 1091 1071.5 c 128,-1,29
 1082 1054 1082 1054 1069 1036 c 0,30,31
 1051 1011 1051 1011 1029 986.5 c 128,-1,32
 1007 962 1007 962 980 937 c 0,33,34
 927 888 927 888 862 839 c 0,35,36
 798 791 798 791 735 748 c 0,37,38
 703 727 703 727 672.5 707.5 c 128,-1,39
 642 688 642 688 614 670 c 0,40,41
 611 668 611 668 608 666 c 128,-1,42
 605 664 605 664 602 662 c 128,-1,43
 599 660 599 660 596 658.5 c 128,-1,44
 593 657 593 657 590 655 c 128,-1,45
 587 653 587 653 585 651 c 1,46,47
 605 636 605 636 623.5 622.5 c 128,-1,48
 642 609 642 609 663 595 c 0,49,50
 682 582 682 582 700.5 568.5 c 128,-1,51
 719 555 719 555 737.5 541.5 c 128,-1,52
 756 528 756 528 774.5 514 c 128,-1,53
 793 500 793 500 812 486 c 0,54,55
 887 429 887 429 958 368 c 0,56,57
 1029 306 1029 306 1090 237 c 0,58,59
 1113 212 1113 212 1111 180 c 0,60,61
 1111 170 1111 170 1111 162 c 0,62,63
 1111 106 1111 106 1076 69 c 0,64,65
 1040 30 1040 30 979 30 c 0,66,67
 938 30 938 30 880 73 c 0,68,69
 857 90 857 90 831 111.5 c 128,-1,70
 805 133 805 133 776 159 c 0,71,72
 718 209 718 209 648 269 c 0,73,74
 580 328 580 328 506 382 c 0,75,76
 433 435 433 435 357 474 c 0,77,78
 284 512 284 512 213 524 c 0,79,80
 162 533 162 533 134 575 c 0,81,82
 121 594 121 594 116 617 c 128,-1,83
 111 640 111 640 114 663 c 0,0,1
EndSplineSet
Validated: 1
EndChar

StartChar: equal
Encoding: 61 61 32
Width: 1187
GlyphClass: 2
Flags: W
LayerCount: 2
Fore
SplineSet
1033 757 m 1,0,-1
 136 757 l 1,1,-1
 73 757 l 1,2,-1
 86 819 l 1,3,-1
 122 989 l 1,4,-1
 131 1029 l 1,5,-1
 172 1029 l 1,6,-1
 1069 1029 l 1,7,-1
 1132 1029 l 1,8,-1
 1119 967 l 1,9,-1
 1083 797 l 1,10,-1
 1074 757 l 1,11,-1
 1033 757 l 1,0,-1
1033 315 m 1,12,-1
 136 315 l 1,13,-1
 74 315 l 1,14,-1
 86 376 l 1,15,-1
 122 562 l 1,16,-1
 130 603 l 1,17,-1
 172 603 l 1,18,-1
 1069 603 l 1,19,-1
 1131 603 l 1,20,-1
 1119 542 l 1,21,-1
 1083 356 l 1,22,-1
 1075 315 l 1,23,-1
 1033 315 l 1,12,-1
EndSplineSet
Validated: 1
EndChar

StartChar: greater
Encoding: 62 62 33
Width: 1162
GlyphClass: 2
Flags: W
LayerCount: 2
Fore
SplineSet
1075 663 m 0,0,1
 1078 640 1078 640 1073 617 c 128,-1,2
 1068 594 1068 594 1055 575 c 0,3,4
 1027 533 1027 533 976 524 c 0,5,6
 905 512 905 512 832 474 c 0,7,8
 755 434 755 434 683 382 c 0,9,10
 646 355 646 355 610.5 327 c 128,-1,11
 575 299 575 299 541 269 c 0,12,13
 472 209 472 209 413 159 c 0,14,15
 383 133 383 133 357.5 111.5 c 128,-1,16
 332 90 332 90 309 73 c 0,17,18
 251 30 251 30 210 30 c 0,19,20
 149 30 149 30 113 69 c 0,21,22
 96 88 96 88 87 112 c 128,-1,23
 78 136 78 136 78 162 c 0,24,25
 78 170 78 170 78 180 c 0,26,27
 77 212 77 212 99 237 c 0,28,29
 114 255 114 255 130 271.5 c 128,-1,30
 146 288 146 288 162.5 304.5 c 128,-1,31
 179 321 179 321 196 336.5 c 128,-1,32
 213 352 213 352 231 368 c 0,33,34
 302 430 302 430 377 486 c 0,35,36
 452 542 452 542 526 595 c 0,37,38
 566 623 566 623 604 651 c 1,39,40
 590 660 590 660 575 670 c 0,41,42
 518 705 518 705 454 748 c 0,43,44
 390 791 390 791 327 839 c 0,45,46
 262 888 262 888 209 937 c 0,47,48
 155 987 155 987 120 1036 c 0,49,50
 78 1094 78 1094 78 1147 c 0,51,52
 78 1200 78 1200 114 1239 c 0,53,54
 152 1279 152 1279 210 1279 c 0,55,56
 231 1279 231 1279 253 1271 c 0,57,58
 272 1264 272 1264 286 1254 c 2,59,-1
 289 1253 l 1,60,-1
 291 1251 l 1,61,-1
 670 937 l 2,62,63
 681 929 681 929 709 914 c 0,64,65
 742 897 742 897 784 877 c 0,66,67
 826 856 826 856 872 833 c 0,68,69
 888 825 888 825 902.5 817 c 128,-1,70
 917 809 917 809 931 801 c 128,-1,71
 945 793 945 793 959 785 c 0,72,73
 1001 760 1001 760 1030 735 c 0,74,75
 1069 701 1069 701 1075 663 c 0,0,1
EndSplineSet
Validated: 1
EndChar

StartChar: question
Encoding: 63 63 34
Width: 968
GlyphClass: 2
Flags: W
LayerCount: 2
Fore
SplineSet
333 636 m 0,0,1
 333 650 333 650 335.5 663.5 c 128,-1,2
 338 677 338 677 343 689 c 0,3,4
 353 714 353 714 372 733 c 0,5,6
 377 738 377 738 382 742 c 128,-1,7
 387 746 387 746 392.5 749.5 c 128,-1,8
 398 753 398 753 404 756 c 128,-1,9
 410 759 410 759 416 762 c 0,10,11
 428 767 428 767 441.5 769.5 c 128,-1,12
 455 772 455 772 468 772 c 0,13,14
 498 772 498 772 528 767 c 0,15,16
 551 764 551 764 573 764 c 0,17,18
 596 764 596 764 612 769 c 128,-1,19
 628 774 628 774 639 783 c 0,20,21
 667 805 667 805 682 838 c 0,22,23
 699 877 699 877 705 924 c 0,24,25
 712 975 712 975 712 1020 c 0,26,27
 712 1047 712 1047 711 1080 c 0,28,29
 711 1088 711 1088 710 1096 c 128,-1,30
 709 1104 709 1104 708.5 1112.5 c 128,-1,31
 708 1121 708 1121 707 1129 c 128,-1,32
 706 1137 706 1137 704 1145 c 0,33,34
 700 1176 700 1176 691 1205 c 0,35,36
 687 1218 687 1218 681 1229.5 c 128,-1,37
 675 1241 675 1241 668 1250 c 0,38,39
 657 1266 657 1266 639 1276 c 0,40,41
 623 1285 623 1285 598 1285 c 0,42,43
 570 1285 570 1285 546.5 1280 c 128,-1,44
 523 1275 523 1275 502 1265 c 0,45,46
 479 1254 479 1254 458.5 1240 c 128,-1,47
 438 1226 438 1226 419 1209 c 0,48,49
 400 1191 400 1191 382.5 1172 c 128,-1,50
 365 1153 365 1153 350 1132 c 0,51,52
 316 1087 316 1087 285 1048 c 0,53,54
 277 1038 277 1038 269 1028.5 c 128,-1,55
 261 1019 261 1019 253.5 1010 c 128,-1,56
 246 1001 246 1001 238 993 c 128,-1,57
 230 985 230 985 222 978 c 0,58,59
 202 960 202 960 178.5 949.5 c 128,-1,60
 155 939 155 939 130 939 c 0,61,62
 75 939 75 939 35 980 c 0,63,64
 16 1000 16 1000 5.5 1025.5 c 128,-1,65
 -5 1051 -5 1051 -5 1079 c 0,66,67
 -5 1103 -5 1103 -1.5 1126 c 128,-1,68
 2 1149 2 1149 9 1172 c 128,-1,69
 16 1195 16 1195 26 1216 c 0,70,71
 56 1278 56 1278 105 1332 c 0,72,73
 115 1342 115 1342 125 1352.5 c 128,-1,74
 135 1363 135 1363 146 1373 c 128,-1,75
 157 1383 157 1383 168 1392 c 128,-1,76
 179 1401 179 1401 191 1410 c 128,-1,77
 203 1419 203 1419 215 1428 c 0,78,79
 276 1471 276 1471 342 1500.5 c 128,-1,80
 408 1530 408 1530 473 1547 c 0,81,82
 540 1564 540 1564 598 1564 c 0,83,84
 675 1564 675 1564 735 1540 c 128,-1,85
 795 1516 795 1516 840 1473 c 0,86,87
 884 1431 884 1431 914 1377 c 0,88,89
 943 1324 943 1324 960 1264 c 0,90,91
 977 1206 977 1206 984 1145 c 0,92,93
 991 1084 991 1084 991 1025 c 0,94,95
 991 977 991 977 986 930 c 128,-1,96
 981 883 981 883 970 836 c 0,97,98
 949 739 949 739 901 662 c 0,99,100
 851 582 851 582 770 534 c 0,101,102
 688 484 688 484 573 484 c 0,103,104
 559 484 559 484 544 484.5 c 128,-1,105
 529 485 529 485 512 487 c 0,106,107
 474 490 474 490 438 501 c 0,108,109
 396 514 396 514 367 544 c 0,110,111
 349 562 349 562 341 586 c 128,-1,112
 333 610 333 610 333 636 c 0,0,1
266 169 m 128,-1,114
 266 214 266 214 283 253 c 0,115,116
 291 272 291 272 303 289 c 128,-1,117
 315 306 315 306 329 320 c 0,118,119
 358 349 358 349 397 366 c 0,120,121
 417 375 417 375 438 379 c 128,-1,122
 459 383 459 383 481 383 c 0,123,124
 496 383 496 383 510.5 381 c 128,-1,125
 525 379 525 379 539 375 c 128,-1,126
 553 371 553 371 566 366 c 0,127,128
 579 360 579 360 590.5 353 c 128,-1,129
 602 346 602 346 612.5 337 c 128,-1,130
 623 328 623 328 632 318 c 0,131,132
 660 288 660 288 675 250 c 128,-1,133
 690 212 690 212 690 169 c 0,134,135
 690 148 690 148 686.5 127.5 c 128,-1,136
 683 107 683 107 675 88 c 0,137,138
 660 49 660 49 632 19 c 0,139,140
 604 -11 604 -11 566 -29 c 0,141,142
 527 -46 527 -46 481 -46 c 0,143,144
 436 -46 436 -46 397 -29 c 0,145,146
 358 -12 358 -12 329 17 c 128,-1,147
 300 46 300 46 283 85 c 0,148,113
 266 124 266 124 266 169 c 128,-1,114
EndSplineSet
Validated: 1
EndChar

StartChar: at
Encoding: 64 64 35
Width: 1945
GlyphClass: 2
Flags: W
LayerCount: 2
Fore
SplineSet
753 573 m 0,0,1
 753 556 753 556 754.5 538 c 128,-1,2
 756 520 756 520 758 502 c 0,3,4
 760 485 760 485 765 470.5 c 128,-1,5
 770 456 770 456 776 443 c 0,6,7
 787 421 787 421 807 406 c 0,8,9
 824 394 824 394 854 394 c 0,10,11
 881 394 881 394 903 398.5 c 128,-1,12
 925 403 925 403 942 411 c 0,13,14
 978 428 978 428 1002 457 c 0,15,16
 1028 488 1028 488 1044 528 c 0,17,18
 1061 572 1061 572 1070 620 c 0,19,20
 1075 645 1075 645 1078 669.5 c 128,-1,21
 1081 694 1081 694 1082 719 c 0,22,23
 1084 759 1084 759 1085 796 c 1,24,-1
 1054 796 l 2,25,26
 989 796 989 796 930 784 c 0,27,28
 876 773 876 773 835 748 c 0,29,30
 822 740 822 740 811.5 730.5 c 128,-1,31
 801 721 801 721 792 709 c 128,-1,32
 783 697 783 697 775 683 c 0,33,34
 764 663 764 663 758.5 635.5 c 128,-1,35
 753 608 753 608 753 573 c 0,0,1
77 586 m 0,36,37
 77 719 77 719 108 839.5 c 128,-1,38
 139 960 139 960 197 1063 c 0,39,40
 255 1166 255 1166 338 1247.5 c 128,-1,41
 421 1329 421 1329 524 1387 c 128,-1,42
 627 1445 627 1445 747 1475 c 0,43,44
 807 1490 807 1490 870.5 1498 c 128,-1,45
 934 1506 934 1506 1001 1506 c 0,46,47
 1144 1506 1144 1506 1263.5 1470 c 128,-1,48
 1383 1434 1383 1434 1480 1368.5 c 128,-1,49
 1577 1303 1577 1303 1650 1211 c 0,50,51
 1674 1181 1674 1181 1695.5 1148 c 128,-1,52
 1717 1115 1717 1115 1735.5 1081 c 128,-1,53
 1754 1047 1754 1047 1770 1010 c 0,54,55
 1794 956 1794 956 1811.5 898 c 128,-1,56
 1829 840 1829 840 1841 779 c 0,57,58
 1865 656 1865 656 1865 525 c 0,59,60
 1865 474 1865 474 1860 412 c 0,61,62
 1858 391 1858 391 1855.5 370 c 128,-1,63
 1853 349 1853 349 1849.5 328 c 128,-1,64
 1846 307 1846 307 1841 286 c 0,65,66
 1838 273 1838 273 1835.5 260.5 c 128,-1,67
 1833 248 1833 248 1829.5 235 c 128,-1,68
 1826 222 1826 222 1822 209.5 c 128,-1,69
 1818 197 1818 197 1813.5 185 c 128,-1,70
 1809 173 1809 173 1805 160 c 0,71,72
 1780 95 1780 95 1740 45 c 0,73,74
 1699 -8 1699 -8 1641 -40 c 0,75,76
 1581 -73 1581 -73 1501 -73 c 0,77,78
 1467 -73 1467 -73 1437.5 -68 c 128,-1,79
 1408 -63 1408 -63 1382 -53 c 0,80,81
 1357 -43 1357 -43 1335 -29.5 c 128,-1,82
 1313 -16 1313 -16 1295 0 c 0,83,84
 1260 32 1260 32 1235 74 c 0,85,86
 1213 112 1213 112 1196 152 c 0,87,88
 1180 190 1180 190 1165 229 c 0,89,90
 1164 230 1164 230 1163.5 231.5 c 128,-1,91
 1163 233 1163 233 1162.5 234.5 c 128,-1,92
 1162 236 1162 236 1161 237 c 1,93,94
 1160 236 l 0,95,96
 1129 210 1129 210 1094 187 c 0,97,98
 1076 175 1076 175 1058 165 c 128,-1,99
 1040 155 1040 155 1021 146 c 0,100,101
 978 127 978 127 936 127 c 2,102,-1
 771 127 l 2,103,104
 711 127 711 127 663 154 c 0,105,106
 654 159 654 159 646 164.5 c 128,-1,107
 638 170 638 170 630 176.5 c 128,-1,108
 622 183 622 183 614.5 190 c 128,-1,109
 607 197 607 197 600 204.5 c 128,-1,110
 593 212 593 212 587 220 c 0,111,112
 557 259 557 259 537 308 c 0,113,114
 532 319 532 319 528 330.5 c 128,-1,115
 524 342 524 342 520 354 c 128,-1,116
 516 366 516 366 513 377.5 c 128,-1,117
 510 389 510 389 507 401 c 0,118,119
 496 448 496 448 491 493 c 0,120,121
 486 537 486 537 486 573 c 2,122,-1
 486 673 l 1,123,-1
 486 678 l 1,124,-1
 487 682 l 2,125,126
 494 720 494 720 505.5 754.5 c 128,-1,127
 517 789 517 789 534 820 c 128,-1,128
 551 851 551 851 572 877 c 0,129,130
 634 953 634 953 721 996 c 0,131,132
 763 1017 763 1017 809 1032 c 128,-1,133
 855 1047 855 1047 905 1056 c 0,134,135
 1002 1072 1002 1072 1101 1072 c 0,136,137
 1120 1072 1120 1072 1153 1071 c 0,138,139
 1189 1070 1189 1070 1226 1064 c 0,140,141
 1267 1057 1267 1057 1300 1038 c 0,142,143
 1321 1026 1321 1026 1336.5 1007 c 128,-1,144
 1352 988 1352 988 1359 965 c 2,145,-1
 1361 958 l 1,146,-1
 1361 951 l 2,147,148
 1361 937 1361 937 1362 906 c 0,149,150
 1363 875 1363 875 1364.5 835.5 c 128,-1,151
 1366 796 1366 796 1368 753 c 128,-1,152
 1370 710 1370 710 1372 671 c 128,-1,153
 1374 632 1374 632 1375 600 c 0,154,155
 1376 584 1376 584 1376.5 573 c 128,-1,156
 1377 562 1377 562 1377.5 554 c 128,-1,157
 1378 546 1378 546 1379.5 533.5 c 128,-1,158
 1381 521 1381 521 1384 505 c 0,159,160
 1386 488 1386 488 1389.5 469.5 c 128,-1,161
 1393 451 1393 451 1397 431 c 0,162,163
 1406 391 1406 391 1420 348 c 0,164,165
 1433 308 1433 308 1450 275 c 0,166,167
 1465 246 1465 246 1483 229 c 0,168,169
 1489 223 1489 223 1493 221.5 c 128,-1,170
 1497 220 1497 220 1501 220 c 0,171,172
 1509 220 1509 220 1515 226 c 0,173,174
 1529 241 1529 241 1540 266 c 0,175,176
 1543 273 1543 273 1545.5 280.5 c 128,-1,177
 1548 288 1548 288 1551 296 c 128,-1,178
 1554 304 1554 304 1556 313 c 128,-1,179
 1558 322 1558 322 1560 331 c 0,180,181
 1568 370 1568 370 1573 405 c 0,182,183
 1577 442 1577 442 1579 472 c 0,184,185
 1580 503 1580 503 1580 517 c 0,186,187
 1580 663 1580 663 1543 792 c 0,188,189
 1507 918 1507 918 1435 1012 c 0,190,191
 1399 1058 1399 1058 1353.5 1094.5 c 128,-1,192
 1308 1131 1308 1131 1253 1159 c 0,193,194
 1144 1213 1144 1213 993 1213 c 0,195,196
 924 1213 924 1213 861 1201.5 c 128,-1,197
 798 1190 798 1190 740 1168 c 0,198,199
 717 1159 717 1159 695 1148 c 128,-1,200
 673 1137 673 1137 652.5 1125 c 128,-1,201
 632 1113 632 1113 613 1100 c 128,-1,202
 594 1087 594 1087 576 1072 c 128,-1,203
 558 1057 558 1057 541 1040 c 0,204,205
 457 958 457 958 410 845 c 0,206,207
 362 731 362 731 362 591 c 0,208,209
 362 532 362 532 371.5 476.5 c 128,-1,210
 381 421 381 421 401 369 c 0,211,212
 440 265 440 265 510 188 c 0,213,214
 580 111 580 111 678 66 c 0,215,216
 776 21 776 21 897 21 c 2,217,-1
 967 21 l 1,218,219
 991 33 991 33 1012 36 c 0,220,221
 1032 38 1032 38 1058 38 c 0,222,223
 1077 38 1077 38 1094 34.5 c 128,-1,224
 1111 31 1111 31 1128 22.5 c 128,-1,225
 1145 14 1145 14 1158 1 c 0,226,227
 1177 -18 1177 -18 1186.5 -43 c 128,-1,228
 1196 -68 1196 -68 1196 -96 c 0,229,230
 1196 -165 1196 -165 1154 -205 c 0,231,232
 1145 -214 1145 -214 1135 -221.5 c 128,-1,233
 1125 -229 1125 -229 1114 -235 c 128,-1,234
 1103 -241 1103 -241 1091.5 -246 c 128,-1,235
 1080 -251 1080 -251 1068 -255 c 0,236,237
 1023 -269 1023 -269 973 -271 c 0,238,239
 928 -273 928 -273 893 -273 c 0,240,241
 772 -273 772 -273 664 -241 c 0,242,243
 556 -210 556 -210 465 -153 c 0,244,245
 420 -125 420 -125 379 -91 c 128,-1,246
 338 -57 338 -57 302 -17 c 0,247,248
 230 62 230 62 180 158 c 0,249,250
 130 253 130 253 103.5 361.5 c 128,-1,251
 77 470 77 470 77 586 c 0,36,37
EndSplineSet
Validated: 1
EndChar

StartChar: A
Encoding: 65 65 36
Width: 1419
GlyphClass: 2
Flags: W
LayerCount: 2
Fore
SplineSet
425 969 m 0,0,1
 419 950 419 950 416 930 c 1,2,3
 428 930 428 930 441 929.5 c 128,-1,4
 454 929 454 929 469 929 c 0,5,6
 485 929 485 929 502.5 928.5 c 128,-1,7
 520 928 520 928 538.5 928 c 128,-1,8
 557 928 557 928 576 927 c 0,9,10
 634 927 634 927 688 927 c 0,11,12
 742 927 742 927 784 926 c 0,13,14
 798 926 798 926 808 926 c 128,-1,15
 818 926 818 926 826 926 c 128,-1,16
 834 926 834 926 839 926 c 0,17,18
 850 926 850 926 860.5 925.5 c 128,-1,19
 871 925 871 925 880.5 925 c 128,-1,20
 890 925 890 925 900 925 c 2,21,-1
 931 925 l 2,22,23
 946 925 946 925 960 925.5 c 128,-1,24
 974 926 974 926 987 926 c 128,-1,25
 1000 926 1000 926 1012 927 c 0,26,27
 1027 928 1027 928 1040 929 c 1,28,29
 1035 985 1035 985 1028 1038 c 0,30,31
 1020 1102 1020 1102 994 1150 c 0,32,33
 971 1193 971 1193 928 1218 c 0,34,35
 909 1229 909 1229 879 1235 c 128,-1,36
 849 1241 849 1241 807 1241 c 0,37,38
 749 1241 749 1241 698 1227 c 0,39,40
 646 1212 646 1212 603 1186 c 0,41,42
 592 1179 592 1179 581.5 1172.5 c 128,-1,43
 571 1166 571 1166 561.5 1158 c 128,-1,44
 552 1150 552 1150 542.5 1142 c 128,-1,45
 533 1134 533 1134 524 1125 c 0,46,47
 488 1089 488 1089 463 1049 c 0,48,49
 450 1029 450 1029 440.5 1009.5 c 128,-1,50
 431 990 431 990 425 969 c 0,0,1
1006 107 m 1,51,-1
 1006 169 l 2,52,53
 1006 243 1006 243 1013 317 c 0,54,55
 1020 389 1020 389 1028 462 c 0,56,57
 1036 534 1036 534 1043 605 c 0,58,59
 1045 627 1045 627 1046.5 649.5 c 128,-1,60
 1048 672 1048 672 1048 694 c 1,61,-1
 410 694 l 1,62,63
 402 559 402 559 375 424 c 0,64,65
 342 265 342 265 290 110 c 0,66,67
 283 90 283 90 271 70 c 0,68,69
 260 51 260 51 245 36 c 0,70,71
 228 19 228 19 208 8 c 0,72,73
 196 2 196 2 183.5 -1.5 c 128,-1,74
 171 -5 171 -5 158 -5 c 0,75,76
 125 -5 125 -5 98 13 c 0,77,78
 76 28 76 28 61 51 c 0,79,80
 47 70 47 70 39 93 c 128,-1,81
 31 116 31 116 31 140 c 2,82,-1
 31 161 l 1,83,-1
 31 167 l 1,84,-1
 32 172 l 2,85,86
 42 211 42 211 57 258 c 0,87,88
 71 303 71 303 83.5 351 c 128,-1,89
 96 399 96 399 107 445 c 0,90,91
 117 489 117 489 120 525 c 2,92,-1
 165 1008 l 2,93,94
 171 1070 171 1070 196 1131 c 0,95,96
 221 1191 221 1191 261 1246 c 0,97,98
 304 1300 304 1300 362 1348 c 0,99,100
 382 1364 382 1364 402.5 1378.5 c 128,-1,101
 423 1393 423 1393 445 1406 c 128,-1,102
 467 1419 467 1419 489 1431 c 0,103,104
 523 1449 523 1449 559 1463 c 0,105,106
 595 1478 595 1478 632 1489 c 0,107,108
 708 1512 708 1512 785 1512 c 0,109,110
 919 1512 919 1512 1017 1470 c 1,111,112
 1107 1466 1107 1466 1163 1458 c 1,113,114
 1218 1390 1218 1390 1249 1300 c 0,115,116
 1278 1215 1278 1215 1294 1122 c 0,117,118
 1309 1030 1309 1030 1312 937 c 0,119,120
 1314 891 1314 891 1315 848 c 128,-1,121
 1316 805 1316 805 1316 764 c 2,122,-1
 1316 632 l 1,123,-1
 1316 631 l 1,124,-1
 1316 630 l 2,125,126
 1315 610 1315 610 1312 569 c 0,127,128
 1309 528 1309 528 1305 478 c 0,129,130
 1303 453 1303 453 1300.5 426 c 128,-1,131
 1298 399 1298 399 1295 371 c 0,132,133
 1290 315 1290 315 1285 265 c 0,134,135
 1283 240 1283 240 1281 217 c 128,-1,136
 1279 194 1279 194 1277 173 c 0,137,138
 1273 134 1273 134 1272 115 c 2,139,-1
 1272 111 l 1,140,-1
 1271 107 l 2,141,142
 1262 65 1262 65 1228 34 c 0,143,144
 1192 0 1192 0 1143 0 c 0,145,146
 1100 0 1100 0 1064 25 c 0,147,148
 1024 50 1024 50 1008 91 c 2,149,-1
 1006 99 l 1,150,-1
 1006 107 l 1,51,-1
EndSplineSet
Validated: 1
EndChar

StartChar: B
Encoding: 66 66 37
Width: 1608
GlyphClass: 2
Flags: W
LayerCount: 2
Fore
SplineSet
750 1246 m 2,0,-1
 725 1246 l 1,1,2
 724 1236 724 1236 723.5 1225.5 c 128,-1,3
 723 1215 723 1215 722 1204 c 128,-1,4
 721 1193 721 1193 721 1181 c 0,5,6
 718 1143 718 1143 715 1101 c 0,7,8
 712 1058 712 1058 709 1019 c 0,9,10
 707 987 707 987 705 960 c 1,11,12
 730 965 730 965 761 973 c 0,13,14
 785 979 785 979 811.5 985.5 c 128,-1,15
 838 992 838 992 866 999 c 0,16,17
 923 1014 923 1014 982 1033 c 0,18,19
 1011 1042 1011 1042 1039 1052 c 128,-1,20
 1067 1062 1067 1062 1094 1072 c 0,21,22
 1120 1082 1120 1082 1143.5 1092.5 c 128,-1,23
 1167 1103 1167 1103 1187 1113 c 0,24,25
 1223 1132 1223 1132 1245 1151 c 0,26,27
 1254 1159 1254 1159 1255 1164 c 0,28,29
 1254 1184 1254 1184 1246 1194 c 0,30,31
 1239 1202 1239 1202 1229.5 1209 c 128,-1,32
 1220 1216 1220 1216 1205 1223 c 0,33,34
 1176 1237 1176 1237 1136 1243 c 0,35,36
 1089 1251 1089 1251 1040 1254 c 0,37,38
 1002 1257 1002 1257 966 1257 c 2,39,-1
 944 1257 l 2,40,41
 927 1257 927 1257 911.5 1256.5 c 128,-1,42
 896 1256 896 1256 882.5 1255 c 128,-1,43
 869 1254 869 1254 855 1254 c 0,44,45
 815 1252 815 1252 789 1249 c 0,46,47
 759 1246 759 1246 750 1246 c 2,0,-1
543 315 m 128,-1,49
 535 293 535 293 527 273 c 1,50,51
 530 273 530 273 531.5 273 c 128,-1,52
 533 273 533 273 536 272 c 0,53,54
 557 271 557 271 577 271 c 0,55,56
 587 271 587 271 594.5 271 c 128,-1,57
 602 271 602 271 607 271 c 0,58,59
 622 271 622 271 645.5 271 c 128,-1,60
 669 271 669 271 700 271 c 0,61,62
 730 271 730 271 763 273 c 128,-1,63
 796 275 796 275 832 277 c 0,64,65
 903 282 903 282 979 294 c 0,66,67
 1015 300 1015 300 1047 308 c 128,-1,68
 1079 316 1079 316 1108 327 c 0,69,70
 1126 334 1126 334 1141.5 342 c 128,-1,71
 1157 350 1157 350 1169.5 358.5 c 128,-1,72
 1182 367 1182 367 1193 377 c 0,73,74
 1198 382 1198 382 1202 387 c 128,-1,75
 1206 392 1206 392 1209 397.5 c 128,-1,76
 1212 403 1212 403 1214 409 c 128,-1,77
 1216 415 1216 415 1217 421.5 c 128,-1,78
 1218 428 1218 428 1218 436 c 0,79,80
 1218 445 1218 445 1217 454 c 128,-1,81
 1216 463 1216 463 1213.5 471.5 c 128,-1,82
 1211 480 1211 480 1208 488.5 c 128,-1,83
 1205 497 1205 497 1200 506 c 0,84,85
 1181 543 1181 543 1149 574 c 0,86,87
 1115 607 1115 607 1070 636 c 0,88,89
 1023 666 1023 666 974.5 690 c 128,-1,90
 926 714 926 714 879 731 c 0,91,92
 833 748 833 748 795 760 c 0,93,94
 787 762 787 762 778.5 764 c 128,-1,95
 770 766 770 766 761 768 c 128,-1,96
 752 770 752 770 742 772 c 0,97,98
 709 780 709 780 679 787 c 0,99,100
 671 789 671 789 662 790 c 1,101,102
 652 737 652 737 640 680 c 0,103,104
 624 601 624 601 603 520 c 0,105,106
 582 439 582 439 558 360 c 0,107,48
 551 337 551 337 543 315 c 128,-1,49
276 20 m 1,108,-1
 270 21 l 2,109,110
 221 35 221 35 203 77 c 0,111,112
 189 107 189 107 189 141 c 0,113,114
 189 158 189 158 192.5 176.5 c 128,-1,115
 196 195 196 195 203 215 c 0,116,117
 215 251 215 251 231 287 c 0,118,119
 247 322 247 322 263 354 c 0,120,121
 276 382 276 382 281 398 c 0,122,123
 317 503 317 503 345 614 c 0,124,125
 354 651 354 651 362 688 c 128,-1,126
 370 725 370 725 377 762.5 c 128,-1,127
 384 800 384 800 389 838 c 0,128,129
 398 895 398 895 404 952 c 128,-1,130
 410 1009 410 1009 414 1066 c 0,131,132
 415 1083 415 1083 416 1100.5 c 128,-1,133
 417 1118 417 1118 418 1135.5 c 128,-1,134
 419 1153 419 1153 419.5 1170 c 128,-1,135
 420 1187 420 1187 420.5 1204 c 128,-1,136
 421 1221 421 1221 421 1238 c 1,137,-1
 413 1237 l 2,138,139
 401 1235 401 1235 389 1233 c 128,-1,140
 377 1231 377 1231 365 1228.5 c 128,-1,141
 353 1226 353 1226 340 1224 c 0,142,143
 301 1216 301 1216 268 1210 c 0,144,145
 230 1203 230 1203 191 1203 c 0,146,147
 134 1203 134 1203 96 1236 c 0,148,149
 57 1270 57 1270 57 1324 c 0,150,151
 57 1384 57 1384 115 1423 c 0,152,153
 159 1451 159 1451 225 1468 c 0,154,155
 256 1477 256 1477 289 1483 c 0,156,157
 325 1489 325 1489 367 1494 c 0,158,159
 447 1502 447 1502 522 1505 c 0,160,161
 559 1507 559 1507 593 1507.5 c 128,-1,162
 627 1508 627 1508 658 1508 c 2,163,-1
 747 1508 l 2,164,165
 857 1508 857 1508 947.5 1501.5 c 128,-1,166
 1038 1495 1038 1495 1112 1482 c 0,167,168
 1186 1469 1186 1469 1245 1450 c 0,169,170
 1298 1433 1298 1433 1339 1409 c 0,171,172
 1360 1397 1360 1397 1377.5 1384.5 c 128,-1,173
 1395 1372 1395 1372 1410 1357 c 128,-1,174
 1425 1342 1425 1342 1437.5 1325.5 c 128,-1,175
 1450 1309 1450 1309 1459 1292 c 0,176,177
 1466 1279 1466 1279 1471 1265 c 128,-1,178
 1476 1251 1476 1251 1480 1237 c 128,-1,179
 1484 1223 1484 1223 1486.5 1208 c 128,-1,180
 1489 1193 1489 1193 1490.5 1178.5 c 128,-1,181
 1492 1164 1492 1164 1492 1149 c 0,182,183
 1492 1077 1492 1077 1452 1027 c 0,184,185
 1434 1004 1434 1004 1410.5 985 c 128,-1,186
 1387 966 1387 966 1359 951 c 0,187,188
 1333 937 1333 937 1303.5 925 c 128,-1,189
 1274 913 1274 913 1241 904 c 0,190,191
 1207 895 1207 895 1173 887 c 128,-1,192
 1139 879 1139 879 1105 872 c 0,193,194
 1094 870 1094 870 1083.5 867.5 c 128,-1,195
 1073 865 1073 865 1062.5 862.5 c 128,-1,196
 1052 860 1052 860 1042 858 c 128,-1,197
 1032 856 1032 856 1022 854 c 1,198,199
 1089 831 1089 831 1156 802 c 0,200,201
 1225 772 1225 772 1284 736 c 0,202,203
 1343 698 1343 698 1387 650 c 0,204,205
 1433 601 1433 601 1460 542 c 0,206,207
 1488 481 1488 481 1488 408 c 0,208,209
 1488 312 1488 312 1445 243 c 0,210,211
 1403 175 1403 175 1333 129 c 0,212,213
 1266 85 1266 85 1173 60 c 0,214,215
 1082 36 1082 36 986 23 c 0,216,217
 939 16 939 16 892.5 11.5 c 128,-1,218
 846 7 846 7 800 6 c 0,219,220
 710 2 710 2 638 2 c 0,221,222
 588 2 588 2 549 3 c 0,223,224
 529 4 529 4 509.5 4.5 c 128,-1,225
 490 5 490 5 470 7 c 0,226,227
 431 10 431 10 385.5 12.5 c 128,-1,228
 340 15 340 15 281 19 c 2,229,-1
 276 20 l 1,108,-1
EndSplineSet
Validated: 1
EndChar

StartChar: C
Encoding: 67 67 38
Width: 1634
GlyphClass: 2
Flags: W
LayerCount: 2
Fore
SplineSet
73 497 m 0,0,1
 57 597 57 597 57 701 c 0,2,3
 57 875 57 875 103 1021 c 0,4,5
 112 1051 112 1051 123.5 1079 c 128,-1,6
 135 1107 135 1107 148.5 1133.5 c 128,-1,7
 162 1160 162 1160 177 1185 c 128,-1,8
 192 1210 192 1210 209 1233.5 c 128,-1,9
 226 1257 226 1257 244 1279 c 0,10,11
 291 1334 291 1334 356 1376 c 0,12,13
 422 1419 422 1419 500 1449 c 0,14,15
 655 1509 655 1509 859 1509 c 0,16,17
 868 1509 868 1509 881.5 1508.5 c 128,-1,18
 895 1508 895 1508 914 1507 c 0,19,20
 951 1505 951 1505 999 1502 c 0,21,22
 1023 1500 1023 1500 1049 1498 c 128,-1,23
 1075 1496 1075 1496 1103 1493 c 0,24,25
 1160 1487 1160 1487 1217 1477 c 0,26,27
 1275 1467 1275 1467 1326 1453 c 0,28,29
 1376 1439 1376 1439 1416 1418 c 0,30,31
 1430 1411 1430 1411 1442 1403.5 c 128,-1,32
 1454 1396 1454 1396 1465.5 1386.5 c 128,-1,33
 1477 1377 1477 1377 1486 1367 c 0,34,35
 1502 1349 1502 1349 1511.5 1327 c 128,-1,36
 1521 1305 1521 1305 1521 1281 c 0,37,38
 1521 1220 1521 1220 1479 1185 c 0,39,40
 1441 1152 1441 1152 1387 1152 c 2,41,-1
 1361 1152 l 1,42,-1
 1353 1152 l 1,43,-1
 1344 1155 l 2,44,45
 1307 1168 1307 1168 1267 1178 c 0,46,47
 1226 1189 1226 1189 1185 1198.5 c 128,-1,48
 1144 1208 1144 1208 1103 1216 c 0,49,50
 984 1239 984 1239 859 1239 c 0,51,52
 812 1239 812 1239 770 1235 c 128,-1,53
 728 1231 728 1231 691 1223.5 c 128,-1,54
 654 1216 654 1216 621 1205 c 0,55,56
 588 1194 588 1194 559 1179.5 c 128,-1,57
 530 1165 530 1165 505.5 1148 c 128,-1,58
 481 1131 481 1131 460 1111 c 0,59,60
 428 1080 428 1080 403.5 1043 c 128,-1,61
 379 1006 379 1006 363 962 c 0,62,63
 330 872 330 872 330 761 c 0,64,65
 330 696 330 696 339 631 c 0,66,67
 348 567 348 567 370 508 c 0,68,69
 391 451 391 451 426 402 c 0,70,71
 443 378 443 378 463 358 c 128,-1,72
 483 338 483 338 507 320 c 0,73,74
 555 286 555 286 621 267 c 0,75,76
 654 257 654 257 692.5 252 c 128,-1,77
 731 247 731 247 775 247 c 0,78,79
 835 247 835 247 895.5 254.5 c 128,-1,80
 956 262 956 262 1016 277 c 0,81,82
 1137 307 1137 307 1242 361 c 0,83,84
 1246 363 1246 363 1250.5 365.5 c 128,-1,85
 1255 368 1255 368 1260 371.5 c 128,-1,86
 1265 375 1265 375 1271 379 c 0,87,88
 1291 393 1291 393 1311 407 c 0,89,90
 1315 410 1315 410 1320 413 c 128,-1,91
 1325 416 1325 416 1329.5 419 c 128,-1,92
 1334 422 1334 422 1339 424.5 c 128,-1,93
 1344 427 1344 427 1348.5 429.5 c 128,-1,94
 1353 432 1353 432 1358 435 c 0,95,96
 1373 442 1373 442 1388 445.5 c 128,-1,97
 1403 449 1403 449 1418 449 c 0,98,99
 1479 449 1479 449 1515 408 c 0,100,101
 1550 369 1550 369 1550 315 c 0,102,103
 1550 304 1550 304 1548.5 292.5 c 128,-1,104
 1547 281 1547 281 1543.5 270.5 c 128,-1,105
 1540 260 1540 260 1535 250 c 128,-1,106
 1530 240 1530 240 1524 230.5 c 128,-1,107
 1518 221 1518 221 1511 212 c 128,-1,108
 1504 203 1504 203 1495 195 c 0,109,110
 1450 151 1450 151 1381 116 c 0,111,112
 1315 82 1315 82 1226 56 c 0,113,114
 1139 31 1139 31 1053 13 c 0,115,116
 1010 4 1010 4 971 -2.5 c 128,-1,117
 932 -9 932 -9 895 -13 c 0,118,119
 858 -17 858 -17 829.5 -19.5 c 128,-1,120
 801 -22 801 -22 778 -22 c 0,121,122
 645 -22 645 -22 537 10 c 1,123,124
 428 15 428 15 344 24 c 0,125,126
 323 26 323 26 304 28 c 1,127,128
 286 44 286 44 269.5 61 c 128,-1,129
 253 78 253 78 238.5 96.5 c 128,-1,130
 224 115 224 115 210 135 c 0,131,132
 156 213 156 213 122 305 c 0,133,134
 89 396 89 396 73 497 c 0,0,1
EndSplineSet
Validated: 1
EndChar

StartChar: D
Encoding: 68 68 39
Width: 1616
GlyphClass: 2
Flags: W
LayerCount: 2
Fore
SplineSet
639 861 m 128,-1,1
 627 774 627 774 613 697 c 0,2,3
 600 636 600 636 585.5 576.5 c 128,-1,4
 571 517 571 517 553 458 c 0,5,6
 528 374 528 374 496 290 c 1,7,8
 509 290 509 290 521 290 c 0,9,10
 593 290 593 290 666 297 c 0,11,12
 775 307 775 307 874 335 c 0,13,14
 972 362 972 362 1054 405 c 0,15,16
 1094 426 1094 426 1128.5 451.5 c 128,-1,17
 1163 477 1163 477 1192 506 c 0,18,19
 1249 563 1249 563 1282 636 c 0,20,21
 1293 660 1293 660 1299.5 686 c 128,-1,22
 1306 712 1306 712 1310 740 c 128,-1,23
 1314 768 1314 768 1314 798 c 0,24,25
 1314 834 1314 834 1307 868 c 128,-1,26
 1300 902 1300 902 1287 936 c 0,27,28
 1260 1004 1260 1004 1212 1065 c 0,29,30
 1164 1127 1164 1127 1100 1178 c 0,31,32
 1035 1229 1035 1229 961 1266 c 0,33,34
 888 1303 888 1303 809 1323 c 0,35,36
 746 1339 746 1339 683 1342 c 1,37,38
 682 1312 682 1312 681 1281.5 c 128,-1,39
 680 1251 680 1251 678 1218 c 0,40,41
 672 1129 672 1129 661 1038 c 0,42,0
 651 948 651 948 639 861 c 128,-1,1
128 165 m 1,43,-1
 134 175 l 2,44,45
 157 217 157 217 176.5 260 c 128,-1,46
 196 303 196 303 213.5 347.5 c 128,-1,47
 231 392 231 392 246 438 c 0,48,49
 294 578 294 578 324 723 c 0,50,51
 339 796 339 796 349.5 869 c 128,-1,52
 360 942 360 942 366 1015 c 0,53,54
 369 1055 369 1055 371.5 1095 c 128,-1,55
 374 1135 374 1135 375.5 1174 c 128,-1,56
 377 1213 377 1213 377 1252 c 1,57,58
 375 1252 375 1252 374 1251.5 c 128,-1,59
 373 1251 373 1251 371 1250 c 0,60,61
 336 1243 336 1243 301 1234 c 0,62,63
 263 1224 263 1224 229 1217 c 0,64,65
 210 1213 210 1213 190 1210.5 c 128,-1,66
 170 1208 170 1208 150 1208 c 0,67,68
 123 1208 123 1208 99 1215.5 c 128,-1,69
 75 1223 75 1223 56 1239 c 0,70,71
 37 1256 37 1256 28 1279 c 128,-1,72
 19 1302 19 1302 19 1328 c 0,73,74
 19 1385 19 1385 60 1424 c 0,75,76
 94 1456 94 1456 148 1474 c 0,77,78
 195 1491 195 1491 253 1500 c 0,79,80
 272 1503 272 1503 292.5 1505 c 128,-1,81
 313 1507 313 1507 333 1508 c 128,-1,82
 353 1509 353 1509 373 1510 c 0,83,84
 419 1512 419 1512 462 1512 c 2,85,-1
 482 1512 l 2,86,87
 532 1512 532 1512 564 1511 c 0,88,89
 687 1511 687 1511 812 1486 c 0,90,91
 874 1473 874 1473 934 1455 c 1,92,93
 994 1456 994 1456 1052 1456.5 c 128,-1,94
 1110 1457 1110 1457 1164 1458 c 1,95,96
 1218 1428 1218 1428 1268 1393 c 0,97,98
 1367 1322 1367 1322 1436 1232 c 0,99,100
 1471 1186 1471 1186 1498 1135.5 c 128,-1,101
 1525 1085 1525 1085 1545 1031 c 0,102,103
 1585 920 1585 920 1585 794 c 0,104,105
 1585 644 1585 644 1536 525 c 0,106,107
 1520 486 1520 486 1499 450 c 128,-1,108
 1478 414 1478 414 1453.5 381 c 128,-1,109
 1429 348 1429 348 1400 318 c 0,110,111
 1312 230 1312 230 1185 169 c 0,112,113
 1123 139 1123 139 1055.5 115.5 c 128,-1,114
 988 92 988 92 917 74 c 0,115,116
 773 38 773 38 618 23 c 0,117,118
 491 11 491 11 363 11 c 0,119,120
 341 11 341 11 318 12 c 0,121,122
 309 10 309 10 302 8.5 c 128,-1,123
 295 7 295 7 287 7 c 0,124,125
 281 7 281 7 274 6.5 c 128,-1,126
 267 6 267 6 260 6 c 0,127,128
 202 6 202 6 165 43 c 0,129,130
 128 77 128 77 128 132 c 2,131,-1
 128 153 l 1,132,-1
 128 165 l 1,43,-1
EndSplineSet
Validated: 1
EndChar

StartChar: E
Encoding: 69 69 40
Width: 1439
GlyphClass: 2
Flags: W
LayerCount: 2
Fore
SplineSet
71 177 m 1,0,-1
 77 187 l 2,1,2
 113 250 113 250 135 317 c 0,3,4
 158 386 158 386 173 456 c 0,5,6
 181 492 181 492 188 528 c 128,-1,7
 195 564 195 564 201 600 c 0,8,9
 213 674 213 674 228 750 c 1,10,11
 239 826 239 826 249 906 c 0,12,13
 259 987 259 987 266.5 1068.5 c 128,-1,14
 274 1150 274 1150 279 1231 c 0,15,16
 283 1312 283 1312 283 1388 c 2,17,-1
 283 1395 l 1,18,-1
 285 1401 l 2,19,20
 292 1425 292 1425 307 1445 c 0,21,22
 322 1466 322 1466 348 1478 c 0,23,24
 362 1485 362 1485 377.5 1489 c 128,-1,25
 393 1493 393 1493 409 1495 c 128,-1,26
 425 1497 425 1497 442 1497 c 0,27,28
 533 1497 533 1497 623 1494 c 0,29,30
 645 1493 645 1493 667 1492.5 c 128,-1,31
 689 1492 689 1492 711 1491.5 c 128,-1,32
 733 1491 733 1491 755.5 1491 c 128,-1,33
 778 1491 778 1491 800 1491 c 0,34,35
 900 1491 900 1491 999.5 1496 c 128,-1,36
 1099 1501 1099 1501 1188 1501 c 0,37,38
 1236 1501 1236 1501 1274 1476 c 0,39,40
 1282 1471 1282 1471 1288.5 1464.5 c 128,-1,41
 1295 1458 1295 1458 1301 1451 c 0,42,43
 1312 1437 1312 1437 1317 1421 c 128,-1,44
 1322 1405 1322 1405 1322 1387 c 0,45,46
 1322 1359 1322 1359 1311 1334.5 c 128,-1,47
 1300 1310 1300 1310 1278 1293 c 0,48,49
 1243 1264 1243 1264 1190 1250 c 0,50,51
 1142 1235 1142 1235 1083 1233 c 0,52,53
 1059 1232 1059 1232 1032 1232 c 2,54,-1
 1008 1232 l 1,55,-1
 1006 1232 l 1,56,-1
 1005 1232 l 2,57,58
 983 1233 983 1233 963 1233 c 0,59,60
 947 1234 947 1234 933 1234 c 128,-1,61
 919 1234 919 1234 905.5 1234.5 c 128,-1,62
 892 1235 892 1235 879.5 1236 c 128,-1,63
 867 1237 867 1237 854 1238 c 0,64,65
 831 1239 831 1239 814 1239.5 c 128,-1,66
 797 1240 797 1240 786 1240 c 0,67,68
 765 1240 765 1240 743.5 1240.5 c 128,-1,69
 722 1241 722 1241 700 1241.5 c 128,-1,70
 678 1242 678 1242 656 1243 c 0,71,72
 617 1245 617 1245 578 1245 c 1,73,-1
 546 896 l 1,74,75
 562 897 562 897 578 898 c 0,76,77
 626 901 626 901 674 905 c 0,78,79
 724 909 724 909 773 913 c 0,80,81
 798 915 798 915 824 915.5 c 128,-1,82
 850 916 850 916 876 916 c 0,83,84
 906 916 906 916 933 911 c 0,85,86
 943 909 943 909 953 906.5 c 128,-1,87
 963 904 963 904 972 900 c 128,-1,88
 981 896 981 896 990 892 c 0,89,90
 1018 877 1018 877 1035 853 c 0,91,92
 1052 828 1052 828 1052 795 c 0,93,94
 1052 737 1052 737 997 703 c 0,95,96
 952 676 952 676 894 673 c 2,97,-1
 503 649 l 1,98,99
 494 609 494 609 487 568 c 0,100,101
 485 556 485 556 483 544.5 c 128,-1,102
 481 533 481 533 478.5 521 c 128,-1,103
 476 509 476 509 474 497.5 c 128,-1,104
 472 486 472 486 469.5 474 c 128,-1,105
 467 462 467 462 464 450 c 0,106,107
 451 391 451 391 433 332 c 0,108,109
 428 316 428 316 422.5 300 c 128,-1,110
 417 284 417 284 410 269 c 1,111,112
 419 269 419 269 429 268 c 0,113,114
 452 268 452 268 475 267 c 0,115,116
 496 267 496 267 508 267 c 0,117,118
 587 267 587 267 659 271 c 0,119,120
 733 275 733 275 807 279 c 0,121,122
 881 284 881 284 956 288 c 0,123,124
 1033 292 1033 292 1110 292 c 0,125,126
 1172 292 1172 292 1207 250 c 0,127,128
 1239 212 1239 212 1239 158 c 0,129,130
 1239 107 1239 107 1207 70 c 0,131,132
 1174 33 1174 33 1118 29 c 2,133,-1
 785 7 l 1,134,-1
 782 7 l 1,135,-1
 780 7 l 1,136,-1
 234 7 l 2,137,138
 204 7 204 7 177 15 c 0,139,140
 147 24 147 24 124 42 c 0,141,142
 100 60 100 60 86 85 c 0,143,144
 71 112 71 112 71 145 c 2,145,-1
 71 165 l 1,146,-1
 71 177 l 1,0,-1
EndSplineSet
Validated: 1
EndChar

StartChar: F
Encoding: 70 70 41
Width: 1395
GlyphClass: 2
Flags: W
LayerCount: 2
Fore
SplineSet
57 63 m 1,0,-1
 63 74 l 2,1,2
 98 140 98 140 114 210 c 0,3,4
 131 284 131 284 141 360 c 0,5,6
 151 437 151 437 158 517 c 0,7,8
 165 599 165 599 180 681 c 1,9,10
 191 763 191 763 201 852 c 0,11,12
 211 941 211 941 218.5 1032.5 c 128,-1,13
 226 1124 226 1124 231 1214 c 0,14,15
 235 1303 235 1303 235 1386 c 2,16,-1
 235 1393 l 1,17,-1
 237 1401 l 2,18,19
 254 1457 254 1457 296 1480 c 0,20,21
 316 1490 316 1490 339.5 1494.5 c 128,-1,22
 363 1499 363 1499 388 1499 c 0,23,24
 433 1499 433 1499 484 1498 c 0,25,26
 534 1497 534 1497 585.5 1496 c 128,-1,27
 637 1495 637 1495 687 1494 c 0,28,29
 736 1493 736 1493 780 1493 c 0,30,31
 829 1493 829 1493 891 1495 c 0,32,33
 954 1497 954 1497 1020 1501 c 0,34,35
 1086 1505 1086 1505 1150 1507 c 0,36,37
 1179 1508 1179 1508 1204 1509 c 128,-1,38
 1229 1510 1229 1510 1252 1510 c 0,39,40
 1269 1510 1269 1510 1284.5 1506.5 c 128,-1,41
 1300 1503 1300 1503 1315 1496 c 128,-1,42
 1330 1489 1330 1489 1343 1479 c 0,43,44
 1364 1462 1364 1462 1375.5 1437 c 128,-1,45
 1387 1412 1387 1412 1387 1384 c 0,46,47
 1387 1360 1387 1360 1379 1337.5 c 128,-1,48
 1371 1315 1371 1315 1355 1298 c 0,49,50
 1350 1293 1350 1293 1345.5 1288 c 128,-1,51
 1341 1283 1341 1283 1335.5 1278.5 c 128,-1,52
 1330 1274 1330 1274 1324 1270 c 128,-1,53
 1318 1266 1318 1266 1312 1262.5 c 128,-1,54
 1306 1259 1306 1259 1299.5 1255.5 c 128,-1,55
 1293 1252 1293 1252 1287 1250 c 0,56,57
 1250 1234 1250 1234 1202 1226 c 0,58,59
 1158 1219 1158 1219 1105 1216 c 0,60,61
 1067 1214 1067 1214 1028 1214 c 2,62,-1
 999 1214 l 2,63,64
 990 1214 990 1214 981 1214.5 c 128,-1,65
 972 1215 972 1215 963.5 1215 c 128,-1,66
 955 1215 955 1215 947 1215.5 c 128,-1,67
 939 1216 939 1216 931 1216 c 128,-1,68
 923 1216 923 1216 915 1216.5 c 128,-1,69
 907 1217 907 1217 899 1217 c 0,70,71
 876 1218 876 1218 855.5 1219 c 128,-1,72
 835 1220 835 1220 817 1221 c 0,73,74
 784 1223 784 1223 768 1223 c 0,75,76
 752 1223 752 1223 734.5 1223.5 c 128,-1,77
 717 1224 717 1224 697 1224 c 0,78,79
 659 1225 659 1225 620 1226 c 128,-1,80
 581 1227 581 1227 544 1228 c 0,81,82
 533 1228 533 1228 522 1229 c 1,83,-1
 492 899 l 1,84,-1
 523 899 l 2,85,86
 552 899 552 899 588 900 c 0,87,88
 624 901 624 901 661 904 c 0,89,90
 674 905 674 905 686.5 906 c 128,-1,91
 699 907 699 907 711.5 907.5 c 128,-1,92
 724 908 724 908 736 908 c 0,93,94
 774 910 774 910 805 910 c 0,95,96
 873 910 873 910 914 879 c 0,97,98
 959 846 959 846 959 785 c 0,99,100
 959 761 959 761 948.5 738.5 c 128,-1,101
 938 716 938 716 917 700 c 0,102,103
 901 688 901 688 881.5 679 c 128,-1,104
 862 670 862 670 840 665 c 0,105,106
 800 655 800 655 757 653 c 0,107,108
 738 652 738 652 722.5 651.5 c 128,-1,109
 707 651 707 651 691 650 c 0,110,111
 681 650 681 650 660 650 c 0,112,113
 653 650 653 650 645 649.5 c 128,-1,114
 637 649 637 649 628 649 c 128,-1,115
 619 649 619 649 609 649 c 0,116,117
 595 649 595 649 580.5 648.5 c 128,-1,118
 566 648 566 648 550 647 c 0,119,120
 534 647 534 647 518.5 646.5 c 128,-1,121
 503 646 503 646 489 646 c 0,122,123
 484 646 484 646 479 646 c 128,-1,124
 474 646 474 646 469 646 c 128,-1,125
 464 646 464 646 460 645.5 c 128,-1,126
 456 645 456 645 452 645 c 0,127,128
 450 637 450 637 447.5 629.5 c 128,-1,129
 445 622 445 622 443 613.5 c 128,-1,130
 441 605 441 605 438 596 c 0,131,132
 436 589 436 589 434 581 c 128,-1,133
 432 573 432 573 429.5 565.5 c 128,-1,134
 427 558 427 558 425 550 c 128,-1,135
 423 542 423 542 420 534 c 0,136,137
 410 503 410 503 403 475 c 0,138,139
 395 446 395 446 388 423 c 0,140,141
 381 400 381 400 377 389 c 0,142,143
 373 375 373 375 371 347 c 0,144,145
 368 313 368 313 362 274 c 0,146,147
 361 268 361 268 360.5 262 c 128,-1,148
 360 256 360 256 359 250.5 c 128,-1,149
 358 245 358 245 357 239 c 128,-1,150
 356 233 356 233 355 227.5 c 128,-1,151
 354 222 354 222 353 216 c 128,-1,152
 352 210 352 210 351 204 c 128,-1,153
 350 198 350 198 349 192 c 0,154,155
 340 147 340 147 323 110 c 0,156,157
 304 68 304 68 276 40 c 0,158,159
 240 2 240 2 187 2 c 0,160,161
 131 2 131 2 94 37 c 1,162,163
 57 34 57 34 57 28 c 2,164,-1
 57 50 l 1,165,-1
 57 63 l 1,0,-1
EndSplineSet
Validated: 1
EndChar

StartChar: G
Encoding: 71 71 42
Width: 1533
GlyphClass: 2
Flags: W
LayerCount: 2
Fore
SplineSet
49 708.5 m 128,-1,1
 47 761 47 761 47 815 c 0,2,3
 47 981 47 981 102 1106 c 0,4,5
 158 1232 158 1232 256 1318 c 1,6,7
 361 1403 361 1403 510 1450 c 0,8,9
 655 1499 655 1499 823 1512 c 0,10,11
 829 1513 829 1513 834.5 1513 c 128,-1,12
 840 1513 840 1513 845.5 1513.5 c 128,-1,13
 851 1514 851 1514 856 1514 c 128,-1,14
 861 1514 861 1514 868 1514 c 0,15,16
 881 1514 881 1514 895 1513.5 c 128,-1,17
 909 1513 909 1513 923 1512 c 0,18,19
 943 1511 943 1511 963.5 1509 c 128,-1,20
 984 1507 984 1507 1004.5 1504.5 c 128,-1,21
 1025 1502 1025 1502 1048 1499 c 0,22,23
 1115 1490 1115 1490 1185 1473 c 0,24,25
 1253 1456 1253 1456 1305 1430 c 0,26,27
 1362 1402 1362 1402 1398 1361 c 0,28,29
 1419 1338 1419 1338 1430.5 1309.5 c 128,-1,30
 1442 1281 1442 1281 1442 1250 c 0,31,32
 1442 1236 1442 1236 1439.5 1223.5 c 128,-1,33
 1437 1211 1437 1211 1432.5 1198.5 c 128,-1,34
 1428 1186 1428 1186 1420.5 1174.5 c 128,-1,35
 1413 1163 1413 1163 1403 1154 c 0,36,37
 1385 1137 1385 1137 1362 1128 c 128,-1,38
 1339 1119 1339 1119 1314 1119 c 2,39,-1
 1289 1119 l 1,40,-1
 1280 1119 l 1,41,-1
 1271 1122 l 2,42,43
 1237 1135 1237 1135 1207 1148 c 0,44,45
 1174 1161 1174 1161 1145 1173 c 0,46,47
 1119 1185 1119 1185 1093.5 1195 c 128,-1,48
 1068 1205 1068 1205 1044 1214 c 0,49,50
 998 1230 998 1230 948 1237 c 0,51,52
 926 1240 926 1240 898 1240 c 2,53,-1
 885 1240 l 2,54,55
 859 1240 859 1240 828 1238 c 0,56,57
 723 1230 723 1230 627 1202 c 0,58,59
 533 1174 533 1174 461 1123 c 0,60,61
 390 1072 390 1072 347 996 c 128,-1,62
 304 920 304 920 304 813 c 0,63,64
 304 786 304 786 304.5 759 c 128,-1,65
 305 732 305 732 306 706 c 128,-1,66
 307 680 307 680 308 655 c 0,67,68
 312 580 312 580 325 515 c 0,69,70
 338 452 338 452 363 400 c 0,71,72
 386 352 386 352 426 318 c 0,73,74
 464 285 464 285 520 267 c 0,75,76
 578 248 578 248 664 248 c 0,77,78
 678 248 678 248 725 255 c 0,79,80
 749 259 749 259 777.5 264 c 128,-1,81
 806 269 806 269 838 276 c 0,82,83
 902 290 902 290 973 308 c 0,84,85
 1008 317 1008 317 1039 327 c 128,-1,86
 1070 337 1070 337 1098 347 c 0,87,88
 1152 367 1152 367 1186 389 c 0,89,90
 1189 391 1189 391 1191.5 393 c 128,-1,91
 1194 395 1194 395 1196 397 c 128,-1,92
 1198 399 1198 399 1199 400 c 128,-1,93
 1200 401 1200 401 1201 402 c 2,94,-1
 1201 650 l 1,95,96
 1167 653 1167 653 1130 657 c 0,97,98
 1092 661 1092 661 1058 665 c 0,99,100
 1025 668 1025 668 1011 669 c 2,101,-1
 1010 669 l 1,102,-1
 1009 669 l 2,103,104
 983 672 983 672 949 678 c 0,105,106
 911 685 911 685 876 698 c 0,107,108
 835 714 835 714 807 743 c 0,109,110
 774 778 774 778 773 830 c 0,111,112
 773 836 773 836 774 842.5 c 128,-1,113
 775 849 775 849 776 855 c 128,-1,114
 777 861 777 861 778.5 867 c 128,-1,115
 780 873 780 873 783 879 c 0,116,117
 793 903 793 903 810 922 c 0,118,119
 828 941 828 941 853 953 c 0,120,121
 881 967 881 967 914 967 c 2,122,-1
 921 967 l 1,123,-1
 925 967 l 1,124,-1
 930 966 l 2,125,126
 932 966 932 966 935 965.5 c 128,-1,127
 938 965 938 965 941.5 964.5 c 128,-1,128
 945 964 945 964 949 963 c 128,-1,129
 953 962 953 962 958 961 c 0,130,131
 967 959 967 959 976.5 957.5 c 128,-1,132
 986 956 986 956 996 954 c 128,-1,133
 1006 952 1006 952 1015.5 950 c 128,-1,134
 1025 948 1025 948 1034 946 c 0,135,136
 1038 945 1038 945 1042.5 944.5 c 128,-1,137
 1047 944 1047 944 1049.5 943.5 c 128,-1,138
 1052 943 1052 943 1054 943 c 2,139,-1
 1348 919 l 2,140,141
 1353 918 1353 918 1358 917 c 128,-1,142
 1363 916 1363 916 1367.5 914.5 c 128,-1,143
 1372 913 1372 913 1375.5 912 c 128,-1,144
 1379 911 1379 911 1383 908 c 0,145,146
 1387 906 1387 906 1391.5 904 c 128,-1,147
 1396 902 1396 902 1400 899.5 c 128,-1,148
 1404 897 1404 897 1407.5 894.5 c 128,-1,149
 1411 892 1411 892 1415 889 c 0,150,151
 1420 885 1420 885 1425 880 c 128,-1,152
 1430 875 1430 875 1434.5 869.5 c 128,-1,153
 1439 864 1439 864 1442 859 c 0,154,155
 1449 848 1449 848 1453.5 835 c 128,-1,156
 1458 822 1458 822 1458 809 c 2,157,-1
 1458 149 l 2,158,159
 1458 119 1458 119 1440 95 c 0,160,161
 1427 77 1427 77 1409 64 c 0,162,163
 1393 53 1393 53 1374 47 c 0,164,165
 1368 45 1368 45 1362 43 c 128,-1,166
 1356 41 1356 41 1349 40 c 128,-1,167
 1342 39 1342 39 1335 39 c 0,168,169
 1306 39 1306 39 1282 51 c 0,170,171
 1260 62 1260 62 1245 79 c 2,172,-1
 1232 96 l 1,173,174
 1193 77 1193 77 1146 60 c 0,175,176
 1067 32 1067 32 982.5 13 c 128,-1,177
 898 -6 898 -6 815 -16 c 0,178,179
 731 -26 731 -26 661 -26 c 0,180,181
 528 -26 528 -26 427 8 c 0,182,183
 376 25 376 25 332 50 c 0,184,185
 288 73 288 73 256 102 c 0,186,187
 191 160 191 160 150 241 c 0,188,189
 110 319 110 319 87 411 c 0,190,191
 65 502 65 502 56 606 c 0,192,0
 51 656 51 656 49 708.5 c 128,-1,1
EndSplineSet
Validated: 1
EndChar

StartChar: H
Encoding: 72 72 43
Width: 1529
GlyphClass: 2
Flags: W
LayerCount: 2
Fore
SplineSet
128 50 m 1,0,1
 112 41 112 41 112 28 c 1,2,3
 112 45 112 45 114 62 c 128,-1,4
 116 79 116 79 121 96 c 0,5,6
 129 126 129 126 139 154 c 0,7,8
 149 179 149 179 158 205 c 0,9,10
 166 228 166 228 172 253 c 0,11,12
 182 302 182 302 189 346 c 128,-1,13
 196 390 196 390 201 431 c 0,14,15
 210 513 210 513 215 590 c 0,16,17
 219 667 219 667 221 742 c 0,18,19
 222 768 222 768 223 794 c 128,-1,20
 224 820 224 820 225 847 c 128,-1,21
 226 874 226 874 228 902 c 2,22,-1
 256 1388 l 2,23,24
 258 1417 258 1417 275 1440 c 0,25,26
 289 1459 289 1459 310 1471 c 0,27,28
 319 1476 319 1476 328.5 1480 c 128,-1,29
 338 1484 338 1484 348 1487 c 0,30,31
 358 1490 358 1490 368.5 1491 c 128,-1,32
 379 1492 379 1492 390 1492 c 0,33,34
 439 1492 439 1492 478 1470 c 0,35,36
 520 1448 520 1448 537 1406 c 2,37,-1
 540 1399 l 1,38,-1
 540 1392 l 1,39,-1
 540 1298 l 2,40,41
 540 1283 540 1283 540 1269 c 128,-1,42
 540 1255 540 1255 539.5 1242 c 128,-1,43
 539 1229 539 1229 539 1216 c 128,-1,44
 539 1203 539 1203 538 1191 c 0,45,46
 536 1143 536 1143 532.5 1095 c 128,-1,47
 529 1047 529 1047 523 993 c 0,48,49
 522 984 522 984 521 974.5 c 128,-1,50
 520 965 520 965 518.5 955.5 c 128,-1,51
 517 946 517 946 516 935.5 c 128,-1,52
 515 925 515 925 513 915 c 0,53,54
 512 904 512 904 510 892 c 1,55,56
 537 892 537 892 564.5 892.5 c 128,-1,57
 592 893 592 893 621 894 c 0,58,59
 711 896 711 896 802 898 c 0,60,61
 848 899 848 899 893.5 900.5 c 128,-1,62
 939 902 939 902 985 903 c 2,63,-1
 1040 903 l 1,64,-1
 1092 903 l 1,65,-1
 1113 903 l 1,66,67
 1115 921 1115 921 1117 946 c 0,68,69
 1120 978 1120 978 1123.5 1017 c 128,-1,70
 1127 1056 1127 1056 1130.5 1095.5 c 128,-1,71
 1134 1135 1134 1135 1136 1171 c 0,72,73
 1139 1206 1139 1206 1140 1231 c 0,74,75
 1141 1238 1141 1238 1141.5 1248.5 c 128,-1,76
 1142 1259 1142 1259 1143 1275 c 0,77,78
 1144 1291 1144 1291 1144 1308.5 c 128,-1,79
 1144 1326 1144 1326 1144.5 1344.5 c 128,-1,80
 1145 1363 1145 1363 1145.5 1380 c 128,-1,81
 1146 1397 1146 1397 1147 1413 c 0,82,83
 1148 1445 1148 1445 1147 1458 c 1,84,-1
 1147 1458 l 2,85,86
 1150 1453 1150 1453 1185 1449 c 1,87,88
 1197 1463 1197 1463 1213 1473 c 128,-1,89
 1229 1483 1229 1483 1246.5 1487.5 c 128,-1,90
 1264 1492 1264 1492 1283 1492 c 0,91,92
 1307 1492 1307 1492 1329.5 1484.5 c 128,-1,93
 1352 1477 1352 1477 1369 1462 c 0,94,95
 1373 1458 1373 1458 1377 1454 c 128,-1,96
 1381 1450 1381 1450 1385 1445.5 c 128,-1,97
 1389 1441 1389 1441 1392 1437 c 0,98,99
 1395 1433 1395 1433 1398 1428 c 128,-1,100
 1401 1423 1401 1423 1403 1418.5 c 128,-1,101
 1405 1414 1405 1414 1407.5 1409 c 128,-1,102
 1410 1404 1410 1404 1411.5 1399 c 128,-1,103
 1413 1394 1413 1394 1414 1389 c 2,104,-1
 1416 1383 l 1,105,-1
 1416 1377 l 1,106,-1
 1416 1309 l 2,107,108
 1416 1289 1416 1289 1414 1242 c 0,109,110
 1412 1195 1412 1195 1407 1129 c 0,111,112
 1405 1107 1405 1107 1403.5 1083 c 128,-1,113
 1402 1059 1402 1059 1400.5 1033.5 c 128,-1,114
 1399 1008 1399 1008 1396.5 981 c 128,-1,115
 1394 954 1394 954 1391.5 926 c 128,-1,116
 1389 898 1389 898 1386.5 869 c 128,-1,117
 1384 840 1384 840 1381 811 c 0,118,119
 1372 722 1372 722 1360 630 c 0,120,121
 1358 612 1358 612 1355.5 594 c 128,-1,122
 1353 576 1353 576 1350.5 558 c 128,-1,123
 1348 540 1348 540 1345 522.5 c 128,-1,124
 1342 505 1342 505 1339.5 487.5 c 128,-1,125
 1337 470 1337 470 1334 453 c 0,126,127
 1319 367 1319 367 1301 291 c 0,128,129
 1283 214 1283 214 1262 157 c 0,130,131
 1251 127 1251 127 1238.5 102 c 128,-1,132
 1226 77 1226 77 1212 58 c 0,133,134
 1199 40 1199 40 1183 27 c 0,135,136
 1167 13 1167 13 1144 7 c 0,137,138
 1136 5 1136 5 1128 4 c 128,-1,139
 1120 3 1120 3 1112 3 c 0,140,141
 1052 3 1052 3 1008 35 c 1,142,143
 960 32 960 32 960 28 c 1,144,145
 960 55 960 55 967 105 c 0,146,147
 971 129 971 129 975 155.5 c 128,-1,148
 979 182 979 182 985 211 c 0,149,150
 990 240 990 240 996 271 c 128,-1,151
 1002 302 1002 302 1009 334 c 0,152,153
 1022 399 1022 399 1036 459 c 0,154,155
 1049 518 1049 518 1060 568 c 0,156,157
 1062 576 1062 576 1063 584 c 1,158,159
 1056 584 1056 584 1049 584 c 0,160,161
 994 583 994 583 925 581 c 0,162,163
 890 580 890 580 853 579 c 128,-1,164
 816 578 816 578 778 578 c 0,165,166
 740 577 740 577 703.5 576 c 128,-1,167
 667 575 667 575 632 574 c 0,168,169
 562 572 562 572 507 571 c 0,170,171
 502 571 502 571 497 571 c 128,-1,172
 492 571 492 571 487 571 c 128,-1,173
 482 571 482 571 478 570 c 1,174,175
 478 565 478 565 478 562 c 128,-1,176
 478 559 478 559 477 555 c 0,177,178
 475 514 475 514 473 463 c 0,179,180
 472 437 472 437 470.5 409 c 128,-1,181
 469 381 469 381 467 352 c 0,182,183
 465 322 465 322 461 293 c 128,-1,184
 457 264 457 264 453 234 c 0,185,186
 444 174 444 174 429 120 c 0,187,188
 413 69 413 69 386 29 c 1,189,190
 357 34 357 34 320 38 c 1,191,192
 277 3 277 3 219 3 c 0,193,194
 152 3 152 3 128 50 c 1,0,1
EndSplineSet
Validated: 5
EndChar

StartChar: I
Encoding: 73 73 44
Width: 1061
GlyphClass: 2
Flags: W
LayerCount: 2
Fore
SplineSet
170 5 m 1,0,-1
 168 5 l 2,1,2
 137 9 137 9 114 31 c 0,3,4
 97 46 97 46 83 66 c 0,5,6
 71 85 71 85 64 106 c 0,7,8
 57 128 57 128 57 149 c 0,9,10
 57 165 57 165 63 184 c 0,11,12
 66 194 66 194 70.5 203 c 128,-1,13
 75 212 75 212 81 220 c 0,14,15
 87 228 87 228 94 235 c 128,-1,16
 101 242 101 242 109 248 c 0,17,18
 133 266 133 266 164 266 c 2,19,-1
 290 266 l 1,20,-1
 352 530 l 1,21,-1
 418 1236 l 1,22,-1
 293 1243 l 2,23,24
 285 1243 285 1243 277.5 1245 c 128,-1,25
 270 1247 270 1247 262 1250 c 0,26,27
 250 1254 250 1254 241 1261 c 0,28,29
 223 1273 223 1273 210 1290 c 128,-1,30
 197 1307 197 1307 191 1328 c 0,31,32
 188 1337 188 1337 186.5 1346.5 c 128,-1,33
 185 1356 185 1356 185 1365 c 0,34,35
 185 1381 185 1381 191 1401 c 0,36,37
 193 1407 193 1407 196 1413 c 128,-1,38
 199 1419 199 1419 202 1425 c 128,-1,39
 205 1431 205 1431 209 1437 c 0,40,41
 221 1454 221 1454 237 1467 c 0,42,43
 261 1486 261 1486 292 1486 c 2,44,-1
 353 1486 l 2,45,46
 378 1486 378 1486 403.5 1486 c 128,-1,47
 429 1486 429 1486 455.5 1485.5 c 128,-1,48
 482 1485 482 1485 510 1484 c 0,49,50
 592 1482 592 1482 672 1479 c 0,51,52
 712 1478 712 1478 751 1477 c 0,53,54
 786 1476 786 1476 815 1474 c 0,55,56
 873 1471 873 1471 919 1470 c 2,57,-1
 926 1470 l 1,58,-1
 933 1467 l 2,59,60
 954 1460 954 1460 971.5 1447.5 c 128,-1,61
 989 1435 989 1435 999 1416 c 0,62,63
 1018 1385 1018 1385 1018 1344 c 0,64,65
 1018 1325 1018 1325 1012 1306 c 0,66,67
 1006 1286 1006 1286 994 1268 c 0,68,69
 991 1263 991 1263 987 1258.5 c 128,-1,70
 983 1254 983 1254 978.5 1250.5 c 128,-1,71
 974 1247 974 1247 969.5 1243.5 c 128,-1,72
 965 1240 965 1240 960 1237 c 0,73,74
 949 1230 949 1230 935.5 1226.5 c 128,-1,75
 922 1223 922 1223 909 1223 c 2,76,-1
 763 1223 l 1,77,-1
 709 634 l 1,78,-1
 709 632 l 1,79,-1
 709 630 l 1,80,-1
 632 269 l 1,81,-1
 789 269 l 2,82,83
 820 269 820 269 845 248 c 0,84,85
 853 241 853 241 860 231.5 c 128,-1,86
 867 222 867 222 872 212 c 0,87,88
 882 194 882 194 886 174 c 0,89,90
 890 155 890 155 890 140 c 0,91,92
 890 94 890 94 867 59 c 0,93,94
 842 20 842 20 795 7 c 2,95,-1
 788 5 l 1,96,-1
 781 5 l 2,97,98
 777 5 777 5 760 4 c 0,99,100
 739 3 739 3 714 0 c 0,101,102
 689 -2 689 -2 667 -3 c 0,103,104
 661 -3 661 -3 656 -3.5 c 128,-1,105
 651 -4 651 -4 647 -4.5 c 128,-1,106
 643 -5 643 -5 639 -5 c 128,-1,107
 635 -5 635 -5 632 -5 c 0,108,109
 595 -6 595 -6 563.5 -6 c 128,-1,110
 532 -6 532 -6 505 -6 c 2,111,-1
 469 -6 l 2,112,113
 433 -6 433 -6 396 -5 c 0,114,115
 341 -4 341 -4 286 -2 c 0,116,117
 238 0 238 0 171 5 c 2,118,-1
 170 5 l 1,0,-1
EndSplineSet
Validated: 1
EndChar

StartChar: J
Encoding: 74 74 45
Width: 1148
GlyphClass: 2
Flags: W
LayerCount: 2
Fore
SplineSet
21 322.5 m 128,-1,1
 15 347 15 347 15 372 c 0,2,3
 15 432 15 432 54 466 c 0,4,5
 90 497 90 497 145 497 c 0,6,7
 161 497 161 497 176 494 c 128,-1,8
 191 491 191 491 205.5 484.5 c 128,-1,9
 220 478 220 478 233 469 c 0,10,11
 241 463 241 463 248.5 457 c 128,-1,12
 256 451 256 451 263 444 c 0,13,14
 271 437 271 437 279.5 430 c 128,-1,15
 288 423 288 423 295 415 c 0,16,17
 323 386 323 386 349 351 c 0,18,19
 360 336 360 336 371.5 323 c 128,-1,20
 383 310 383 310 395 298 c 0,21,22
 416 277 416 277 442 262 c 0,23,24
 451 257 451 257 460.5 255 c 128,-1,25
 470 253 470 253 483 253 c 0,26,27
 525 253 525 253 551 269 c 0,28,29
 583 290 583 290 602 324 c 0,30,31
 624 362 624 362 636 410 c 0,32,33
 648 461 648 461 651 510 c 0,34,35
 654 551 654 551 655 587 c 0,36,37
 654 595 654 595 654 604 c 2,38,-1
 654 673 l 1,39,-1
 654 1213 l 2,40,41
 651 1213 651 1213 648 1213 c 128,-1,42
 645 1213 645 1213 642 1212.5 c 128,-1,43
 639 1212 639 1212 636.5 1212 c 128,-1,44
 634 1212 634 1212 631 1212 c 128,-1,45
 628 1212 628 1212 624.5 1212 c 128,-1,46
 621 1212 621 1212 617 1212 c 2,47,-1
 572 1212 l 1,48,-1
 523 1212 l 2,49,50
 466 1213 466 1213 417 1224 c 0,51,52
 361 1236 361 1236 322 1263 c 0,53,54
 272 1298 272 1298 272 1360 c 0,55,56
 272 1422 272 1422 323 1458 c 0,57,58
 369 1490 369 1490 436 1490 c 0,59,60
 583 1490 583 1490 735 1484 c 0,61,62
 883 1478 883 1478 1005 1473 c 2,63,-1
 1011 1473 l 1,64,-1
 1016 1471 l 2,65,66
 1062 1459 1062 1459 1089 1426 c 128,-1,67
 1116 1393 1116 1393 1116 1349 c 0,68,69
 1116 1333 1116 1333 1112 1316 c 0,70,71
 1110 1307 1110 1307 1106.5 1298.5 c 128,-1,72
 1103 1290 1103 1290 1098 1282 c 0,73,74
 1087 1263 1087 1263 1070 1249 c 0,75,76
 1049 1232 1049 1232 1018 1230 c 2,77,-1
 962 1224 l 1,78,-1
 952 509 l 2,79,80
 951 455 951 455 943 398 c 0,81,82
 935 340 935 340 917 284 c 0,83,84
 899 227 899 227 870 175 c 1,85,86
 833 122 833 122 780 81 c 0,87,88
 772 75 772 75 764 69.5 c 128,-1,89
 756 64 756 64 747.5 59 c 128,-1,90
 739 54 739 54 730 49 c 0,91,92
 721 44 721 44 712 39 c 128,-1,93
 703 34 703 34 693 29.5 c 128,-1,94
 683 25 683 25 673 21 c 128,-1,95
 663 17 663 17 653 13 c 0,96,97
 580 -13 580 -13 487 -13 c 0,98,99
 433 -13 433 -13 372 4 c 0,100,101
 343 12 343 12 314.5 22.5 c 128,-1,102
 286 33 286 33 258 46 c 0,103,104
 235 59 235 59 212.5 75 c 128,-1,105
 190 91 190 91 169 108 c 0,106,107
 126 144 126 144 93 185 c 0,108,109
 58 228 58 228 38 273 c 0,110,0
 27 298 27 298 21 322.5 c 128,-1,1
EndSplineSet
Validated: 1
EndChar

StartChar: K
Encoding: 75 75 46
Width: 1495
GlyphClass: 2
Flags: W
LayerCount: 2
Fore
SplineSet
1373 1255 m 0,0,1
 1364 1245 1364 1245 1348 1235 c 2,2,-1
 921 984 l 1,3,-1
 661 809 l 1,4,5
 681 796 681 796 701.5 781.5 c 128,-1,6
 722 767 722 767 744 752 c 0,7,8
 820 699 820 699 897 638 c 0,9,10
 974 577 974 577 1045 507 c 0,11,12
 1082 472 1082 472 1114.5 435.5 c 128,-1,13
 1147 399 1147 399 1173 361 c 0,14,15
 1223 284 1223 284 1253 202 c 0,16,17
 1269 159 1269 159 1277 115.5 c 128,-1,18
 1285 72 1285 72 1285 28 c 1,19,20
 1285 32 1285 32 1240 34 c 1,21,22
 1201 2 1201 2 1150 2 c 0,23,24
 1140 2 1140 2 1131 3.5 c 128,-1,25
 1122 5 1122 5 1115 8.5 c 128,-1,26
 1108 12 1108 12 1102.5 15 c 128,-1,27
 1097 18 1097 18 1091 23 c 128,-1,28
 1085 28 1085 28 1082.5 31 c 128,-1,29
 1080 34 1080 34 1075 40 c 128,-1,30
 1070 46 1070 46 1068 48 c 0,31,32
 1043 76 1043 76 1007 121 c 0,33,34
 990 143 990 143 970.5 169 c 128,-1,35
 951 195 951 195 930 224 c 0,36,37
 909 252 909 252 886.5 282 c 128,-1,38
 864 312 864 312 840 343 c 0,39,40
 824 363 824 363 808 383.5 c 128,-1,41
 792 404 792 404 775 424.5 c 128,-1,42
 758 445 758 445 740 466 c 0,43,44
 688 527 688 527 634 579 c 0,45,46
 582 630 582 630 529 669 c 0,47,48
 521 675 521 675 512.5 680.5 c 128,-1,49
 504 686 504 686 496 690 c 1,50,-1
 489 652 l 2,51,52
 483 621 483 621 477 586 c 0,53,54
 470 552 470 552 464 522 c 0,55,56
 461 507 461 507 458.5 493 c 128,-1,57
 456 479 456 479 453 466 c 0,58,59
 451 458 451 458 450 451.5 c 128,-1,60
 449 445 449 445 448 440 c 128,-1,61
 447 435 447 435 446 431 c 2,62,-1
 446 430 l 1,63,-1
 445 428 l 2,64,65
 441 414 441 414 437 381 c 0,66,67
 435 369 435 369 433 356.5 c 128,-1,68
 431 344 431 344 428 330 c 128,-1,69
 425 316 425 316 423 302 c 0,70,71
 414 258 414 258 400 211 c 0,72,73
 385 161 385 161 363 120 c 0,74,75
 338 75 338 75 305 45 c 0,76,77
 265 8 265 8 211 8 c 0,78,79
 150 8 150 8 113 50 c 0,80,81
 97 68 97 68 88.5 90.5 c 128,-1,82
 80 113 80 113 80 138 c 2,83,-1
 80 153 l 1,84,-1
 80 161 l 1,85,-1
 82 168 l 1,86,-1
 133 319 l 1,87,-1
 201 628 l 2,88,89
 202 637 202 637 205 661 c 0,90,91
 208 687 208 687 212 725 c 0,92,93
 216 764 216 764 221 809 c 0,94,95
 226 854 226 854 231 899 c 0,96,97
 233 914 233 914 234 927.5 c 128,-1,98
 235 941 235 941 236.5 954.5 c 128,-1,99
 238 968 238 968 239 981 c 0,100,101
 243 1018 243 1018 245 1042 c 0,102,103
 245 1046 245 1046 245.5 1051 c 128,-1,104
 246 1056 246 1056 246.5 1063.5 c 128,-1,105
 247 1071 247 1071 247 1079 c 0,106,107
 248 1105 248 1105 249 1137 c 0,108,109
 250 1170 250 1170 252 1207 c 0,110,111
 253 1244 253 1244 254 1276 c 0,112,113
 254 1287 254 1287 254.5 1297 c 128,-1,114
 255 1307 255 1307 255 1316.5 c 128,-1,115
 255 1326 255 1326 256 1334 c 0,116,117
 256 1347 256 1347 256 1357 c 128,-1,118
 256 1367 256 1367 256 1373 c 2,119,-1
 256 1378 l 1,120,-1
 257 1384 l 2,121,122
 262 1403 262 1403 272 1420 c 128,-1,123
 282 1437 282 1437 296 1451 c 0,124,125
 313 1468 313 1468 338 1477 c 0,126,127
 364 1486 364 1486 392 1486 c 0,128,129
 434 1486 434 1486 466 1472 c 0,130,131
 482 1465 482 1465 495.5 1455 c 128,-1,132
 509 1445 509 1445 519 1432 c 0,133,134
 528 1420 528 1420 534.5 1406.5 c 128,-1,135
 541 1393 541 1393 545 1379 c 0,136,137
 551 1354 551 1354 551 1327 c 0,138,139
 551 1283 551 1283 549 1228 c 0,140,141
 547 1173 547 1173 545 1120 c 0,142,143
 544 1096 544 1096 544 1074 c 1,144,145
 672 1163 672 1163 806 1242 c 0,146,147
 991 1351 991 1351 1182 1448 c 0,148,149
 1187 1452 1187 1452 1191 1455 c 128,-1,150
 1195 1458 1195 1458 1199.5 1460.5 c 128,-1,151
 1204 1463 1204 1463 1209 1465 c 128,-1,152
 1214 1467 1214 1467 1219 1468.5 c 128,-1,153
 1224 1470 1224 1470 1230 1471 c 0,154,155
 1239 1472 1239 1472 1249 1473 c 128,-1,156
 1259 1474 1259 1474 1271 1474 c 0,157,158
 1327 1474 1327 1474 1365 1439 c 0,159,160
 1404 1402 1404 1402 1404 1344 c 0,161,162
 1404 1321 1404 1321 1395 1293 c 0,163,164
 1388 1271 1388 1271 1373 1255 c 0,0,1
EndSplineSet
Validated: 1
EndChar

StartChar: L
Encoding: 76 76 47
Width: 1298
GlyphClass: 2
Flags: W
LayerCount: 2
Fore
SplineSet
56 18 m 0,0,1
 39 22 39 22 39 28 c 0,2,3
 39 68 39 68 49 115 c 0,4,5
 58 158 58 158 71 201 c 0,6,7
 83 243 83 243 97 282 c 0,8,9
 109 318 109 318 117 347 c 0,10,11
 137 415 137 415 156.5 498 c 128,-1,12
 176 581 176 581 193 666 c 0,13,14
 209 751 209 751 220 832 c 0,15,16
 224 859 224 859 226.5 884 c 128,-1,17
 229 909 229 909 231 932.5 c 128,-1,18
 233 956 233 956 234 977 c 2,19,-1
 256 1458 l 2,20,21
 258 1455 258 1455 267 1452 c 128,-1,22
 276 1449 276 1449 293 1447 c 1,23,24
 303 1457 303 1457 314.5 1464.5 c 128,-1,25
 326 1472 326 1472 339 1478 c 0,26,27
 353 1484 353 1484 369 1487 c 128,-1,28
 385 1490 385 1490 402 1490 c 0,29,30
 427 1490 427 1490 453 1482 c 0,31,32
 465 1478 465 1478 476.5 1473 c 128,-1,33
 488 1468 488 1468 499 1462 c 0,34,35
 523 1449 523 1449 538 1431 c 0,36,37
 541 1428 541 1428 543.5 1424.5 c 128,-1,38
 546 1421 546 1421 548 1417 c 128,-1,39
 550 1413 550 1413 552 1409 c 0,40,41
 555 1402 555 1402 557 1394.5 c 128,-1,42
 559 1387 559 1387 559 1379 c 2,43,-1
 559 1239 l 1,44,-1
 559 1237 l 1,45,-1
 558 1235 l 1,46,-1
 519 836 l 2,47,48
 512 764 512 764 496 685 c 0,49,50
 480 606 480 606 458 527.5 c 128,-1,51
 436 449 436 449 407 372 c 0,52,53
 393 334 393 334 378 298 c 1,54,55
 391 299 391 299 405 300 c 0,56,57
 433 302 433 302 461 303 c 128,-1,58
 489 304 489 304 518 304 c 2,59,-1
 555 304 l 2,60,61
 592 304 592 304 629 303 c 0,62,63
 683 302 683 302 740 302 c 0,64,65
 768 302 768 302 819 303 c 2,66,-1
 862 303 l 2,67,68
 894 302 894 302 930 302 c 0,69,70
 991 300 991 300 1054 295 c 0,71,72
 1113 290 1113 290 1160 276 c 0,73,74
 1212 261 1212 261 1247 235 c 0,75,76
 1269 218 1269 218 1282 193 c 128,-1,77
 1295 168 1295 168 1295 140 c 0,78,79
 1295 77 1295 77 1254 49 c 0,80,81
 1221 26 1221 26 1171 26 c 0,82,83
 1075 26 1075 26 962 26 c 0,84,85
 844 25 844 25 724 25 c 0,86,87
 645 25 645 25 572 26 c 0,88,89
 548 26 548 26 525.5 26.5 c 128,-1,90
 503 27 503 27 480 27 c 0,91,92
 465 26 465 26 454 26 c 128,-1,93
 443 26 443 26 430 26 c 0,94,95
 407 26 407 26 383.5 25.5 c 128,-1,96
 360 25 360 25 337 24.5 c 128,-1,97
 314 24 314 24 291 23 c 0,98,99
 230 20 230 20 165 13 c 2,100,-1
 163 13 l 1,101,-1
 160 13 l 1,102,-1
 144 13 l 2,103,104
 80 13 80 13 56 18 c 0,0,1
EndSplineSet
Validated: 1
EndChar

StartChar: M
Encoding: 77 77 48
Width: 1930
GlyphClass: 2
Flags: W
LayerCount: 2
Fore
SplineSet
1374 437 m 2,0,1
 1375 443 1375 443 1376 465 c 0,2,3
 1378 498 1378 498 1381 548 c 0,4,5
 1382 573 1382 573 1383.5 601.5 c 128,-1,6
 1385 630 1385 630 1386 661 c 0,7,8
 1389 723 1389 723 1392 785 c 0,9,10
 1395 846 1395 846 1396 900 c 0,11,12
 1398 954 1398 954 1399 990 c 2,13,-1
 1399 1058 l 1,14,-1
 1086 760 l 2,15,16
 1072 745 1072 745 1059 733 c 128,-1,17
 1046 721 1046 721 1033 712 c 0,18,19
 996 684 996 684 937 684 c 0,20,21
 909 684 909 684 878 694 c 0,22,23
 854 702 854 702 838 717 c 0,24,25
 827 726 827 726 820 739 c 0,26,27
 816 744 816 744 811.5 751.5 c 128,-1,28
 807 759 807 759 800 769 c 0,29,30
 786 790 786 790 769 816 c 128,-1,31
 752 842 752 842 733 870 c 0,32,33
 724 884 724 884 715 897.5 c 128,-1,34
 706 911 706 911 697 924 c 0,35,36
 680 950 680 950 666 970 c 1,37,-1
 647 971 l 1,38,39
 642 978 642 978 635 987 c 128,-1,40
 628 996 628 996 619 1008 c 0,41,42
 609 1021 609 1021 599 1034 c 1,43,-1
 551 602 l 1,44,-1
 550 598 l 1,45,-1
 549 595 l 2,46,47
 548 591 548 591 546 577 c 0,48,49
 543 559 543 559 537 534 c 0,50,51
 535 526 535 526 533.5 517 c 128,-1,52
 532 508 532 508 530 498 c 0,53,54
 528 493 528 493 526 488 c 0,55,56
 524 478 524 478 522 468 c 128,-1,57
 520 458 520 458 518 448 c 0,58,59
 516 440 516 440 514 430 c 0,60,61
 508 402 508 402 502 376 c 0,62,63
 499 364 499 364 497 353 c 0,64,65
 494 342 494 342 492 335 c 0,66,67
 490 326 490 326 487 312 c 0,68,69
 485 300 485 300 482 286 c 0,70,71
 479 271 479 271 475.5 255.5 c 128,-1,72
 472 240 472 240 468 223 c 0,73,74
 459 189 459 189 445 154 c 0,75,76
 431 118 431 118 411 90 c 0,77,78
 388 62 388 62 358 44 c 0,79,80
 340 35 340 35 319 30.5 c 128,-1,81
 298 26 298 26 275 26 c 0,82,83
 215 26 215 26 179 47 c 0,84,85
 143 69 143 69 143 107 c 2,86,-1
 143 130 l 1,87,-1
 143 157 l 1,88,-1
 146 165 l 2,89,90
 162 208 162 208 178 257 c 0,91,92
 186 281 186 281 192.5 305.5 c 128,-1,93
 199 330 199 330 205 355 c 0,94,95
 218 405 218 405 229 455 c 0,96,97
 234 480 234 480 239 504 c 0,98,99
 244 523 244 523 248 541 c 0,100,101
 288 769 288 769 306 996 c 0,102,103
 323 1206 323 1206 323 1421 c 2,104,-1
 323 1460 l 1,105,-1
 325 1466 l 2,106,107
 337 1496 337 1496 372 1516 c 0,108,109
 411 1536 411 1536 469 1536 c 0,110,111
 511 1536 511 1536 545 1524 c 0,112,113
 570 1512 570 1512 590 1495 c 2,114,-1
 591 1494 l 1,115,-1
 592 1495 l 1,116,-1
 920 1090 l 1,117,-1
 921 1089 l 1,118,-1
 922 1090 l 1,119,-1
 965 1023 l 1,120,-1
 1432 1513 l 1,121,122
 1457 1532 1457 1532 1479 1540 c 0,123,124
 1504 1547 1504 1547 1540 1547 c 0,125,126
 1560 1547 1560 1547 1582 1543 c 0,127,128
 1586 1542 1586 1542 1590.5 1541 c 128,-1,129
 1595 1540 1595 1540 1599.5 1539 c 128,-1,130
 1604 1538 1604 1538 1608 1537 c 128,-1,131
 1612 1536 1612 1536 1616 1534 c 0,132,133
 1620 1534 1620 1534 1624 1532 c 0,134,135
 1646 1524 1646 1524 1661 1512 c 0,136,137
 1668 1507 1668 1507 1672 1501 c 0,138,139
 1675 1497 1675 1497 1676 1492 c 0,140,141
 1678 1487 1678 1487 1678 1483 c 2,142,-1
 1678 1186 l 1,143,-1
 1644 312 l 2,144,145
 1643 298 1643 298 1642 268 c 0,146,147
 1642 262 1642 262 1642 256.5 c 128,-1,148
 1642 251 1642 251 1641.5 245 c 128,-1,149
 1641 239 1641 239 1641 232.5 c 128,-1,150
 1641 226 1641 226 1640.5 219.5 c 128,-1,151
 1640 213 1640 213 1639 206 c 0,152,153
 1636 172 1636 172 1630 136 c 0,154,155
 1622 100 1622 100 1607 70 c 0,156,157
 1590 41 1590 41 1561 21 c 0,158,159
 1544 12 1544 12 1522 7 c 128,-1,160
 1500 2 1500 2 1476 2 c 0,161,162
 1470 2 1470 2 1463 2.5 c 128,-1,163
 1456 3 1456 3 1450.5 4 c 128,-1,164
 1445 5 1445 5 1438 6 c 0,165,166
 1433 7 1433 7 1428 8 c 128,-1,167
 1423 9 1423 9 1418 10.5 c 128,-1,168
 1413 12 1413 12 1408 14 c 0,169,170
 1403 14 1403 14 1399 16 c 0,171,172
 1388 19 1388 19 1377.5 23.5 c 128,-1,173
 1367 28 1367 28 1359 33 c 0,174,175
 1335 43 1335 43 1334 55 c 2,176,-1
 1334 119 l 1,177,-1
 1334 128 l 1,178,-1
 1335 131 l 1,179,-1
 1374 433 l 1,180,-1
 1374 437 l 1,181,-1
 1374 437 l 2,0,1
EndSplineSet
Validated: 5
EndChar

StartChar: N
Encoding: 78 78 49
Width: 1882
GlyphClass: 2
Flags: W
LayerCount: 2
Fore
SplineSet
904 718 m 1,0,-1
 717 1038 l 1,1,-1
 674 637 l 1,2,-1
 674 635 l 1,3,-1
 673 632 l 2,4,5
 672 628 672 628 669 610 c 0,6,7
 668 605 668 605 667 601 c 128,-1,8
 666 597 666 597 665 592 c 128,-1,9
 664 587 664 587 663 581 c 128,-1,10
 662 575 662 575 661 568 c 0,11,12
 655 543 655 543 650 514 c 0,13,14
 648 503 648 503 645.5 493.5 c 128,-1,15
 643 484 643 484 641 474.5 c 128,-1,16
 639 465 639 465 637 454 c 0,17,18
 634 443 634 443 632 434.5 c 128,-1,19
 630 426 630 426 628.5 417.5 c 128,-1,20
 627 409 627 409 624 399 c 0,21,22
 617 374 617 374 615 360 c 2,23,-1
 614 358 l 1,24,-1
 614 357 l 2,25,26
 612 350 612 350 609.5 339 c 128,-1,27
 607 328 607 328 605 314 c 0,28,29
 597 267 597 267 590 246 c 0,30,31
 578 201 578 201 568 172 c 0,32,33
 560 151 560 151 551 133.5 c 128,-1,34
 542 116 542 116 532 100 c 0,35,36
 509 64 509 64 479 40 c 0,37,38
 461 26 461 26 440 18 c 128,-1,39
 419 10 419 10 396 10 c 0,40,41
 336 10 336 10 300 46 c 128,-1,42
 264 82 264 82 264 142 c 2,43,-1
 264 165 l 1,44,-1
 264 174 l 1,45,-1
 267 183 l 2,46,47
 274 202 274 202 280 219 c 128,-1,48
 286 236 286 236 291 250.5 c 128,-1,49
 296 265 296 265 299 276 c 0,50,51
 315 331 315 331 327 378 c 0,52,53
 333 402 333 402 337.5 421.5 c 128,-1,54
 342 441 342 441 345 455.5 c 128,-1,55
 348 470 348 470 350 479 c 0,56,57
 360 530 360 530 369 576 c 0,58,59
 408 802 408 802 427 1037 c 0,60,61
 431 1088 431 1088 434.5 1139.5 c 128,-1,62
 438 1191 438 1191 440 1243.5 c 128,-1,63
 442 1296 442 1296 443 1349.5 c 128,-1,64
 444 1403 444 1403 444 1458 c 2,65,-1
 444 1456 l 1,66,-1
 444 1456 l 1,67,-1
 446 1455 l 2,68,69
 452 1454 452 1454 464 1453 c 1,70,71
 476 1472 476 1472 493 1487 c 0,72,73
 533 1520 533 1520 591 1520 c 0,74,75
 609 1520 609 1520 626.5 1516.5 c 128,-1,76
 644 1513 644 1513 659 1505 c 0,77,78
 665 1502 665 1502 670 1498.5 c 128,-1,79
 675 1495 675 1495 680.5 1491 c 128,-1,80
 686 1487 686 1487 691 1483 c 128,-1,81
 696 1479 696 1479 701 1475 c 0,82,83
 709 1468 709 1468 714.5 1462.5 c 128,-1,84
 720 1457 720 1457 725.5 1451 c 128,-1,85
 731 1445 731 1445 736 1438 c 0,86,87
 742 1430 742 1430 746.5 1424 c 128,-1,88
 751 1418 751 1418 757 1410 c 0,89,90
 773 1387 773 1387 799 1353 c 0,91,92
 825 1317 825 1317 850 1283 c 0,93,94
 875 1249 875 1249 894 1222 c 0,95,96
 897 1217 897 1217 901 1212 c 128,-1,97
 905 1207 905 1207 907 1204.5 c 128,-1,98
 909 1202 909 1202 910.5 1199 c 128,-1,99
 912 1196 912 1196 913.5 1194 c 128,-1,100
 915 1192 915 1192 916 1190 c 2,101,-1
 1250 603 l 1,102,-1
 1251 601 l 1,103,-1
 1252 598 l 2,104,105
 1253 595 1253 595 1255 591 c 128,-1,106
 1257 587 1257 587 1259.5 582 c 128,-1,107
 1262 577 1262 577 1265.5 570 c 128,-1,108
 1269 563 1269 563 1273 555 c 0,109,110
 1275 552 1275 552 1276.5 548 c 128,-1,111
 1278 544 1278 544 1280 540.5 c 128,-1,112
 1282 537 1282 537 1284 533 c 128,-1,113
 1286 529 1286 529 1287 526 c 2,114,-1
 1409 1405 l 2,115,116
 1417 1460 1417 1460 1454 1495 c 0,117,118
 1473 1514 1473 1514 1497.5 1522.5 c 128,-1,119
 1522 1531 1522 1531 1550 1531 c 0,120,121
 1569 1531 1569 1531 1586 1527 c 128,-1,122
 1603 1523 1603 1523 1619 1514 c 128,-1,123
 1635 1505 1635 1505 1648 1491 c 0,124,125
 1660 1478 1660 1478 1667.5 1462.5 c 128,-1,126
 1675 1447 1675 1447 1678.5 1430.5 c 128,-1,127
 1682 1414 1682 1414 1682 1396 c 2,128,-1
 1682 1376 l 1,129,-1
 1682 1373 l 1,130,-1
 1682 1369 l 1,131,-1
 1514 84 l 2,132,133
 1512 68 1512 68 1509.5 55 c 128,-1,134
 1507 42 1507 42 1503 28 c 1,135,136
 1496 27 1496 27 1482 26 c 0,137,138
 1464 25 1464 25 1435 24 c 1,139,140
 1399 4 1399 4 1352 4 c 0,141,142
 1311 4 1311 4 1272 22 c 0,143,144
 1227 43 1227 43 1211 82 c 2,145,-1
 1171 165 l 1,146,-1
 904 718 l 1,0,-1
EndSplineSet
Validated: 5
EndChar

StartChar: O
Encoding: 79 79 50
Width: 1707
GlyphClass: 2
Flags: W
LayerCount: 2
Fore
SplineSet
395.5 816.5 m 128,-1,1
 391 788 391 788 391 760 c 0,2,3
 391 652 391 652 418 556 c 0,4,5
 443 464 443 464 500 396 c 0,6,7
 555 330 555 330 643 292 c 128,-1,8
 731 254 731 254 861 254 c 0,9,10
 928 254 928 254 988 273 c 0,11,12
 1050 293 1050 293 1101 326 c 0,13,14
 1154 360 1154 360 1196 406 c 0,15,16
 1210 422 1210 422 1223 438 c 128,-1,17
 1236 454 1236 454 1247.5 471 c 128,-1,18
 1259 488 1259 488 1269 505 c 0,19,20
 1284 531 1284 531 1295.5 557.5 c 128,-1,21
 1307 584 1307 584 1315 611 c 0,22,23
 1331 664 1331 664 1331 714 c 0,24,25
 1331 730 1331 730 1329.5 747.5 c 128,-1,26
 1328 765 1328 765 1325.5 784 c 128,-1,27
 1323 803 1323 803 1319 823 c 0,28,29
 1307 883 1307 883 1284 944 c 0,30,31
 1261 1005 1261 1005 1226 1063 c 0,32,33
 1191 1119 1191 1119 1145 1161 c 0,34,35
 1100 1202 1100 1202 1044 1227 c 0,36,37
 1018 1239 1018 1239 988.5 1244.5 c 128,-1,38
 959 1250 959 1250 926 1250 c 0,39,40
 853 1250 853 1250 786 1230 c 0,41,42
 717 1210 717 1210 658 1175 c 0,43,44
 598 1139 598 1139 549 1092 c 0,45,46
 524 1068 524 1068 503 1042 c 128,-1,47
 482 1016 482 1016 464 988 c 0,48,49
 429 933 429 933 410 874 c 0,50,0
 400 845 400 845 395.5 816.5 c 128,-1,1
154 469 m 0,51,52
 115 609 115 609 115 767 c 0,53,54
 115 813 115 813 121.5 859.5 c 128,-1,55
 128 906 128 906 142 952 c 0,56,57
 169 1044 169 1044 217 1127.5 c 128,-1,58
 265 1211 265 1211 333 1284 c 0,59,60
 356 1308 356 1308 382 1330 c 0,61,62
 409 1352 409 1352 438.5 1372.5 c 128,-1,63
 468 1393 468 1393 499 1411 c 0,64,65
 593 1465 593 1465 701 1495 c 0,66,67
 756 1512 756 1512 813 1520.5 c 128,-1,68
 870 1529 870 1529 929 1529 c 0,69,70
 989 1529 989 1529 1044.5 1518.5 c 128,-1,71
 1100 1508 1100 1508 1151 1487 c 0,72,73
 1249 1449 1249 1449 1328 1384 c 0,74,75
 1401 1321 1401 1321 1454 1237 c 0,76,77
 1505 1156 1505 1156 1538 1067 c 0,78,79
 1555 1023 1555 1023 1568 978.5 c 128,-1,80
 1581 934 1581 934 1590 889 c 0,81,82
 1607 798 1607 798 1607 716 c 0,83,84
 1607 640 1607 640 1588 560 c 0,85,86
 1578 520 1578 520 1564.5 481.5 c 128,-1,87
 1551 443 1551 443 1533 405 c 0,88,89
 1498 329 1498 329 1446 260 c 0,90,91
 1394 190 1394 190 1324 134 c 0,92,93
 1299 115 1299 115 1273 98.5 c 128,-1,94
 1247 82 1247 82 1219 67 c 128,-1,95
 1191 52 1191 52 1161 39 c 0,96,97
 1071 -3 1071 -3 968 -18 c 2,98,-1
 964 -19 l 1,99,-1
 959 -19 l 1,100,-1
 861 -19 l 2,101,102
 658 -19 658 -19 511 48 c 1,103,104
 364 111 364 111 277 219 c 0,105,106
 193 326 193 326 154 469 c 0,51,52
EndSplineSet
Validated: 1
EndChar

StartChar: P
Encoding: 80 80 51
Width: 1483
GlyphClass: 2
Flags: W
LayerCount: 2
Fore
SplineSet
744.5 1228 m 128,-1,1
 720 1228 720 1228 701 1228 c 0,2,3
 694 1228 694 1228 681 1228 c 2,4,-1
 664 1227 l 1,5,6
 662 1187 662 1187 661 1150 c 0,7,8
 661 1143 661 1143 660 1135.5 c 128,-1,9
 659 1128 659 1128 659 1120.5 c 128,-1,10
 659 1113 659 1113 658 1105 c 0,11,12
 657 1082 657 1082 656 1060 c 0,13,14
 655 1038 655 1038 654.5 1018.5 c 128,-1,15
 654 999 654 999 654 984 c 2,16,-1
 654 976 l 1,17,18
 663 976 663 976 672 976 c 128,-1,19
 681 976 681 976 691 976 c 2,20,-1
 728 976 l 1,21,-1
 760 976 l 2,22,23
 766 976 766 976 772.5 976 c 128,-1,24
 779 976 779 976 785.5 976 c 128,-1,25
 792 976 792 976 798.5 976 c 128,-1,26
 805 976 805 976 812 976.5 c 128,-1,27
 819 977 819 977 826 977 c 0,28,29
 898 979 898 979 973 986 c 0,30,31
 1009 990 1009 990 1042 995.5 c 128,-1,32
 1075 1001 1075 1001 1104 1009 c 0,33,34
 1157 1023 1157 1023 1190 1045 c 0,35,36
 1202 1053 1202 1053 1207.5 1062.5 c 128,-1,37
 1213 1072 1213 1072 1213 1086 c 0,38,39
 1213 1103 1213 1103 1207.5 1115.5 c 128,-1,40
 1202 1128 1202 1128 1192 1139 c 0,41,42
 1168 1163 1168 1163 1130 1179 c 0,43,44
 1087 1197 1087 1197 1032 1206 c 0,45,46
 1002 1211 1002 1211 972 1215 c 128,-1,47
 942 1219 942 1219 913 1222 c 0,48,49
 852 1227 852 1227 797 1227 c 0,50,0
 769 1228 769 1228 744.5 1228 c 128,-1,1
197 163 m 1,51,-1
 199 169 l 1,52,-1
 269 408 l 2,53,54
 302 510 302 510 319 616 c 0,55,56
 337 723 337 723 346 833 c 0,57,58
 355 943 355 943 357 1054 c 0,59,60
 358 1139 358 1139 358 1221 c 1,61,62
 349 1220 349 1220 341 1218 c 0,63,64
 307 1211 307 1211 274 1202 c 0,65,66
 262 1199 262 1199 251 1196 c 0,67,68
 240 1193 240 1193 229.5 1190.5 c 128,-1,69
 219 1188 219 1188 209 1185 c 0,70,71
 173 1176 173 1176 134 1176 c 0,72,73
 107 1176 107 1176 83 1183.5 c 128,-1,74
 59 1191 59 1191 40 1207 c 0,75,76
 21 1224 21 1224 12 1247 c 128,-1,77
 3 1270 3 1270 3 1296 c 0,78,79
 3 1326 3 1326 18 1351.5 c 128,-1,80
 33 1377 33 1377 59 1395 c 0,81,82
 102 1425 102 1425 167 1445 c 0,83,84
 227 1464 227 1464 306 1475 c 0,85,86
 346 1480 346 1480 385 1484 c 128,-1,87
 424 1488 424 1488 462 1491 c 0,88,89
 500 1494 500 1494 534.5 1495 c 128,-1,90
 569 1496 569 1496 602 1497 c 0,91,92
 665 1498 665 1498 699 1498 c 0,93,94
 714 1498 714 1498 729 1498 c 128,-1,95
 744 1498 744 1498 759.5 1497.5 c 128,-1,96
 775 1497 775 1497 791.5 1496 c 128,-1,97
 808 1495 808 1495 824.5 1494 c 128,-1,98
 841 1493 841 1493 858 1492 c 0,99,100
 946 1486 946 1486 1033 1471 c 0,101,102
 1055 1467 1055 1467 1076.5 1462.5 c 128,-1,103
 1098 1458 1098 1458 1119.5 1452.5 c 128,-1,104
 1141 1447 1141 1447 1162 1440 c 0,105,106
 1183 1434 1183 1434 1203 1428 c 0,107,108
 1245 1414 1245 1414 1279.5 1396 c 128,-1,109
 1314 1378 1314 1378 1344 1356 c 0,110,111
 1406 1310 1406 1310 1443 1243 c 0,112,113
 1462 1209 1462 1209 1471.5 1169.5 c 128,-1,114
 1481 1130 1481 1130 1481 1086 c 0,115,116
 1481 1054 1481 1054 1475.5 1024.5 c 128,-1,117
 1470 995 1470 995 1458 968 c 128,-1,118
 1446 941 1446 941 1428 917 c 0,119,120
 1403 884 1403 884 1371 857 c 128,-1,121
 1339 830 1339 830 1301 809 c 0,122,123
 1226 769 1226 769 1128 749 c 0,124,125
 1033 730 1033 730 942 726 c 2,126,-1
 627 712 l 1,127,-1
 557 336 l 2,128,129
 554 321 554 321 550 296 c 0,130,131
 548 282 548 282 544.5 266.5 c 128,-1,132
 541 251 541 251 537 235 c 0,133,134
 535 227 535 227 532.5 218.5 c 128,-1,135
 530 210 530 210 527.5 201.5 c 128,-1,136
 525 193 525 193 522 184.5 c 128,-1,137
 519 176 519 176 516 168 c 0,138,139
 503 131 503 131 482 100 c 0,140,141
 460 66 460 66 428 44 c 0,142,143
 388 14 388 14 336 14 c 0,144,145
 269 14 269 14 231 50 c 0,146,147
 197 84 197 84 197 138 c 2,148,-1
 197 157 l 1,149,-1
 197 163 l 1,51,-1
EndSplineSet
Validated: 1
EndChar

StartChar: Q
Encoding: 81 81 52
Width: 1703
GlyphClass: 2
Flags: W
LayerCount: 2
Fore
SplineSet
422 871 m 0,0,1
 405 814 405 814 405 759 c 0,2,3
 405 724 405 724 409 690.5 c 128,-1,4
 413 657 413 657 421.5 625.5 c 128,-1,5
 430 594 430 594 442 564 c 0,6,7
 479 474 479 474 549 408 c 0,8,9
 618 343 618 343 718 305 c 128,-1,10
 818 267 818 267 945 267 c 0,11,12
 960 267 960 267 975 268 c 128,-1,13
 990 269 990 269 1006 272 c 2,14,-1
 1015 273 l 1,15,16
 1002 289 1002 289 984 306 c 0,17,18
 961 328 961 328 933 351 c 0,19,20
 923 360 923 360 913 369 c 128,-1,21
 903 378 903 378 894 387.5 c 128,-1,22
 885 397 885 397 876 406 c 0,23,24
 849 437 849 437 830 471 c 0,25,26
 819 490 819 490 813.5 511 c 128,-1,27
 808 532 808 532 808 554 c 0,28,29
 808 607 808 607 850 640 c 0,30,31
 891 672 891 672 951 672 c 0,32,33
 1003 672 1003 672 1045 649 c 0,34,35
 1081 629 1081 629 1108 599 c 0,36,37
 1133 571 1133 571 1155 537 c 0,38,39
 1174 506 1174 506 1192 476 c 0,40,41
 1195 471 1195 471 1199 465.5 c 128,-1,42
 1203 460 1203 460 1206.5 454.5 c 128,-1,43
 1210 449 1210 449 1213.5 444 c 128,-1,44
 1217 439 1217 439 1220.5 434.5 c 128,-1,45
 1224 430 1224 430 1228 425 c 1,46,47
 1243 445 1243 445 1253 471 c 0,48,49
 1256 478 1256 478 1259 485.5 c 128,-1,50
 1262 493 1262 493 1264.5 501 c 128,-1,51
 1267 509 1267 509 1269.5 517.5 c 128,-1,52
 1272 526 1272 526 1274 534 c 0,53,54
 1282 569 1282 569 1287 603 c 0,55,56
 1290 620 1290 620 1291.5 635.5 c 128,-1,57
 1293 651 1293 651 1294 666 c 0,58,59
 1296 696 1296 696 1296 718 c 0,60,61
 1296 741 1296 741 1293 766.5 c 128,-1,62
 1290 792 1290 792 1283.5 821 c 128,-1,63
 1277 850 1277 850 1268 879 c 128,-1,64
 1259 908 1259 908 1246.5 937.5 c 128,-1,65
 1234 967 1234 967 1218.5 995.5 c 128,-1,66
 1203 1024 1203 1024 1185 1052 c 0,67,68
 1167 1079 1167 1079 1147 1103.5 c 128,-1,69
 1127 1128 1127 1128 1104 1148 c 0,70,71
 1060 1188 1060 1188 1006 1212 c 0,72,73
 981 1223 981 1223 954 1229 c 128,-1,74
 927 1235 927 1235 897 1235 c 0,75,76
 827 1235 827 1235 764 1216 c 0,77,78
 732 1206 732 1206 702.5 1193 c 128,-1,79
 673 1180 673 1180 646 1163 c 0,80,81
 591 1129 591 1129 547 1083 c 0,82,83
 502 1036 502 1036 470 983 c 0,84,85
 439 929 439 929 422 871 c 0,0,1
1239.5 22.5 m 128,-1,87
 1221 38 1221 38 1204 52 c 1,88,89
 1146 29 1146 29 1092 16 c 0,90,91
 1056 7 1056 7 1016.5 3 c 128,-1,92
 977 -1 977 -1 935 -1 c 0,93,94
 809 -1 809 -1 699 29 c 0,95,96
 588 57 588 57 495.5 107 c 128,-1,97
 403 157 403 157 336 227 c 0,98,99
 271 297 271 297 225 381 c 0,100,101
 180 465 180 465 157 562 c 0,102,103
 134 658 134 658 134 761 c 0,104,105
 134 852 134 852 158 942 c 128,-1,106
 182 1032 182 1032 226.5 1113.5 c 128,-1,107
 271 1195 271 1195 335 1265 c 0,108,109
 401 1335 401 1335 488 1388 c 0,110,111
 505 1398 505 1398 523 1407.5 c 128,-1,112
 541 1417 541 1417 559.5 1426 c 128,-1,113
 578 1435 578 1435 598 1442 c 0,114,115
 617 1450 617 1450 637 1457.5 c 128,-1,116
 657 1465 657 1465 677 1472 c 0,117,118
 729 1488 729 1488 783.5 1496 c 128,-1,119
 838 1504 838 1504 894 1504 c 0,120,121
 1009 1504 1009 1504 1108 1464 c 1,122,123
 1204 1462 1204 1462 1281 1458 c 1,124,125
 1357 1392 1357 1392 1416 1306 c 0,126,127
 1445 1264 1445 1264 1468.5 1219.5 c 128,-1,128
 1492 1175 1492 1175 1512 1129 c 0,129,130
 1525 1098 1525 1098 1535.5 1067.5 c 128,-1,131
 1546 1037 1546 1037 1554.5 1005.5 c 128,-1,132
 1563 974 1563 974 1569 942 c 0,133,134
 1579 895 1579 895 1584 849.5 c 128,-1,135
 1589 804 1589 804 1589 761 c 0,136,137
 1589 613 1589 613 1543 473 c 0,138,139
 1533 441 1533 441 1520 409 c 128,-1,140
 1507 377 1507 377 1491 347 c 128,-1,141
 1475 317 1475 317 1457 287.5 c 128,-1,142
 1439 258 1439 258 1418 230 c 1,143,144
 1432 215 1432 215 1456 197 c 0,145,146
 1482 177 1482 177 1513 158 c 0,147,148
 1529 148 1529 148 1544 139.5 c 128,-1,149
 1559 131 1559 131 1574 123 c 0,150,151
 1604 108 1604 108 1627 98 c 0,152,153
 1630 97 1630 97 1633 96 c 128,-1,154
 1636 95 1636 95 1638.5 94 c 0,155,156
 1640 92 1640 92 1642 92 c 0,157,-1
 1644 92 l 2,158,-1
 1758 92 l 1,159,-1
 1776 92 l 1,160,-1
 1791 80 l 2,161,162
 1802 71 1802 71 1810 65 c 0,163,164
 1825 54 1825 54 1835 41 c 0,165,166
 1839 36 1839 36 1842.5 31 c 128,-1,167
 1846 26 1846 26 1848.5 20.5 c 128,-1,168
 1851 15 1851 15 1854 9 c 0,169,170
 1861 -10 1861 -10 1861 -36 c 0,171,172
 1861 -57 1861 -57 1856.5 -76 c 128,-1,173
 1852 -95 1852 -95 1842 -111 c 0,174,175
 1823 -141 1823 -141 1792 -158 c 0,176,177
 1765 -172 1765 -172 1732 -176 c 0,178,179
 1718 -178 1718 -178 1704.5 -178.5 c 128,-1,180
 1691 -179 1691 -179 1677 -179 c 0,181,182
 1604 -179 1604 -179 1529 -153 c 0,183,184
 1458 -129 1458 -129 1395 -90 c 0,185,186
 1333 -53 1333 -53 1277 -8 c 0,187,86
 1258 7 1258 7 1239.5 22.5 c 128,-1,87
EndSplineSet
Validated: 1
EndChar

StartChar: R
Encoding: 82 82 53
Width: 1524
GlyphClass: 2
Flags: W
LayerCount: 2
Fore
SplineSet
718 1272.5 m 128,-1,1
 703 1273 703 1273 700 1273 c 0,2,3
 692 1273 692 1273 680 1273 c 2,4,-1
 666 1272 l 1,5,6
 663 1225 663 1225 660 1179 c 0,7,8
 659 1170 659 1170 658.5 1162 c 128,-1,9
 658 1154 658 1154 657.5 1145.5 c 128,-1,10
 657 1137 657 1137 657 1128 c 0,11,12
 656 1100 656 1100 654 1073 c 0,13,14
 652 1047 652 1047 650 1024 c 0,15,16
 650 1021 650 1021 650 1018 c 128,-1,17
 650 1015 650 1015 649 1012 c 1,18,19
 653 1013 653 1013 657.5 1014 c 128,-1,20
 662 1015 662 1015 665.5 1016 c 128,-1,21
 669 1017 669 1017 673 1018 c 128,-1,22
 677 1019 677 1019 681 1020 c 0,23,24
 728 1032 728 1032 787 1050 c 0,25,26
 816 1059 816 1059 846.5 1068 c 128,-1,27
 877 1077 877 1077 908 1087 c 0,28,29
 939 1097 939 1097 969 1107 c 128,-1,30
 999 1117 999 1117 1028 1128 c 0,31,32
 1085 1149 1085 1149 1130 1169 c 0,33,34
 1168 1187 1168 1187 1191 1204 c 1,35,36
 1159 1217 1159 1217 1111 1227 c 0,37,38
 1055 1239 1055 1239 989 1249 c 0,39,40
 955 1253 955 1253 923 1256.5 c 128,-1,41
 891 1260 891 1260 860 1263 c 0,42,43
 799 1268 799 1268 754 1271 c 0,44,0
 733 1272 733 1272 718 1272.5 c 128,-1,1
605 670.5 m 128,-1,46
 599 675 599 675 594 678 c 1,47,48
 583 625 583 625 571 572 c 0,49,50
 568 559 568 559 564.5 546.5 c 128,-1,51
 561 534 561 534 557.5 521 c 128,-1,52
 554 508 554 508 550.5 495.5 c 128,-1,53
 547 483 547 483 543.5 470.5 c 128,-1,54
 540 458 540 458 536 445 c 128,-1,55
 532 432 532 432 528.5 419.5 c 128,-1,56
 525 407 525 407 521 394 c 0,57,58
 492 305 492 305 454 220 c 0,59,60
 415 134 415 134 364 53 c 2,61,-1
 361 48 l 1,62,-1
 357 44 l 2,63,64
 334 20 334 20 307 7 c 0,65,66
 276 -8 276 -8 237 -8 c 0,67,68
 210 -8 210 -8 185.5 2 c 128,-1,69
 161 12 161 12 143 30 c 0,70,71
 106 65 106 65 106 115 c 0,72,73
 106 156 106 156 121 197 c 0,74,75
 134 233 134 233 153 269 c 0,76,77
 170 303 170 303 188 336 c 0,78,79
 203 364 203 364 212 390 c 0,80,81
 284 606 284 606 321 825 c 0,82,83
 353 1019 353 1019 356 1219 c 1,84,85
 337 1216 337 1216 320.5 1213 c 128,-1,86
 304 1210 304 1210 285 1206 c 0,87,88
 247 1198 247 1198 215 1190 c 0,89,90
 207 1188 207 1188 199 1186 c 128,-1,91
 191 1184 191 1184 184 1182.5 c 128,-1,92
 177 1181 177 1181 170.5 1179.5 c 128,-1,93
 164 1178 164 1178 157 1176 c 2,94,-1
 151 1175 l 1,95,-1
 145 1175 l 1,96,-1
 128 1175 l 2,97,98
 69 1175 69 1175 32 1212 c 0,99,100
 -4 1248 -4 1248 -4 1301 c 0,101,102
 -4 1361 -4 1361 52 1400 c 0,103,104
 74 1415 74 1415 100.5 1427.5 c 128,-1,105
 127 1440 127 1440 158 1450 c 0,106,107
 218 1469 218 1469 297 1479 c 0,108,109
 316 1481 316 1481 335 1483.5 c 128,-1,110
 354 1486 354 1486 373 1487.5 c 128,-1,111
 392 1489 392 1489 410.5 1491 c 128,-1,112
 429 1493 429 1493 448 1494 c 0,113,114
 485 1497 485 1497 518.5 1498 c 128,-1,115
 552 1499 552 1499 583 1500 c 0,116,117
 644 1501 644 1501 674 1501 c 0,118,119
 686 1501 686 1501 700.5 1501 c 128,-1,120
 715 1501 715 1501 730.5 1500.5 c 128,-1,121
 746 1500 746 1500 764 1500 c 0,122,123
 818 1499 818 1499 881.5 1494.5 c 128,-1,124
 945 1490 945 1490 1012 1482 c 0,125,126
 1047 1478 1047 1478 1081 1472 c 128,-1,127
 1115 1466 1115 1466 1149 1458 c 0,128,129
 1217 1444 1217 1444 1274 1422 c 0,130,131
 1332 1399 1332 1399 1377 1367 c 0,132,133
 1424 1333 1424 1333 1452 1287 c 0,134,135
 1467 1263 1467 1263 1474.5 1235 c 128,-1,136
 1482 1207 1482 1207 1482 1177 c 0,137,138
 1482 1141 1482 1141 1471 1107.5 c 128,-1,139
 1460 1074 1460 1074 1438 1044 c 0,140,141
 1430 1033 1430 1033 1421 1022.5 c 128,-1,142
 1412 1012 1412 1012 1402 1002 c 128,-1,143
 1392 992 1392 992 1381.5 982.5 c 128,-1,144
 1371 973 1371 973 1359 964.5 c 128,-1,145
 1347 956 1347 956 1335 947 c 0,146,147
 1275 906 1275 906 1196 875 c 0,148,149
 1169 865 1169 865 1143 856 c 128,-1,150
 1117 847 1117 847 1090 838.5 c 128,-1,151
 1063 830 1063 830 1036 822 c 0,152,153
 997 811 997 811 959.5 801.5 c 128,-1,154
 922 792 922 792 887 784 c 2,155,-1
 869 780 l 1,156,157
 890 766 890 766 911 750 c 0,158,159
 934 734 934 734 956.5 717.5 c 128,-1,160
 979 701 979 701 1002 683 c 128,-1,161
 1025 665 1025 665 1048 647 c 0,162,163
 1117 591 1117 591 1182 528 c 0,164,165
 1204 507 1204 507 1224 485 c 0,166,167
 1243 463 1243 463 1260 441 c 128,-1,168
 1277 419 1277 419 1292 396 c 0,169,170
 1315 362 1315 362 1333.5 326.5 c 128,-1,171
 1352 291 1352 291 1366 254 c 0,172,173
 1396 178 1396 178 1396 100 c 0,174,175
 1396 72 1396 72 1384 49 c 0,176,177
 1372 25 1372 25 1352 8 c 0,178,179
 1333 -8 1333 -8 1310 -16 c 0,180,181
 1298 -20 1298 -20 1285.5 -22.5 c 128,-1,182
 1273 -25 1273 -25 1261 -25 c 0,183,184
 1251 -25 1251 -25 1243 -23 c 0,185,186
 1234 -21 1234 -21 1226.5 -17.5 c 128,-1,187
 1219 -14 1219 -14 1213 -10.5 c 128,-1,188
 1207 -7 1207 -7 1201 -1 c 128,-1,189
 1195 5 1195 5 1191.5 9 c 128,-1,190
 1188 13 1188 13 1182.5 19.5 c 128,-1,191
 1177 26 1177 26 1174 30 c 0,192,193
 1141 67 1141 67 1098 125 c 0,194,195
 1084 144 1084 144 1069.5 164 c 128,-1,196
 1055 184 1055 184 1040 205 c 128,-1,197
 1025 226 1025 226 1008 248 c 0,198,199
 960 315 960 315 913 379 c 0,200,201
 867 442 867 442 824 492 c 0,202,203
 811 508 811 508 798.5 521.5 c 128,-1,204
 786 535 786 535 776.5 544.5 c 128,-1,205
 767 554 767 554 759 560 c 2,206,-1
 758 561 l 1,207,-1
 757 562 l 2,208,209
 752 566 752 566 732 581 c 0,210,211
 708 599 708 599 678 619 c 2,212,-1
 617 662 l 2,213,45
 611 666 611 666 605 670.5 c 128,-1,46
EndSplineSet
Validated: 1
EndChar

StartChar: S
Encoding: 83 83 54
Width: 1474
GlyphClass: 2
Flags: W
LayerCount: 2
Fore
SplineSet
88 210 m 0,0,1
 53 263 53 263 53 329 c 0,2,3
 53 383 53 383 88 423 c 0,4,5
 125 465 125 465 186 465 c 0,6,7
 221 465 221 465 257 444 c 0,8,9
 282 429 282 429 312 406 c 0,10,11
 343 385 343 385 379 361 c 0,12,13
 411 339 411 339 450 321 c 0,14,15
 489 303 489 303 536 290 c 0,16,17
 580 278 580 278 635 278 c 0,18,19
 678 278 678 278 734 284 c 0,20,21
 762 287 762 287 791.5 292 c 128,-1,22
 821 297 821 297 851 303 c 0,23,24
 881 309 881 309 910 317.5 c 128,-1,25
 939 326 939 326 967 336 c 0,26,27
 981 341 981 341 993.5 346 c 128,-1,28
 1006 351 1006 351 1018 357 c 128,-1,29
 1030 363 1030 363 1041 369 c 128,-1,30
 1052 375 1052 375 1063 382 c 0,31,32
 1076 391 1076 391 1087.5 400 c 128,-1,33
 1099 409 1099 409 1108.5 419 c 128,-1,34
 1118 429 1118 429 1126 440 c 0,35,36
 1137 455 1137 455 1142.5 471 c 128,-1,37
 1148 487 1148 487 1148 506 c 0,38,39
 1148 528 1148 528 1135 547 c 0,40,41
 1119 569 1119 569 1093 586 c 0,42,43
 1066 605 1066 605 1033 618 c 0,44,45
 1016 625 1016 625 999 630 c 128,-1,46
 982 635 982 635 965 639 c 2,47,-1
 467 746 l 2,48,49
 409 759 409 759 350 780 c 0,50,51
 330 787 330 787 311 795 c 0,52,53
 293 803 293 803 276.5 813 c 128,-1,54
 260 823 260 823 244 833 c 0,55,56
 197 866 197 866 163 909 c 0,57,58
 126 955 126 955 113 1014 c 2,59,-1
 112 1019 l 1,60,-1
 112 1024 l 1,61,-1
 112 1080 l 2,62,63
 112 1168 112 1168 142 1242 c 0,64,65
 172 1316 172 1316 228 1372 c 0,66,67
 256 1400 256 1400 290 1422 c 0,68,69
 327 1445 327 1445 370 1462 c 0,70,71
 457 1499 457 1499 563 1511 c 2,72,-1
 566 1511 l 1,73,-1
 569 1511 l 2,74,75
 574 1511 574 1511 589 1511 c 0,76,77
 597 1511 597 1511 606 1511.5 c 128,-1,78
 615 1512 615 1512 624.5 1512.5 c 128,-1,79
 634 1513 634 1513 643 1513 c 128,-1,80
 652 1513 652 1513 660 1513 c 0,81,82
 677 1514 677 1514 685 1514 c 0,83,84
 714 1514 714 1514 769 1513 c 0,85,86
 826 1512 826 1512 894 1508 c 128,-1,87
 962 1504 962 1504 1032 1494 c 0,88,89
 1106 1484 1106 1484 1167 1466 c 0,90,91
 1227 1446 1227 1446 1266 1415 c 0,92,93
 1317 1374 1317 1374 1317 1311 c 0,94,95
 1317 1257 1317 1257 1282 1217 c 0,96,97
 1245 1175 1245 1175 1184 1175 c 2,98,-1
 1171 1175 l 1,99,-1
 1165 1175 l 1,100,-1
 1159 1176 l 2,101,102
 1038 1200 1038 1200 919 1220 c 0,103,104
 804 1239 804 1239 685 1239 c 0,105,106
 652 1239 652 1239 621.5 1236.5 c 128,-1,107
 591 1234 591 1234 562 1229 c 0,108,109
 544 1226 544 1226 528.5 1222 c 128,-1,110
 513 1218 513 1218 499 1212.5 c 128,-1,111
 485 1207 485 1207 473 1200 c 0,112,113
 438 1180 438 1180 416 1147 c 0,114,115
 395 1114 395 1114 395 1059 c 0,116,117
 395 1046 395 1046 402 1037 c 0,118,119
 413 1023 413 1023 429 1013 c 0,120,121
 447 1002 447 1002 469 994 c 0,122,123
 494 985 494 985 517 981 c 2,124,-1
 995 877 l 2,125,126
 1036 868 1036 868 1077 856 c 128,-1,127
 1118 844 1118 844 1158 829 c 0,128,129
 1233 797 1233 797 1290 750 c 0,130,131
 1319 726 1319 726 1343 697.5 c 128,-1,132
 1367 669 1367 669 1385 637 c 0,133,134
 1395 620 1395 620 1402 602 c 128,-1,135
 1409 584 1409 584 1413.5 565 c 128,-1,136
 1418 546 1418 546 1420.5 526.5 c 128,-1,137
 1423 507 1423 507 1423 487 c 0,138,139
 1423 401 1423 401 1387 329 c 0,140,141
 1352 260 1352 260 1293 205 c 0,142,143
 1235 151 1235 151 1158 113 c 0,144,145
 1075 75 1075 75 984 50 c 0,146,147
 894 25 894 25 803 13 c 0,148,149
 712 0 712 0 632 0 c 0,150,151
 609 0 609 0 583 1.5 c 128,-1,152
 557 3 557 3 527 7 c 0,153,154
 512 9 512 9 496.5 11 c 128,-1,155
 481 13 481 13 465.5 16 c 128,-1,156
 450 19 450 19 434 22 c 128,-1,157
 418 25 418 25 402 29 c 0,158,159
 336 44 336 44 275 67 c 0,160,161
 216 91 216 91 169 126 c 0,162,163
 119 162 119 162 88 210 c 0,0,1
EndSplineSet
Validated: 1
EndChar

StartChar: T
Encoding: 84 84 55
Width: 1460
GlyphClass: 2
Flags: W
LayerCount: 2
Fore
SplineSet
352 78 m 0,0,1
 338 101 338 101 338 128 c 0,2,3
 338 163 338 163 354 204 c 0,4,5
 368 239 368 239 386 275 c 0,6,7
 403 309 403 309 420 341 c 0,8,9
 434 369 434 369 440 392 c 0,10,11
 510 615 510 615 545 832 c 0,12,13
 577 1032 577 1032 579 1242 c 1,14,-1
 180 1252 l 2,15,16
 146 1253 146 1253 122 1268 c 0,17,18
 102 1281 102 1281 88 1301 c 0,19,20
 76 1319 76 1319 70 1340 c 0,21,22
 67 1350 67 1350 65.5 1359.5 c 128,-1,23
 64 1369 64 1369 64 1378 c 0,24,25
 64 1396 64 1396 70 1416 c 0,26,27
 76 1436 76 1436 89 1453 c 0,28,29
 102 1472 102 1472 119 1486 c 0,30,31
 143 1504 143 1504 174 1504 c 2,32,-1
 1019 1504 l 2,33,34
 1027 1504 1027 1504 1039 1504 c 128,-1,35
 1051 1504 1051 1504 1069 1505 c 0,36,37
 1075 1505 1075 1505 1081 1505 c 128,-1,38
 1087 1505 1087 1505 1092.5 1505 c 128,-1,39
 1098 1505 1098 1505 1104 1505 c 0,40,41
 1111 1505 1111 1505 1118.5 1505.5 c 128,-1,42
 1126 1506 1126 1506 1133.5 1505.5 c 128,-1,43
 1141 1505 1141 1505 1148 1505 c 0,44,45
 1188 1504 1188 1504 1226 1499 c 0,46,47
 1269 1493 1269 1493 1305 1478 c 0,48,49
 1325 1470 1325 1470 1342 1459 c 128,-1,50
 1359 1448 1359 1448 1373 1433 c 0,51,52
 1406 1397 1406 1397 1406 1344 c 0,53,54
 1406 1317 1406 1317 1397 1292.5 c 128,-1,55
 1388 1268 1388 1268 1370 1249 c 0,56,57
 1351 1228 1351 1228 1325.5 1217.5 c 128,-1,58
 1300 1207 1300 1207 1272 1207 c 0,59,60
 1200 1207 1200 1207 1123 1216 c 0,61,62
 1049 1225 1049 1225 972 1225 c 2,63,-1
 892 1225 l 1,64,-1
 856 812 l 1,65,-1
 856 810 l 1,66,-1
 856 808 l 2,67,68
 856 807 856 807 856 806.5 c 128,-1,69
 856 806 856 806 855.5 804.5 c 128,-1,70
 855 803 855 803 855 801.5 c 128,-1,71
 855 800 855 800 854.5 798.5 c 128,-1,72
 854 797 854 797 853.5 795 c 128,-1,73
 853 793 853 793 853 791 c 128,-1,74
 853 789 853 789 852.5 786.5 c 128,-1,75
 852 784 852 784 852 781 c 0,76,77
 848 759 848 759 842 730 c 0,78,79
 836 701 836 701 830 667 c 0,80,81
 824 633 824 633 818 601 c 0,82,83
 816 590 816 590 813.5 580 c 128,-1,84
 811 570 811 570 809 560 c 128,-1,85
 807 550 807 550 805 541 c 0,86,87
 802 526 802 526 799.5 516 c 128,-1,88
 797 506 797 506 795 497 c 0,89,90
 792 487 792 487 783 457 c 0,91,92
 774 428 774 428 763.5 393.5 c 128,-1,93
 753 359 753 359 742 326 c 0,94,95
 739 315 739 315 736 306.5 c 128,-1,96
 733 298 733 298 731 291 c 128,-1,97
 729 284 729 284 728 278 c 2,98,-1
 727 276 l 1,99,-1
 727 275 l 2,100,101
 722 262 722 262 715 240 c 0,102,103
 711 228 711 228 707 214.5 c 128,-1,104
 703 201 703 201 698 187 c 0,105,106
 687 158 687 158 673 129 c 0,107,108
 657 98 657 98 635 72 c 0,109,110
 611 43 611 43 579 25 c 0,111,112
 541 1 541 1 493 1 c 0,113,114
 462 1 462 1 434 12 c 0,115,116
 407 22 407 22 386 40 c 0,117,118
 376 48 376 48 367 57.5 c 128,-1,119
 358 67 358 67 352 78 c 0,0,1
EndSplineSet
Validated: 1
EndChar

StartChar: U
Encoding: 85 85 56
Width: 1464
GlyphClass: 2
Flags: W
LayerCount: 2
Fore
SplineSet
110 1423 m 1,0,-1
 112 1430 l 2,1,2
 116 1441 116 1441 122 1451 c 0,3,4
 128 1462 128 1462 138 1471 c 0,5,6
 154 1487 154 1487 174 1498 c 0,7,8
 192 1507 192 1507 212 1512 c 0,9,10
 222 1514 222 1514 231.5 1515.5 c 128,-1,11
 241 1517 241 1517 251 1517 c 0,12,13
 269 1517 269 1517 288 1512 c 0,14,15
 294 1510 294 1510 300.5 1507.5 c 128,-1,16
 307 1505 307 1505 312.5 1502.5 c 128,-1,17
 318 1500 318 1500 324 1496 c 0,18,19
 335 1490 335 1490 344.5 1483 c 128,-1,20
 354 1476 354 1476 362 1468 c 0,21,22
 382 1447 382 1447 384 1421 c 2,23,-1
 385 1418 l 1,24,-1
 385 1414 l 1,25,-1
 356 1013 l 2,26,27
 357 996 357 996 357 976 c 0,28,29
 357 972 357 972 357 967.5 c 128,-1,30
 357 963 357 963 357 958.5 c 128,-1,31
 357 954 357 954 357 949.5 c 128,-1,32
 357 945 357 945 356.5 940 c 128,-1,33
 356 935 356 935 356 930 c 128,-1,34
 356 925 356 925 355.5 920 c 128,-1,35
 355 915 355 915 355 910 c 0,36,37
 352 851 352 851 348 785 c 0,38,39
 346 752 346 752 345.5 718 c 128,-1,40
 345 684 345 684 345 649 c 0,41,42
 345 644 345 644 344 637 c 0,43,44
 345 605 345 605 347 575.5 c 128,-1,45
 349 546 349 546 353 516 c 0,46,47
 357 484 357 484 365 454.5 c 128,-1,48
 373 425 373 425 383 397 c 0,49,50
 403 345 403 345 440 307 c 0,51,52
 474 271 474 271 527 249 c 0,53,54
 581 228 581 228 664 228 c 0,55,56
 738 228 738 228 796 256 c 0,57,58
 858 286 858 286 906 335 c 0,59,60
 956 386 956 386 991 452 c 0,61,62
 1009 486 1009 486 1024.5 521 c 128,-1,63
 1040 556 1040 556 1052 593 c 0,64,65
 1060 617 1060 617 1066.5 641 c 128,-1,66
 1073 665 1073 665 1078.5 689 c 128,-1,67
 1084 713 1084 713 1088 737 c 0,68,69
 1094 773 1094 773 1097 805.5 c 128,-1,70
 1100 838 1100 838 1100 867 c 2,71,-1
 1100 1059 l 2,72,73
 1100 1143 1100 1143 1098 1224 c 0,74,75
 1095 1307 1095 1307 1095 1393 c 0,76,77
 1095 1449 1095 1449 1147 1484 c 1,78,79
 1188 1517 1188 1517 1244 1517 c 0,80,81
 1296 1517 1296 1517 1331 1485 c 0,82,83
 1366 1456 1366 1456 1372 1409 c 2,84,-1
 1372 1407 l 1,85,-1
 1372 1405 l 2,86,87
 1373 1395 1373 1395 1373 1385.5 c 128,-1,88
 1373 1376 1373 1376 1373.5 1367 c 128,-1,89
 1374 1358 1374 1358 1374.5 1349 c 128,-1,90
 1375 1340 1375 1340 1375.5 1331.5 c 128,-1,91
 1376 1323 1376 1323 1376.5 1315.5 c 128,-1,92
 1377 1308 1377 1308 1377 1300 c 0,93,94
 1379 1255 1379 1255 1380 1215 c 0,95,96
 1382 1174 1382 1174 1382 1132 c 0,97,98
 1382 1118 1382 1118 1382.5 1103.5 c 128,-1,99
 1383 1089 1383 1089 1383 1073 c 128,-1,100
 1383 1057 1383 1057 1383 1039 c 0,101,102
 1383 993 1383 993 1380.5 942 c 128,-1,103
 1378 891 1378 891 1373 835 c 0,104,105
 1368 779 1368 779 1358.5 722 c 128,-1,106
 1349 665 1349 665 1336 608 c 0,107,108
 1323 550 1323 550 1305 494 c 128,-1,109
 1287 438 1287 438 1265 383 c 0,110,111
 1218 271 1218 271 1146 183 c 1,112,113
 1063 93 1063 93 946 37 c 0,114,115
 826 -25 826 -25 668 -29 c 1,116,-1
 642 -29 l 2,117,118
 595 -29 595 -29 553 -24.5 c 128,-1,119
 511 -20 511 -20 471.5 -10.5 c 128,-1,120
 432 -1 432 -1 397 13 c 0,121,122
 288 56 288 56 224 134 c 0,123,124
 162 210 162 210 130 309 c 0,125,126
 101 405 101 405 88 514 c 0,127,128
 78 605 78 605 78 701 c 2,129,-1
 78 734 l 2,130,131
 79 762 79 762 79.5 789.5 c 128,-1,132
 80 817 80 817 81 844.5 c 128,-1,133
 82 872 82 872 83.5 898.5 c 128,-1,134
 85 925 85 925 87 952 c 0,135,136
 89 987 89 987 91.5 1020.5 c 128,-1,137
 94 1054 94 1054 96.5 1086.5 c 128,-1,138
 99 1119 99 1119 102 1150 c 0,139,140
 106 1196 106 1196 108 1236 c 128,-1,141
 110 1276 110 1276 110 1309 c 2,142,-1
 110 1416 l 1,143,-1
 110 1423 l 1,0,-1
EndSplineSet
Validated: 1
EndChar

StartChar: V
Encoding: 86 86 57
Width: 1547
GlyphClass: 2
Flags: W
LayerCount: 2
Fore
SplineSet
109 1404 m 1,0,-1
 111 1411 l 2,1,2
 124 1452 124 1452 157 1476 c 0,3,4
 192 1505 192 1505 240 1505 c 0,5,6
 282 1505 282 1505 318 1481 c 0,7,8
 356 1455 356 1455 371 1412 c 2,9,-1
 372 1408 l 1,10,-1
 372 1405 l 2,11,12
 400 1245 400 1245 431 1120 c 128,-1,13
 462 995 462 995 493 900 c 0,14,15
 524 805 524 805 555 732 c 0,16,17
 587 659 587 659 617 601 c 128,-1,18
 647 543 647 543 676 495 c 0,19,20
 686 478 686 478 696 462 c 128,-1,21
 706 446 706 446 715.5 430 c 128,-1,22
 725 414 725 414 734 398 c 0,23,24
 762 349 762 349 787 297 c 0,25,26
 788 295 788 295 789 292 c 128,-1,27
 790 289 790 289 791 287 c 2,28,-1
 1022 642 l 2,29,30
 1040 669 1040 669 1055.5 697 c 128,-1,31
 1071 725 1071 725 1085 754 c 128,-1,32
 1099 783 1099 783 1111 814 c 0,33,34
 1148 905 1148 905 1169 1000 c 0,35,36
 1191 1096 1191 1096 1201 1193 c 0,37,38
 1212 1291 1212 1291 1214 1387 c 2,39,-1
 1214 1394 l 1,40,-1
 1216 1400 l 2,41,42
 1231 1448 1231 1448 1268 1476 c 0,43,44
 1304 1505 1304 1505 1354 1505 c 0,45,46
 1383 1505 1383 1505 1409.5 1493 c 128,-1,47
 1436 1481 1436 1481 1454 1457 c 0,48,49
 1469 1438 1469 1438 1477 1415.5 c 128,-1,50
 1485 1393 1485 1393 1485 1369 c 0,51,52
 1485 1349 1485 1349 1484.5 1329 c 128,-1,53
 1484 1309 1484 1309 1483.5 1287.5 c 128,-1,54
 1483 1266 1483 1266 1481.5 1244.5 c 128,-1,55
 1480 1223 1480 1223 1478 1201 c 0,56,57
 1475 1156 1475 1156 1469 1110.5 c 128,-1,58
 1463 1065 1463 1065 1455 1019 c 0,59,60
 1449 988 1449 988 1442 958 c 128,-1,61
 1435 928 1435 928 1427 898.5 c 128,-1,62
 1419 869 1419 869 1409 839 c 0,63,64
 1394 794 1394 794 1376 753.5 c 128,-1,65
 1358 713 1358 713 1335 676 c 2,66,-1
 935 68 l 2,67,68
 912 36 912 36 876 19 c 0,69,70
 839 0 839 0 798 0 c 0,71,72
 753 0 753 0 709 19 c 0,73,74
 670 35 670 35 635 59 c 0,75,76
 602 82 602 82 576 109 c 0,77,78
 549 138 549 138 535 165 c 0,79,80
 492 256 492 256 443 346 c 0,81,82
 392 438 392 438 343 530 c 0,83,84
 298 623 298 623 256 718 c 0,85,86
 214 813 214 813 181 911 c 0,87,88
 148 1010 148 1010 129 1112 c 0,89,90
 109 1215 109 1215 109 1323 c 2,91,-1
 109 1397 l 1,92,-1
 109 1404 l 1,0,-1
EndSplineSet
Validated: 1
EndChar

StartChar: W
Encoding: 87 87 58
Width: 1932
GlyphClass: 2
Flags: W
LayerCount: 2
Fore
SplineSet
70 1361.5 m 128,-1,1
 69 1368 69 1368 69 1376 c 0,2,3
 69 1435 69 1435 109 1475 c 0,4,5
 149 1514 149 1514 207 1514 c 0,6,7
 211 1514 211 1514 215 1514 c 128,-1,8
 219 1514 219 1514 223 1513.5 c 128,-1,9
 227 1513 227 1513 232 1513 c 0,10,11
 240 1512 240 1512 248 1510.5 c 128,-1,12
 256 1509 256 1509 264 1507 c 0,13,14
 282 1502 282 1502 296 1492 c 0,15,16
 321 1476 321 1476 331 1444 c 2,17,-1
 483 925 l 1,18,-1
 757 395 l 1,19,-1
 785 342 l 1,20,21
 799 381 799 381 811 420 c 0,22,23
 817 440 817 440 823.5 462 c 128,-1,24
 830 484 830 484 836 507 c 2,25,-1
 867 623 l 1,26,-1
 868 625 l 1,27,-1
 869 627 l 2,28,29
 877 649 877 649 886 671 c 0,30,31
 892 684 892 684 899 696.5 c 128,-1,32
 906 709 906 709 914 719 c 0,33,34
 924 731 924 731 936 741.5 c 128,-1,35
 948 752 948 752 961 760 c 0,36,37
 978 769 978 769 997 773.5 c 128,-1,38
 1016 778 1016 778 1037 778 c 0,39,40
 1055 778 1055 778 1073 773.5 c 128,-1,41
 1091 769 1091 769 1106.5 761 c 128,-1,42
 1122 753 1122 753 1136 741 c 0,43,44
 1143 735 1143 735 1150 728.5 c 128,-1,45
 1157 722 1157 722 1163.5 714.5 c 128,-1,46
 1170 707 1170 707 1176 699.5 c 128,-1,47
 1182 692 1182 692 1188 683.5 c 128,-1,48
 1194 675 1194 675 1199 666 c 0,49,50
 1225 624 1225 624 1247 571 c 0,51,52
 1268 521 1268 521 1288 469 c 0,53,54
 1308 418 1308 418 1328 368 c 0,55,56
 1337 345 1337 345 1346.5 324.5 c 128,-1,57
 1356 304 1356 304 1366 286 c 0,58,59
 1382 258 1382 258 1399 241 c 1,60,61
 1419 276 1419 276 1437 310 c 128,-1,62
 1455 344 1455 344 1471 378 c 0,63,64
 1513 466 1513 466 1542 555 c 0,65,66
 1549 577 1549 577 1555.5 599.5 c 128,-1,67
 1562 622 1562 622 1567.5 645 c 128,-1,68
 1573 668 1573 668 1577.5 691 c 128,-1,69
 1582 714 1582 714 1586 737 c 0,70,71
 1602 830 1602 830 1602 930 c 0,72,73
 1602 1019 1602 1019 1599 1107 c 0,74,75
 1596 1196 1596 1196 1595 1286 c 2,76,-1
 1595 1295 l 2,77,78
 1595 1304 1595 1304 1597 1321 c 0,79,80
 1598 1329 1598 1329 1598 1337 c 128,-1,81
 1598 1345 1598 1345 1599 1353 c 0,82,83
 1599 1359 1599 1359 1599.5 1365 c 128,-1,84
 1600 1371 1600 1371 1600.5 1376.5 c 128,-1,85
 1601 1382 1601 1382 1601 1387 c 0,86,87
 1602 1401 1602 1401 1602 1405 c 2,88,-1
 1602 1412 l 1,89,-1
 1604 1419 l 2,90,91
 1618 1466 1618 1466 1657 1491 c 0,92,93
 1692 1514 1692 1514 1736 1514 c 0,94,95
 1752 1514 1752 1514 1766.5 1511 c 128,-1,96
 1781 1508 1781 1508 1795.5 1501 c 128,-1,97
 1810 1494 1810 1494 1822 1483 c 0,98,99
 1850 1459 1850 1459 1864 1423 c 2,100,-1
 1868 1415 l 1,101,-1
 1868 1407 l 2,102,103
 1870 1339 1870 1339 1871 1287 c 0,104,105
 1872 1261 1872 1261 1872.5 1236 c 128,-1,106
 1873 1211 1873 1211 1873 1187 c 0,107,108
 1874 1140 1874 1140 1874 1091 c 2,109,-1
 1874 982 l 1,110,-1
 1874 837 l 1,111,-1
 1874 835 l 1,112,-1
 1874 832 l 2,113,114
 1871 796 1871 796 1865.5 761 c 128,-1,115
 1860 726 1860 726 1852.5 691.5 c 128,-1,116
 1845 657 1845 657 1836 623 c 0,117,118
 1809 523 1809 523 1769 428 c 0,119,120
 1749 381 1749 381 1726.5 334 c 128,-1,121
 1704 287 1704 287 1679 241 c 0,122,123
 1629 150 1629 150 1566 59 c 2,124,-1
 1563 55 l 1,125,-1
 1560 51 l 2,126,127
 1553 44 1553 44 1545 38 c 0,128,129
 1537 31 1537 31 1528.5 25.5 c 128,-1,130
 1520 20 1520 20 1511 15 c 0,131,132
 1481 0 1481 0 1443 0 c 0,133,134
 1385 0 1385 0 1330 32 c 0,135,136
 1283 59 1283 59 1240 102 c 0,137,138
 1198 143 1198 143 1162 194 c 0,139,140
 1127 243 1127 243 1096 293 c 0,141,142
 1080 319 1080 319 1066 344 c 1,143,144
 1063 333 1063 333 1059 322 c 0,145,146
 1051 297 1051 297 1042 271.5 c 128,-1,147
 1033 246 1033 246 1023 219 c 0,148,149
 1001 164 1001 164 972 119 c 0,150,151
 942 71 942 71 902 39 c 0,152,153
 854 0 854 0 795 0 c 0,154,155
 737 0 737 0 700 33 c 1,156,157
 673 32 673 32 653 30 c 0,158,159
 651 30 651 30 648.5 30 c 128,-1,160
 646 30 646 30 644 29.5 c 128,-1,161
 642 29 642 29 639.5 29 c 128,-1,162
 637 29 637 29 634.5 28.5 c 128,-1,163
 632 28 632 28 630 28 c 0,164,165
 627 33 627 33 624.5 37.5 c 128,-1,166
 622 42 622 42 619 47 c 0,167,168
 598 82 598 82 578 116 c 0,169,170
 558 150 558 150 543 177 c 0,171,172
 541 181 541 181 537.5 186 c 128,-1,173
 534 191 534 191 532.5 193.5 c 128,-1,174
 531 196 531 196 529.5 199 c 128,-1,175
 528 202 528 202 527 203.5 c 128,-1,176
 526 205 526 205 525 207 c 2,177,-1
 211 849 l 1,178,-1
 210 852 l 1,179,-1
 209 854 l 2,180,181
 208 858 208 858 196 896 c 0,182,183
 185 934 185 934 170 990 c 0,184,185
 155 1045 155 1045 137 1110 c 0,186,187
 128 1142 128 1142 120 1172 c 128,-1,188
 112 1202 112 1202 105 1230 c 0,189,190
 91 1285 91 1285 81 1322 c 0,191,192
 79 1330 79 1330 76 1339 c 128,-1,193
 73 1348 73 1348 72 1351.5 c 128,-1,0
 71 1355 71 1355 70 1361.5 c 128,-1,1
EndSplineSet
Validated: 1
EndChar

StartChar: X
Encoding: 88 88 59
Width: 1690
GlyphClass: 2
Flags: W
LayerCount: 2
Fore
SplineSet
125 39 m 0,0,1
 86 74 86 74 86 127 c 0,2,3
 86 188 86 188 113 254 c 0,4,5
 139 316 139 316 181 379 c 0,6,7
 222 440 222 440 273 500 c 0,8,9
 283 512 283 512 293 523.5 c 128,-1,10
 303 535 303 535 313 546 c 128,-1,11
 323 557 323 557 333 569 c 0,12,13
 344 580 344 580 355.5 590.5 c 128,-1,14
 367 601 367 601 379 612 c 0,15,16
 435 665 435 665 487 710 c 0,17,18
 497 719 497 719 506.5 727 c 128,-1,19
 516 735 516 735 525 743 c 128,-1,20
 534 751 534 751 542 758 c 1,21,22
 529 771 529 771 516.5 784 c 128,-1,23
 504 797 504 797 489 810 c 0,24,25
 438 857 438 857 382 908 c 0,26,27
 326 960 326 960 276 1014 c 0,28,29
 224 1070 224 1070 183 1128 c 0,30,31
 141 1188 141 1188 114 1250 c 0,32,33
 86 1315 86 1315 86 1381 c 0,34,35
 86 1405 86 1405 94.5 1427.5 c 128,-1,36
 103 1450 103 1450 119 1468 c 0,37,38
 137 1490 137 1490 163.5 1500.5 c 128,-1,39
 190 1511 190 1511 219 1511 c 0,40,41
 256 1511 256 1511 282 1498 c 0,42,43
 307 1485 307 1485 330 1457 c 2,44,-1
 334 1452 l 1,45,-1
 336 1447 l 2,46,47
 379 1366 379 1366 430 1287 c 0,48,49
 442 1267 442 1267 455 1247.5 c 128,-1,50
 468 1228 468 1228 481.5 1209 c 128,-1,51
 495 1190 495 1190 509 1171 c 128,-1,52
 523 1152 523 1152 537 1134 c 0,53,54
 566 1097 566 1097 596.5 1061 c 128,-1,55
 627 1025 627 1025 659 991 c 0,56,57
 707 940 707 940 761 894 c 1,58,59
 764 897 764 897 767 899 c 0,60,61
 782 910 782 910 799 923 c 128,-1,62
 816 936 816 936 835 951 c 0,63,64
 873 980 873 980 913.5 1012.5 c 128,-1,65
 954 1045 954 1045 991 1075 c 0,66,67
 1028 1104 1028 1104 1057 1127 c 0,68,69
 1072 1139 1072 1139 1082 1147.5 c 128,-1,70
 1092 1156 1092 1156 1100 1163 c 0,71,72
 1105 1167 1105 1167 1111 1173 c 128,-1,73
 1117 1179 1117 1179 1124.5 1187 c 128,-1,74
 1132 1195 1132 1195 1140 1204 c 0,75,76
 1147 1212 1147 1212 1153.5 1220 c 128,-1,77
 1160 1228 1160 1228 1167 1236.5 c 128,-1,78
 1174 1245 1174 1245 1181 1254 c 128,-1,79
 1188 1263 1188 1263 1195 1272 c 0,80,81
 1225 1310 1225 1310 1258 1349 c 0,82,83
 1275 1370 1275 1370 1292.5 1388.5 c 128,-1,84
 1310 1407 1310 1407 1327 1423 c 0,85,86
 1364 1459 1364 1459 1400 1482 c 0,87,88
 1420 1496 1420 1496 1441.5 1503.5 c 128,-1,89
 1463 1511 1463 1511 1486 1511 c 0,90,91
 1540 1511 1540 1511 1580 1477 c 0,92,93
 1623 1442 1623 1442 1623 1385 c 0,94,95
 1623 1340 1623 1340 1597 1291 c 0,96,97
 1574 1248 1574 1248 1538 1205 c 0,98,99
 1504 1164 1504 1164 1462 1123 c 0,100,101
 1442 1103 1442 1103 1421.5 1085 c 128,-1,102
 1401 1067 1401 1067 1381 1050 c 0,103,104
 1338 1016 1338 1016 1301 989 c 0,105,106
 1266 964 1266 964 1247 949 c 0,107,108
 1238 942 1238 942 1219 927 c 0,109,110
 1198 912 1198 912 1170 891 c 128,-1,111
 1142 870 1142 870 1109 846 c 0,112,113
 1077 823 1077 823 1049 802 c 0,114,115
 1035 792 1035 792 1023 783 c 128,-1,116
 1011 774 1011 774 1001 766 c 0,117,118
 998 763 998 763 994 760.5 c 128,-1,119
 990 758 990 758 988 756 c 1,120,121
 994 751 994 751 998.5 747.5 c 128,-1,122
 1003 744 1003 744 1010 739 c 0,123,124
 1051 709 1051 709 1102 673 c 0,125,126
 1154 636 1154 636 1214 593 c 0,127,128
 1274 550 1274 550 1333 505 c 0,129,130
 1391 459 1391 459 1441 412 c 0,131,132
 1491 364 1491 364 1530 319 c 0,133,134
 1571 271 1571 271 1595 228 c 0,135,136
 1623 178 1623 178 1623 132 c 0,137,138
 1623 74 1623 74 1583 39 c 0,139,140
 1544 3 1544 3 1486 3 c 0,141,142
 1432 3 1432 3 1392 36 c 1,143,144
 1376 35 1376 35 1360 33.5 c 128,-1,145
 1344 32 1344 32 1330 31 c 0,146,147
 1318 30 1318 30 1306 28 c 1,148,149
 1294 45 1294 45 1283 63 c 0,150,151
 1279 69 1279 69 1275.5 74 c 128,-1,152
 1272 79 1272 79 1268.5 84 c 128,-1,153
 1265 89 1265 89 1261.5 93.5 c 128,-1,154
 1258 98 1258 98 1254 101.5 c 128,-1,155
 1250 105 1250 105 1247 109 c 0,156,157
 1179 172 1179 172 1118 225.5 c 128,-1,158
 1057 279 1057 279 995 331 c 0,159,160
 974 348 974 348 953 365 c 128,-1,161
 932 382 932 382 910.5 399.5 c 128,-1,162
 889 417 889 417 867 434 c 0,163,164
 843 453 843 453 817 473 c 128,-1,165
 791 493 791 493 764 514 c 1,166,167
 738 488 738 488 713.5 463.5 c 128,-1,168
 689 439 689 439 665 414 c 0,169,170
 633 380 633 380 602.5 345.5 c 128,-1,171
 572 311 572 311 543 275 c 0,172,173
 485 204 485 204 435 129 c 0,174,175
 410 92 410 92 387 52 c 1,176,177
 364 38 364 38 344 22 c 1,178,-1
 342 22 l 1,179,-1
 341 21 l 2,180,181
 318 17 318 17 283 16 c 0,182,183
 273 12 273 12 261.5 9 c 128,-1,184
 250 6 250 6 239 4.5 c 128,-1,185
 228 3 228 3 216 3 c 0,186,187
 163 3 163 3 125 39 c 0,0,1
EndSplineSet
Validated: 1
EndChar

StartChar: Y
Encoding: 89 89 60
Width: 1451
GlyphClass: 2
Flags: W
LayerCount: 2
Fore
SplineSet
695 99 m 1,0,-1
 695 107 l 2,1,2
 698 163 698 163 698 221 c 2,3,-1
 698 242 l 2,4,5
 698 312 698 312 694 382 c 0,6,7
 690 452 690 452 684 522 c 0,8,9
 677 592 677 592 669 658 c 2,10,-1
 669 660 l 1,11,-1
 669 662 l 2,12,13
 669 663 l 2,14,-1
 668 664 l 1,15,-1
 353 907 l 2,16,17
 302 948 302 948 254 1005 c 128,-1,18
 206 1062 206 1062 166 1127 c 0,19,20
 159 1138 159 1138 153 1148.5 c 128,-1,21
 147 1159 147 1159 141 1170 c 128,-1,22
 135 1181 135 1181 129.5 1192.5 c 128,-1,23
 124 1204 124 1204 119 1215 c 128,-1,24
 114 1226 114 1226 109.5 1237.5 c 128,-1,25
 105 1249 105 1249 100 1260 c 0,26,27
 73 1332 73 1332 73 1399 c 0,28,29
 73 1453 73 1453 113 1484 c 0,30,31
 149 1513 149 1513 203 1513 c 0,32,33
 249 1513 249 1513 286 1480 c 0,34,35
 314 1455 314 1455 341 1417 c 0,36,37
 365 1382 365 1382 386 1341 c 0,38,39
 405 1302 405 1302 422 1263 c 0,40,41
 439 1226 439 1226 454 1194 c 0,42,43
 466 1168 466 1168 477 1154 c 0,44,45
 554 1067 554 1067 643 987 c 0,46,47
 712 925 712 925 788 873 c 1,48,49
 798 884 798 884 807 894.5 c 128,-1,50
 816 905 816 905 826 916 c 0,51,52
 863 958 863 958 899 1001 c 0,53,54
 906 1010 906 1010 913 1018.5 c 128,-1,55
 920 1027 920 1027 926.5 1035.5 c 128,-1,56
 933 1044 933 1044 939.5 1052.5 c 128,-1,57
 946 1061 946 1061 953 1070 c 128,-1,58
 960 1079 960 1079 966 1088 c 0,59,60
 997 1130 997 1130 1023 1174 c 0,61,62
 1033 1193 1033 1193 1042 1221 c 0,63,64
 1053 1253 1053 1253 1065 1288 c 0,65,66
 1067 1293 1067 1293 1068.5 1298 c 128,-1,67
 1070 1303 1070 1303 1072 1308.5 c 128,-1,68
 1074 1314 1074 1314 1076 1319 c 128,-1,69
 1078 1324 1078 1324 1080 1329.5 c 128,-1,70
 1082 1335 1082 1335 1084 1340 c 128,-1,71
 1086 1345 1086 1345 1088 1350.5 c 128,-1,72
 1090 1356 1090 1356 1093 1361 c 0,73,74
 1110 1400 1110 1400 1131 1432 c 0,75,76
 1155 1467 1155 1467 1184 1490 c 0,77,78
 1202 1504 1202 1504 1223.5 1511.5 c 128,-1,79
 1245 1519 1245 1519 1268 1519 c 0,80,81
 1317 1519 1317 1519 1354 1495 c 0,82,83
 1357 1493 1357 1493 1360 1491 c 128,-1,84
 1363 1489 1363 1489 1366 1486.5 c 128,-1,85
 1369 1484 1369 1484 1371.5 1481 c 128,-1,86
 1374 1478 1374 1478 1376 1475 c 0,87,88
 1401 1447 1401 1447 1401 1406 c 0,89,90
 1401 1379 1401 1379 1396.5 1350 c 128,-1,91
 1392 1321 1392 1321 1383 1291 c 0,92,93
 1374 1262 1374 1262 1362.5 1233.5 c 128,-1,94
 1351 1205 1351 1205 1337 1177 c 0,95,96
 1310 1121 1310 1121 1278 1071 c 0,97,98
 1262 1046 1262 1046 1246.5 1024 c 128,-1,99
 1231 1002 1231 1002 1216 982 c 2,100,-1
 978 703 l 1,101,-1
 978 671 l 2,102,103
 978 577 978 577 988 476 c 0,104,105
 998 372 998 372 998 275 c 0,106,107
 998 269 998 269 998.5 260.5 c 128,-1,108
 999 252 999 252 1000 242 c 0,109,110
 1001 234 1001 234 1001.5 225.5 c 128,-1,111
 1002 217 1002 217 1002 208 c 128,-1,112
 1002 199 1002 199 1002 190 c 0,113,114
 1002 183 1002 183 1002 176.5 c 128,-1,115
 1002 170 1002 170 1001.5 163.5 c 128,-1,116
 1001 157 1001 157 1000.5 150.5 c 128,-1,117
 1000 144 1000 144 999 137 c 0,118,119
 995 105 995 105 981 78 c 0,120,121
 973 63 973 63 960 50 c 0,122,123
 948 36 948 36 933 26 c 0,124,125
 898 3 898 3 846 3 c 0,126,127
 824 3 824 3 802.5 7.5 c 128,-1,128
 781 12 781 12 761 21 c 0,129,130
 712 42 712 42 697 93 c 2,131,-1
 695 99 l 1,0,-1
EndSplineSet
Validated: 1
EndChar

